M48
; DRILL file {KiCad (5.1.7)-1} date 10/24/20 01:42:06
; FORMAT={3:3/ absolute / metric / suppress leading zeros}
; #@! TF.CreationDate,2020-10-24T01:42:06+02:00
; #@! TF.GenerationSoftware,Kicad,Pcbnew,(5.1.7)-1
FMAT,2
METRIC,TZ
T1C0.300
T2C0.400
T3C1.000
T4C1.040
T5C1.470
T6C1.500
T7C1.524
T8C1.750
T9C3.048
T10C3.988
%
G90
G05
T1
X-7380Y-52178
X-6590Y-52818
X-3216Y-7777
X-3216Y-10147
X3909Y-69871
X6375Y-8567
X6375Y-9357
X15784Y-70416
X17375Y-109587
X17375Y-110377
X20534Y-7777
X20534Y-10147
X31525Y-70795
X39534Y-7777
X39534Y-10147
X44290Y-8567
X44290Y-9357
X50905Y-71175
X55290Y-109587
X55290Y-110377
X58534Y-7777
X58534Y-10147
X70285Y-71555
X77534Y-7777
X77534Y-10147
X82205Y-8567
X82205Y-9357
X89665Y-71935
X93205Y-109587
X93205Y-110377
X101284Y-7777
X101284Y-10147
X105770Y-7777
X105780Y-10275
X106570Y-10275
X107213Y-48780
X109055Y-72325
X111943Y-68223
X114383Y-101797
X116710Y-29895
X119555Y-7777
X119555Y-10147
X120121Y-8567
X120121Y-9357
X121473Y-87043
X122410Y-72550
X123005Y-71955
X123607Y-72543
X123720Y-106260
X124195Y-71955
X124590Y-101540
X124790Y-72550
X125385Y-71955
X125980Y-72550
X126575Y-71955
X127170Y-72550
X127765Y-71955
X128360Y-72550
X128710Y-107470
X128850Y-108411
X128955Y-71955
X129000Y-90970
X129000Y-97970
X129000Y-101470
X129550Y-72550
X130500Y-90970
X130500Y-92470
X130500Y-97970
X130500Y-101470
X130700Y-94870
X131121Y-109587
X131121Y-110377
X132390Y-107470
X133450Y-102920
X134000Y-104470
X135000Y-103470
X135000Y-104470
X135100Y-107470
X135300Y-94870
X136950Y-105620
X137155Y-100520
X139000Y-90070
X139000Y-104720
X139000Y-107470
X139284Y-10147
X139284Y-7777
X142050Y-97820
X142050Y-98920
X142050Y-100020
X142050Y-101120
X142050Y-102220
X142050Y-96720
X143800Y-92170
X143950Y-105670
X144000Y-90070
X144660Y-89327
X144750Y-90870
X144750Y-93570
X145241Y-88791
X145830Y-89319
X145850Y-106870
X146950Y-106870
X147500Y-107470
X148050Y-106870
X149150Y-106870
X150250Y-90950
X150250Y-106870
X150800Y-107470
X151350Y-106870
X151420Y-90945
X152370Y-90945
X152450Y-106870
X153550Y-90950
X153550Y-106870
X154650Y-90950
X154650Y-108765
X155750Y-90950
X156850Y-90945
X157533Y-7777
X157533Y-10147
X157950Y-93520
X157950Y-94600
X157950Y-95680
X157950Y-96760
X157950Y-97840
X157950Y-98920
X157950Y-100000
X157950Y-101080
X157950Y-102160
X157950Y-103240
X157950Y-104320
X158036Y-8567
X158036Y-9357
X167004Y-109599
X167004Y-110389
X171215Y-54650
X173974Y-35674
X176697Y4315
X178599Y-73671
X179150Y-7777
X179150Y-10147
X179225Y-16650
X179790Y-13325
X180590Y-13325
X181355Y-102900
X181380Y-101175
X181380Y-105255
X181390Y-13325
X182034Y-7777
X182034Y-10147
X183105Y-101175
X185065Y-72335
X195194Y-7777
X195194Y-10147
X195600Y-87331
X195951Y-8567
X195951Y-9357
X197450Y-106220
X203680Y-71950
X206951Y-109587
X206951Y-110377
X219450Y-71565
X220034Y-7777
X220034Y-10147
X231832Y-109587
X231832Y-110377
X232503Y-7777
X232503Y-10147
X233866Y-8567
X233866Y-9357
X238893Y-73007
X248650Y-39250
X251910Y-72730
X262784Y-7777
X262784Y-10147
X271582Y-109587
X271582Y-110377
X271781Y-8567
X271781Y-9357
X275911Y-11715
X275911Y-54085
X276701Y-52578
X277491Y-51843
X278023Y-108193
X278281Y-50660
X286510Y-72850
T2
X146950Y-94670
X146950Y-103170
X148050Y-94670
X148050Y-103170
X149150Y-94670
X149150Y-103170
X150250Y-94670
X150250Y-103170
X151350Y-94670
X151350Y-103170
X152450Y-94670
X152450Y-103170
X153550Y-94670
X153550Y-103170
X154650Y-94670
X154650Y-103170
X155750Y-94670
X155750Y-103170
T3
X147290Y-89180
X149830Y-89180
X152370Y-89180
X287250Y7000
X287250Y-7500
X289750Y-7500
X292250Y7000
X292250Y-7500
T4
X240980Y-5080
X243520Y-5080
X103230Y-47830
X105770Y-47830
X107980Y-66830
X110520Y-66830
X69980Y-66830
X72520Y-66830
X119855Y-104830
X122395Y-104830
X41480Y-5080
X44020Y-5080
X74730Y-28830
X77270Y-28830
X50980Y-66830
X53520Y-66830
X183980Y-5080
X186520Y-5080
X264730Y-5080
X267270Y-5080
X202980Y-5080
X205520Y-5080
X217230Y-47830
X219770Y-47830
X221980Y-5080
X224520Y-5080
X198230Y-47830
X200770Y-47830
X145980Y-66830
X148520Y-66830
X131730Y-28830
X134270Y-28830
X202980Y-66830
X205520Y-66830
X-1270Y-28830
X1270Y-28830
X41480Y-85830
X44020Y-85830
X174480Y-85830
X177020Y-85830
X22480Y-85830
X25020Y-85830
X255230Y-28830
X257770Y-28830
X17730Y-28830
X20270Y-28830
X112730Y-28830
X115270Y-28830
X169730Y-28830
X172270Y-28830
X193480Y-104830
X196020Y-104830
X88980Y-66830
X91520Y-66830
X193480Y-85830
X196020Y-85830
X288480Y-47830
X291020Y-47830
X24855Y-104830
X27395Y-104830
X5855Y-66830
X8395Y-66830
X48605Y-104830
X51145Y-104830
X160230Y-47830
X162770Y-47830
X126980Y-66830
X129520Y-66830
X55730Y-28830
X58270Y-28830
X1105Y-104830
X3645Y-104830
X207730Y-28830
X210270Y-28830
X3480Y-47830
X6020Y-47830
X103230Y-5080
X105770Y-5080
X288480Y-28830
X291020Y-28830
X188730Y-28830
X191270Y-28830
X141230Y-47830
X143770Y-47830
X136480Y-85830
X139020Y-85830
X164980Y-66830
X167520Y-66830
X236230Y-85830
X238770Y-85830
X79480Y-5080
X82020Y-5080
X84230Y-47830
X86770Y-47830
X22480Y-5080
X25020Y-5080
X226730Y-28830
X229270Y-28830
X150730Y-28830
X153270Y-28830
X10605Y-85830
X13145Y-85830
X117480Y-85830
X120020Y-85830
X288480Y-85830
X291020Y-85830
X236230Y-47830
X238770Y-47830
X221980Y-66830
X224520Y-66830
X31980Y-66830
X34520Y-66830
X65230Y-47830
X67770Y-47830
X93730Y-28830
X96270Y-28830
X122230Y-47830
X124770Y-47830
X288480Y-66830
X291020Y-66830
X46230Y-47830
X48770Y-47830
X219605Y-104830
X222145Y-104830
X122230Y-5080
X124770Y-5080
X212480Y-85830
X215020Y-85830
X60480Y-85830
X63020Y-85830
X245730Y-109580
X248270Y-109580
X283730Y-109580
X286270Y-109580
X264730Y-109580
X267270Y-109580
X179230Y-47830
X181770Y-47830
X252855Y-66830
X255395Y-66830
X155480Y-85830
X158020Y-85830
X98480Y-85830
X101020Y-85830
X141230Y-5080
X143770Y-5080
X1105Y-85830
X3645Y-85830
X79480Y-85830
X82020Y-85830
X240980Y-66830
X243520Y-66830
X264730Y-90580
X267270Y-90580
X160230Y-5080
X162770Y-5080
X36730Y-28830
X39270Y-28830
X60480Y-5080
X63020Y-5080
X-1270Y-5080
X1270Y-5080
X259980Y-37670
X262520Y-37670
X27230Y-47830
X29770Y-47830
X258545Y-50980
X258545Y-53520
X183980Y-66830
X186520Y-66830
T5
X8065Y-78210
X14415Y-75670
X250315Y-59210
X256665Y-56670
X57940Y2540
X64290Y5080
X258710Y-47830
X265060Y-45290
X266165Y-48440
X268705Y-54790
T7
X200440Y2540
X206790Y5080
X214690Y-40210
X221040Y-37670
X219440Y2540
X225790Y5080
X195690Y-40210
X202040Y-37670
X143440Y-59210
X149790Y-56670
X129190Y-21210
X135540Y-18670
X200440Y-59210
X206790Y-56670
X-3810Y-21210
X2540Y-18670
X38940Y-78210
X45290Y-75670
X171940Y-78210
X178290Y-75670
X19940Y-78210
X26290Y-75670
X252690Y-21210
X259040Y-18670
X15190Y-21210
X21540Y-18670
X110190Y-21210
X116540Y-18670
X167190Y-21210
X173540Y-18670
X190940Y-97210
X197290Y-94670
X86440Y-59210
X92790Y-56670
X190940Y-78210
X197290Y-75670
X285940Y-40210
X292290Y-37670
X22315Y-97210
X28665Y-94670
X3315Y-59210
X9665Y-56670
X46065Y-97210
X52415Y-94670
X157690Y-40210
X164040Y-37670
X124440Y-59210
X130790Y-56670
X53190Y-21210
X59540Y-18670
X-1435Y-97210
X4915Y-94670
X205190Y-21210
X211540Y-18670
X940Y-40210
X7290Y-37670
X100690Y2540
X107040Y5080
X285940Y-21210
X292290Y-18670
X186190Y-21210
X192540Y-18670
X138690Y-40210
X145040Y-37670
X133940Y-78210
X140290Y-75670
X162440Y-59210
X168790Y-56670
X233690Y-78210
X240040Y-75670
X76940Y2540
X83290Y5080
X81690Y-40210
X88040Y-37670
X19940Y2540
X26290Y5080
X224190Y-21210
X230540Y-18670
X148190Y-21210
X154540Y-18670
X114940Y-78210
X121290Y-75670
X285940Y-78210
X292290Y-75670
X233690Y-40210
X240040Y-37670
X219440Y-59210
X225790Y-56670
X29440Y-59210
X35790Y-56670
X62690Y-40210
X69040Y-37670
X91190Y-21210
X97540Y-18670
X119690Y-40210
X126040Y-37670
X285940Y-59210
X292290Y-56670
X43690Y-40210
X50040Y-37670
X217065Y-97210
X223415Y-94670
X119690Y2540
X126040Y5080
X209940Y-78210
X216290Y-75670
X57940Y-78210
X64290Y-75670
X243190Y-101960
X249540Y-99420
X281190Y-101960
X287540Y-99420
X262190Y-101960
X268540Y-99420
X176690Y-40210
X183040Y-37670
X152940Y-78210
X159290Y-75670
X95940Y-78210
X102290Y-75670
X138690Y2540
X145040Y5080
X-1435Y-78210
X4915Y-75670
X76940Y-78210
X83290Y-75670
X238440Y-59210
X244790Y-56670
X262190Y-82960
X268540Y-80420
X157690Y2540
X164040Y5080
X34190Y-21210
X40540Y-18670
X-3810Y2540
X2540Y5080
X24690Y-40210
X31040Y-37670
X181440Y-59210
X187790Y-56670
X238440Y2540
X244790Y5080
X100690Y-40210
X107040Y-37670
X105440Y-59210
X111790Y-56670
X67440Y-59210
X73790Y-56670
X117315Y-97210
X123665Y-94670
X38940Y2540
X45290Y5080
X72190Y-21210
X78540Y-18670
X48440Y-59210
X54790Y-56670
X181440Y2540
X187790Y5080
X262190Y2540
X268540Y5080
T8
X89920Y-23750
X100080Y-23750
X118420Y-42750
X128580Y-42750
X284670Y-61750
X294830Y-61750
X42420Y-42750
X52580Y-42750
X215795Y-99750
X225955Y-99750
X118420Y0
X128580Y0
X208670Y-80750
X218830Y-80750
X56670Y-80750
X66830Y-80750
X241920Y-104500
X252080Y-104500
X279920Y-104500
X290080Y-104500
X260920Y-104500
X271080Y-104500
X175420Y-42750
X185580Y-42750
X249045Y-61750
X259205Y-61750
X151670Y-80750
X161830Y-80750
X94670Y-80750
X104830Y-80750
X137420Y0
X147580Y0
X-2705Y-80750
X7455Y-80750
X75670Y-80750
X85830Y-80750
X237170Y-61750
X247330Y-61750
X260920Y-85500
X271080Y-85500
X156420Y0
X166580Y0
X32920Y-23750
X43080Y-23750
X56670Y0
X66830Y0
X-5080Y0
X5080Y0
X256170Y-42750
X266330Y-42750
X23420Y-42750
X33580Y-42750
X263625Y-47170
X263625Y-57330
X180170Y-61750
X190330Y-61750
X237170Y0
X247330Y0
X99420Y-42750
X109580Y-42750
X104170Y-61750
X114330Y-61750
X66170Y-61750
X76330Y-61750
X116045Y-99750
X126205Y-99750
X37670Y0
X47830Y0
X70920Y-23750
X81080Y-23750
X47170Y-61750
X57330Y-61750
X180170Y0
X190330Y0
X260920Y0
X271080Y0
X199170Y0
X209330Y0
X213420Y-42750
X223580Y-42750
X218170Y0
X228330Y0
X194420Y-42750
X204580Y-42750
X142170Y-61750
X152330Y-61750
X127920Y-23750
X138080Y-23750
X199170Y-61750
X209330Y-61750
X-5080Y-23750
X5080Y-23750
X37670Y-80750
X47830Y-80750
X170670Y-80750
X180830Y-80750
X18670Y-80750
X28830Y-80750
X251420Y-23750
X261580Y-23750
X13920Y-23750
X24080Y-23750
X108920Y-23750
X119080Y-23750
X165920Y-23750
X176080Y-23750
X189670Y-99750
X199830Y-99750
X85170Y-61750
X95330Y-61750
X189670Y-80750
X199830Y-80750
X284670Y-42750
X294830Y-42750
X21045Y-99750
X31205Y-99750
X2045Y-61750
X12205Y-61750
X44795Y-99750
X54955Y-99750
X156420Y-42750
X166580Y-42750
X123170Y-61750
X133330Y-61750
X51920Y-23750
X62080Y-23750
X-2705Y-99750
X7455Y-99750
X203920Y-23750
X214080Y-23750
X-330Y-42750
X9830Y-42750
X99420Y0
X109580Y0
X284670Y-23750
X294830Y-23750
X184920Y-23750
X195080Y-23750
X137420Y-42750
X147580Y-42750
X132670Y-80750
X142830Y-80750
X161170Y-61750
X171330Y-61750
X232420Y-80750
X242580Y-80750
X75670Y0
X85830Y0
X80420Y-42750
X90580Y-42750
X18670Y0
X28830Y0
X222920Y-23750
X233080Y-23750
X146920Y-23750
X157080Y-23750
X6795Y-80750
X16955Y-80750
X113670Y-80750
X123830Y-80750
X284670Y-80750
X294830Y-80750
X232420Y-42750
X242580Y-42750
X218170Y-61750
X228330Y-61750
X28170Y-61750
X38330Y-61750
X61420Y-42750
X71580Y-42750
T9
X242187Y-54765
X266063Y-54765
X256640Y-64188
X171125Y-92765
X244562Y-30735
X268438Y-30735
X-63Y-73765
X23813Y-73765
X256640Y-40312
X71125Y-92765
T10
X95000Y-23750
X123500Y-42750
X289750Y-61750
X47500Y-42750
X220875Y-99750
X123500Y0
X213750Y-80750
X61750Y-80750
X247000Y-104500
X285000Y-104500
X266000Y-104500
X180500Y-42750
X242187Y-70005
X254125Y-61750
X266063Y-70005
X156750Y-80750
X99750Y-80750
X142500Y0
X2375Y-80750
X80750Y-80750
X242250Y-61750
X266000Y-85500
X161500Y0
X38000Y-23750
X61750Y0
X0Y0
X261250Y-42750
X28500Y-42750
X263625Y-52250
X271880Y-40312
X271880Y-64188
X185250Y-61750
X242250Y0
X104500Y-42750
X109250Y-61750
X71250Y-61750
X71125Y-108005
X121125Y-99750
X171125Y-108005
X42750Y0
X76000Y-23750
X52250Y-61750
X185250Y0
X266000Y0
X204250Y0
X218500Y-42750
X223250Y0
X199500Y-42750
X147250Y-61750
X133000Y-23750
X204250Y-61750
X0Y-23750
X42750Y-80750
X175750Y-80750
X23750Y-80750
X244562Y-15495
X256500Y-23750
X268438Y-15495
X19000Y-23750
X114000Y-23750
X171000Y-23750
X194750Y-99750
X90250Y-61750
X194750Y-80750
X289750Y-42750
X26125Y-99750
X7125Y-61750
X49875Y-99750
X161500Y-42750
X128250Y-61750
X57000Y-23750
X2375Y-99750
X209000Y-23750
X4750Y-42750
X104500Y0
X289750Y-23750
X190000Y-23750
X142500Y-42750
X137750Y-80750
X166250Y-61750
X237500Y-80750
X80750Y0
X85500Y-42750
X23750Y0
X228000Y-23750
X152000Y-23750
X-63Y-89005
X11875Y-80750
X23813Y-89005
X118750Y-80750
X289750Y-80750
X237500Y-42750
X223250Y-61750
X33250Y-61750
X66500Y-42750
T6
G00X284150Y-650
M15
G01X284150Y650
M16
G05
G00X295350Y-650
M15
G01X295350Y650
M16
G05
T0
M30
