M48
; DRILL file {KiCad (5.1.7)-1} date 11/05/20 20:24:04
; FORMAT={-:-/ absolute / inch / decimal}
; #@! TF.CreationDate,2020-11-05T20:24:04+01:00
; #@! TF.GenerationSoftware,Kicad,Pcbnew,(5.1.7)-1
FMAT,2
INCH
T1C0.0118
T2C0.0394
T3C0.0409
T4C0.0579
T5C0.0591
T6C0.0600
T7C0.0689
T8C0.1200
T9C0.1570
%
G90
G05
T1
X-0.2906Y-2.0543
X-0.2594Y-2.0794
X-0.1266Y-0.3062
X-0.1266Y-0.3995
X0.1539Y-2.7508
X0.251Y-0.3373
X0.251Y-0.3684
X0.6214Y-2.7723
X0.6841Y-4.3144
X0.6841Y-4.3456
X0.8084Y-0.3062
X0.8084Y-0.3995
X1.2411Y-2.7872
X1.5564Y-0.3062
X1.5564Y-0.3995
X1.7437Y-0.3373
X1.7437Y-0.3684
X2.0041Y-2.8022
X2.1768Y-4.3144
X2.1768Y-4.3456
X2.3045Y-0.3062
X2.3045Y-0.3995
X2.7671Y-2.8171
X3.0525Y-0.3062
X3.0525Y-0.3995
X3.2364Y-0.3373
X3.2364Y-0.3684
X3.5301Y-2.8321
X3.6695Y-4.3144
X3.6695Y-4.3456
X3.9875Y-0.3062
X3.9875Y-0.3995
X4.1642Y-0.3062
X4.1646Y-0.4045
X4.1957Y-0.4045
X4.221Y-1.9205
X4.2935Y-2.8474
X4.4072Y-2.6859
X4.5033Y-4.0077
X4.5949Y-1.177
X4.7069Y-0.3062
X4.7069Y-0.3995
X4.7292Y-0.3373
X4.7292Y-0.3684
X4.7824Y-3.4269
X4.8193Y-2.8563
X4.8427Y-2.8329
X4.8664Y-2.856
X4.8709Y-4.1835
X4.8896Y-2.8329
X4.9051Y-3.9976
X4.913Y-2.8563
X4.9364Y-2.8329
X4.9598Y-2.8563
X4.9833Y-2.8329
X5.0067Y-2.8563
X5.0301Y-2.8329
X5.0535Y-2.8563
X5.0673Y-4.2311
X5.0728Y-4.2682
X5.077Y-2.8329
X5.0787Y-3.5815
X5.0787Y-3.8571
X5.0787Y-3.9949
X5.1004Y-2.8563
X5.1378Y-3.5815
X5.1378Y-3.6406
X5.1378Y-3.8571
X5.1378Y-3.9949
X5.1457Y-3.735
X5.1622Y-4.3144
X5.1622Y-4.3456
X5.2122Y-4.2311
X5.2539Y-4.052
X5.2756Y-4.113
X5.315Y-4.0736
X5.315Y-4.113
X5.3189Y-4.2311
X5.3268Y-3.735
X5.3917Y-4.1583
X5.3998Y-3.9575
X5.4646Y-4.1228
X5.4646Y-4.2311
X5.4724Y-3.5461
X5.4836Y-0.3995
X5.4836Y-0.3062
X5.5925Y-3.8512
X5.5925Y-3.8945
X5.5925Y-3.9378
X5.5925Y-3.9811
X5.5925Y-4.0244
X5.5925Y-3.8079
X5.6614Y-3.6287
X5.6673Y-4.1602
X5.6693Y-3.5461
X5.6953Y-3.5168
X5.6988Y-3.5776
X5.6988Y-3.6839
X5.7181Y-3.4957
X5.7413Y-3.5165
X5.7421Y-4.2075
X5.7854Y-4.2075
X5.8071Y-4.2311
X5.8287Y-4.2075
X5.872Y-4.2075
X5.9154Y-3.5807
X5.9154Y-4.2075
X5.937Y-4.2311
X5.9587Y-4.2075
X5.9614Y-3.5805
X5.9988Y-3.5805
X6.002Y-4.2075
X6.0453Y-3.5807
X6.0453Y-4.2075
X6.0886Y-3.5807
X6.0886Y-4.2821
X6.1319Y-3.5807
X6.1752Y-3.5805
X6.2021Y-0.3062
X6.2021Y-0.3995
X6.2185Y-3.6819
X6.2185Y-3.7244
X6.2185Y-3.7669
X6.2185Y-3.8094
X6.2185Y-3.852
X6.2185Y-3.8945
X6.2185Y-3.937
X6.2185Y-3.9795
X6.2185Y-4.022
X6.2185Y-4.0646
X6.2185Y-4.1071
X6.2219Y-0.3373
X6.2219Y-0.3684
X6.575Y-4.3149
X6.575Y-4.346
X6.7407Y-2.1516
X6.8494Y-1.4045
X6.9566Y0.1699
X7.0315Y-2.9004
X7.0531Y-0.3062
X7.0531Y-0.3995
X7.0561Y-0.6555
X7.0783Y-0.5246
X7.1098Y-0.5246
X7.14Y-4.0512
X7.1409Y-3.9833
X7.1409Y-4.1439
X7.1413Y-0.5246
X7.1667Y-0.3062
X7.1667Y-0.3995
X7.2089Y-3.9833
X7.286Y-2.8478
X7.6848Y-0.3062
X7.6848Y-0.3995
X7.7008Y-3.4382
X7.7146Y-0.3373
X7.7146Y-0.3684
X7.7736Y-4.1819
X8.0189Y-2.8327
X8.1477Y-4.3144
X8.1477Y-4.3456
X8.6398Y-2.8175
X8.6627Y-0.3062
X8.6627Y-0.3995
X9.1272Y-4.3144
X9.1272Y-4.3456
X9.1536Y-0.3062
X9.1536Y-0.3995
X9.2073Y-0.3373
X9.2073Y-0.3684
X9.4052Y-2.8743
X9.7894Y-1.5453
X9.9177Y-2.8634
X10.3458Y-0.3062
X10.3458Y-0.3995
X10.6922Y-4.3144
X10.6922Y-4.3456
X10.7Y-0.3373
X10.7Y-0.3684
X10.8626Y-0.4612
X10.8626Y-2.1293
X10.8937Y-2.07
X10.9249Y-2.0411
X10.9458Y-4.2596
X10.956Y-1.9945
X11.2799Y-2.8681
T2
X5.7988Y-3.511
X5.8988Y-3.511
X5.9988Y-3.511
X11.3091Y0.2756
X11.3091Y-0.2953
X11.4075Y-0.2953
X11.5059Y0.2756
X11.5059Y-0.2953
T3
X2.3811Y-0.2
X2.4811Y-0.2
X2.1941Y-1.135
X2.2941Y-1.135
X8.3654Y-3.3791
X8.4654Y-3.3791
X4.9992Y-2.6311
X5.0992Y-2.6311
X11.1705Y-4.3142
X11.2705Y-4.3142
X4.6252Y-3.3791
X4.7252Y-3.3791
X11.3575Y-1.135
X11.4575Y-1.135
X11.3575Y-1.8831
X11.4575Y-1.8831
X8.7394Y-0.2
X8.8394Y-0.2
X2.7551Y-2.6311
X2.8551Y-2.6311
X1.9136Y-4.1272
X2.0136Y-4.1272
X6.1213Y-3.3791
X6.2213Y-3.3791
X6.8693Y-3.3791
X6.9693Y-3.3791
X5.7472Y-2.6311
X5.8472Y-2.6311
X7.6173Y-3.3791
X7.7173Y-3.3791
X9.6744Y-4.3142
X9.7744Y-4.3142
X3.3161Y-1.8831
X3.4161Y-1.8831
X3.1291Y-0.2
X3.2291Y-0.2
X5.9343Y-1.135
X6.0343Y-1.135
X1.072Y-1.8831
X1.172Y-1.8831
X9.4874Y-0.2
X9.5874Y-0.2
X6.6823Y-1.135
X6.7823Y-1.135
X2.5681Y-1.8831
X2.6681Y-1.8831
X4.8122Y-0.2
X4.9122Y-0.2
X0.698Y-1.135
X0.798Y-1.135
X7.2433Y-2.6311
X7.3433Y-2.6311
X2.0071Y-2.6311
X2.1071Y-2.6311
X2.3811Y-3.3791
X2.4811Y-3.3791
X11.3575Y-2.6311
X11.4575Y-2.6311
X5.1862Y-1.135
X5.2862Y-1.135
X5.5602Y-0.2
X5.6602Y-0.2
X4.2512Y-2.6311
X4.3512Y-2.6311
X8.9264Y-1.135
X9.0264Y-1.135
X1.8201Y-1.8831
X1.9201Y-1.8831
X1.6331Y-0.2
X1.7331Y-0.2
X0.2305Y-2.6311
X0.3305Y-2.6311
X3.1291Y-3.3791
X3.2291Y-3.3791
X4.8122Y-1.8831
X4.9122Y-1.8831
X4.7187Y-4.1272
X4.8187Y-4.1272
X7.8043Y-1.8831
X7.9043Y-1.8831
X5.5602Y-1.8831
X5.6602Y-1.8831
X7.9913Y-2.6311
X8.0913Y-2.6311
X8.6459Y-4.1272
X8.7459Y-4.1272
X3.6902Y-1.135
X3.7902Y-1.135
X9.9549Y-2.6311
X10.0549Y-2.6311
X10.2354Y-1.4831
X10.3354Y-1.4831
X8.1783Y-1.135
X8.2783Y-1.135
X-0.05Y-1.135
X0.05Y-1.135
X0.0435Y-3.3791
X0.1435Y-3.3791
X3.5031Y-2.6311
X3.6031Y-2.6311
X0.0435Y-4.1272
X0.1435Y-4.1272
X2.9421Y-1.135
X3.0421Y-1.135
X6.4953Y-2.6311
X6.5953Y-2.6311
X6.3083Y-0.2
X6.4083Y-0.2
X7.4303Y-1.135
X7.5303Y-1.135
X8.7394Y-2.6311
X8.8394Y-2.6311
X9.3004Y-3.3791
X9.4004Y-3.3791
X9.3004Y-1.8831
X9.4004Y-1.8831
X7.9913Y-0.2
X8.0913Y-0.2
X10.1789Y-2.0071
X10.1789Y-2.1071
X0.4175Y-3.3791
X0.5175Y-3.3791
X0.9785Y-4.1272
X1.0785Y-4.1272
X4.0642Y-0.2
X4.1642Y-0.2
X10.4224Y-4.3142
X10.5224Y-4.3142
X6.3083Y-1.8831
X6.4083Y-1.8831
X0.885Y-0.2
X0.985Y-0.2
X1.4461Y-1.135
X1.5461Y-1.135
X9.4874Y-2.6311
X9.5874Y-2.6311
X3.8772Y-3.3791
X3.9772Y-3.3791
X8.5524Y-1.8831
X8.6524Y-1.8831
X4.4382Y-1.135
X4.5382Y-1.135
X0.137Y-1.8831
X0.237Y-1.8831
X1.2591Y-2.6311
X1.3591Y-2.6311
X4.0642Y-1.8831
X4.1642Y-1.8831
X-0.05Y-0.2
X0.05Y-0.2
X7.2433Y-0.2
X7.3433Y-0.2
X10.0484Y-1.135
X10.1484Y-1.135
X10.4224Y-3.5661
X10.5224Y-3.5661
X10.4224Y-0.2
X10.5224Y-0.2
X11.3575Y-3.3791
X11.4575Y-3.3791
X7.0563Y-1.8831
X7.1563Y-1.8831
X7.6173Y-4.1272
X7.7173Y-4.1272
X0.885Y-3.3791
X0.985Y-3.3791
X1.6331Y-3.3791
X1.7331Y-3.3791
X5.3732Y-3.3791
X5.4732Y-3.3791
T4
X2.2811Y0.1
X2.5311Y0.2
T6
X4.3382Y-0.835
X4.5882Y-0.735
X0.037Y-1.5831
X0.287Y-1.4831
X1.1591Y-2.3311
X1.4091Y-2.2311
X3.9642Y-1.5831
X4.2142Y-1.4831
X-0.15Y0.1
X0.1Y0.2
X7.1433Y0.1
X7.3933Y0.2
X9.9484Y-0.835
X10.1984Y-0.735
X10.3224Y-3.2661
X10.5724Y-3.1661
X10.3224Y0.1
X10.5724Y0.2
X11.2575Y-3.0791
X11.5075Y-2.9791
X6.9563Y-1.5831
X7.2063Y-1.4831
X7.5173Y-3.8272
X7.7673Y-3.7272
X0.785Y-3.0791
X1.035Y-2.9791
X1.5331Y-3.0791
X1.7831Y-2.9791
X5.2732Y-3.0791
X5.5232Y-2.9791
X2.0941Y-0.835
X2.3441Y-0.735
X8.2654Y-3.0791
X8.5154Y-2.9791
X4.8992Y-2.3311
X5.1492Y-2.2311
X11.0705Y-4.0142
X11.3205Y-3.9142
X4.5252Y-3.0791
X4.7752Y-2.9791
X11.2575Y-0.835
X11.5075Y-0.735
X11.2575Y-1.5831
X11.5075Y-1.4831
X8.6394Y0.1
X8.8894Y0.2
X2.6551Y-2.3311
X2.9051Y-2.2311
X1.8136Y-3.8272
X2.0636Y-3.7272
X6.0213Y-3.0791
X6.2713Y-2.9791
X6.7693Y-3.0791
X7.0193Y-2.9791
X5.6472Y-2.3311
X5.8972Y-2.2311
X7.5173Y-3.0791
X7.7673Y-2.9791
X9.5744Y-4.0142
X9.8244Y-3.9142
X3.2161Y-1.5831
X3.4661Y-1.4831
X3.0291Y0.1
X3.2791Y0.2
X5.8343Y-0.835
X6.0843Y-0.735
X0.972Y-1.5831
X1.222Y-1.4831
X9.3874Y0.1
X9.6374Y0.2
X6.5823Y-0.835
X6.8323Y-0.735
X2.4681Y-1.5831
X2.7181Y-1.4831
X4.7122Y0.1
X4.9622Y0.2
X0.598Y-0.835
X0.848Y-0.735
X7.1433Y-2.3311
X7.3933Y-2.2311
X1.9071Y-2.3311
X2.1571Y-2.2311
X2.2811Y-3.0791
X2.5311Y-2.9791
X11.2575Y-2.3311
X11.5075Y-2.2311
X5.0862Y-0.835
X5.3362Y-0.735
X5.4602Y0.1
X5.7102Y0.2
X4.1512Y-2.3311
X4.4012Y-2.2311
X8.8264Y-0.835
X9.0764Y-0.735
X1.7201Y-1.5831
X1.9701Y-1.4831
X1.5331Y0.1
X1.7831Y0.2
X0.1305Y-2.3311
X0.3805Y-2.2311
X3.0291Y-3.0791
X3.2791Y-2.9791
X4.7122Y-1.5831
X4.9622Y-1.4831
X4.6187Y-3.8272
X4.8687Y-3.7272
X7.7043Y-1.5831
X7.9543Y-1.4831
X5.4602Y-1.5831
X5.7102Y-1.4831
X7.8913Y-2.3311
X8.1413Y-2.2311
X8.5459Y-3.8272
X8.7959Y-3.7272
X3.5902Y-0.835
X3.8402Y-0.735
X9.8549Y-2.3311
X10.1049Y-2.2311
X10.1854Y-1.8831
X10.4354Y-1.7831
X8.0783Y-0.835
X8.3283Y-0.735
X-0.15Y-0.835
X0.1Y-0.735
X-0.0565Y-3.0791
X0.1935Y-2.9791
X3.4031Y-2.3311
X3.6531Y-2.2311
X-0.0565Y-3.8272
X0.1935Y-3.7272
X2.8421Y-0.835
X3.0921Y-0.735
X6.3953Y-2.3311
X6.6453Y-2.2311
X6.2083Y0.1
X6.4583Y0.2
X7.3303Y-0.835
X7.5803Y-0.735
X8.6394Y-2.3311
X8.8894Y-2.2311
X9.2004Y-3.0791
X9.4504Y-2.9791
X9.2004Y-1.5831
X9.4504Y-1.4831
X7.8913Y0.1
X8.1413Y0.2
X10.4789Y-1.9071
X10.5789Y-2.1571
X0.3175Y-3.0791
X0.5675Y-2.9791
X0.8785Y-3.8272
X1.1285Y-3.7272
X3.9642Y0.1
X4.2142Y0.2
X10.3224Y-4.0142
X10.5724Y-3.9142
X6.2083Y-1.5831
X6.4583Y-1.4831
X0.785Y0.1
X1.035Y0.2
X1.3461Y-0.835
X1.5961Y-0.735
X9.3874Y-2.3311
X9.6374Y-2.2311
X3.7772Y-3.0791
X4.0272Y-2.9791
X8.4524Y-1.5831
X8.7024Y-1.4831
T7
X11.2075Y-0.935
X11.6075Y-0.935
X11.2075Y-1.6831
X11.6075Y-1.6831
X8.5894Y0.0
X8.9894Y0.0
X2.6051Y-2.4311
X3.0051Y-2.4311
X1.7636Y-3.9272
X2.1636Y-3.9272
X5.9713Y-3.1791
X6.3713Y-3.1791
X6.7193Y-3.1791
X7.1193Y-3.1791
X5.5972Y-2.4311
X5.9972Y-2.4311
X7.4673Y-3.1791
X7.8673Y-3.1791
X9.5244Y-4.1142
X9.9244Y-4.1142
X3.1661Y-1.6831
X3.5661Y-1.6831
X2.9791Y0.0
X3.3791Y0.0
X5.7843Y-0.935
X6.1843Y-0.935
X0.922Y-1.6831
X1.322Y-1.6831
X9.3374Y0.0
X9.7374Y0.0
X6.5323Y-0.935
X6.9323Y-0.935
X2.4181Y-1.6831
X2.8181Y-1.6831
X4.6622Y0.0
X5.0622Y0.0
X0.548Y-0.935
X0.948Y-0.935
X7.0933Y-2.4311
X7.4933Y-2.4311
X1.8571Y-2.4311
X2.2571Y-2.4311
X2.2311Y-3.1791
X2.6311Y-3.1791
X11.2075Y-2.4311
X11.6075Y-2.4311
X5.0362Y-0.935
X5.4362Y-0.935
X5.4102Y0.0
X5.8102Y0.0
X4.1012Y-2.4311
X4.5012Y-2.4311
X8.7764Y-0.935
X9.1764Y-0.935
X1.6701Y-1.6831
X2.0701Y-1.6831
X1.4831Y0.0
X1.8831Y0.0
X0.0805Y-2.4311
X0.4805Y-2.4311
X2.9791Y-3.1791
X3.3791Y-3.1791
X4.6622Y-1.6831
X5.0622Y-1.6831
X4.5687Y-3.9272
X4.9687Y-3.9272
X7.6543Y-1.6831
X8.0543Y-1.6831
X5.4102Y-1.6831
X5.8102Y-1.6831
X7.8413Y-2.4311
X8.2413Y-2.4311
X8.4959Y-3.9272
X8.8959Y-3.9272
X3.5402Y-0.935
X3.9402Y-0.935
X9.8049Y-2.4311
X10.2049Y-2.4311
X10.0854Y-1.6831
X10.4854Y-1.6831
X8.0283Y-0.935
X8.4283Y-0.935
X-0.2Y-0.935
X0.2Y-0.935
X-0.1065Y-3.1791
X0.2935Y-3.1791
X3.3531Y-2.4311
X3.7531Y-2.4311
X-0.1065Y-3.9272
X0.2935Y-3.9272
X2.7921Y-0.935
X3.1921Y-0.935
X6.3453Y-2.4311
X6.7453Y-2.4311
X6.1583Y0.0
X6.5583Y0.0
X7.2803Y-0.935
X7.6803Y-0.935
X8.5894Y-2.4311
X8.9894Y-2.4311
X9.1504Y-3.1791
X9.5504Y-3.1791
X9.1504Y-1.6831
X9.5504Y-1.6831
X7.8413Y0.0
X8.2413Y0.0
X10.3789Y-1.8571
X10.3789Y-2.2571
X0.2675Y-3.1791
X0.6675Y-3.1791
X0.8285Y-3.9272
X1.2285Y-3.9272
X3.9142Y0.0
X4.3142Y0.0
X10.2724Y-4.1142
X10.6724Y-4.1142
X6.1583Y-1.6831
X6.5583Y-1.6831
X0.735Y0.0
X1.135Y0.0
X1.2961Y-0.935
X1.6961Y-0.935
X9.3374Y-2.4311
X9.7374Y-2.4311
X3.7272Y-3.1791
X4.1272Y-3.1791
X8.4024Y-1.6831
X8.8024Y-1.6831
X4.2882Y-0.935
X4.6882Y-0.935
X-0.013Y-1.6831
X0.387Y-1.6831
X1.1091Y-2.4311
X1.5091Y-2.4311
X3.9142Y-1.6831
X4.3142Y-1.6831
X-0.2Y0.0
X0.2Y0.0
X7.0933Y0.0
X7.4933Y0.0
X9.8984Y-0.935
X10.2984Y-0.935
X10.2724Y-3.3661
X10.6724Y-3.3661
X10.2724Y0.0
X10.6724Y0.0
X11.2075Y-3.1791
X11.6075Y-3.1791
X6.9063Y-1.6831
X7.3063Y-1.6831
X7.4673Y-3.9272
X7.8673Y-3.9272
X0.735Y-3.1791
X1.135Y-3.1791
X1.4831Y-3.1791
X1.8831Y-3.1791
X5.2232Y-3.1791
X5.6232Y-3.1791
X2.2311Y0.0
X2.6311Y0.0
X2.0441Y-0.935
X2.4441Y-0.935
X8.2154Y-3.1791
X8.6154Y-3.1791
X4.8492Y-2.4311
X5.2492Y-2.4311
X11.0205Y-4.1142
X11.4205Y-4.1142
X4.4752Y-3.1791
X4.8752Y-3.1791
T8
X2.8002Y-3.6522
X6.7372Y-3.6522
X9.5349Y-2.1561
X10.4749Y-2.1561
X10.1039Y-1.5871
X10.1039Y-2.5271
X-0.0025Y-2.9041
X0.9375Y-2.9041
X9.6284Y-1.21
X10.5684Y-1.21
T9
X8.4154Y-3.1791
X5.0492Y-2.4311
X11.2205Y-4.1142
X4.6752Y-3.1791
X11.4075Y-0.935
X11.4075Y-1.6831
X8.7894Y0.0
X2.8051Y-2.4311
X1.9636Y-3.9272
X6.1713Y-3.1791
X6.9193Y-3.1791
X5.7972Y-2.4311
X7.6673Y-3.1791
X9.7244Y-4.1142
X3.3661Y-1.6831
X3.1791Y0.0
X5.9843Y-0.935
X1.122Y-1.6831
X9.5374Y0.0
X6.7323Y-0.935
X2.6181Y-1.6831
X4.8622Y0.0
X0.748Y-0.935
X7.2933Y-2.4311
X2.0571Y-2.4311
X2.4311Y-3.1791
X11.4075Y-2.4311
X5.2362Y-0.935
X5.6102Y0.0
X4.3012Y-2.4311
X8.9764Y-0.935
X1.8701Y-1.6831
X1.6831Y0.0
X0.2805Y-2.4311
X3.1791Y-3.1791
X4.8622Y-1.6831
X2.8002Y-4.2522
X4.7687Y-3.9272
X6.7372Y-4.2522
X7.8543Y-1.6831
X5.6102Y-1.6831
X8.0413Y-2.4311
X8.6959Y-3.9272
X3.7402Y-0.935
X9.5349Y-2.7561
X10.0049Y-2.4311
X10.4749Y-2.7561
X10.2854Y-1.6831
X8.2283Y-0.935
X0.0Y-0.935
X0.0935Y-3.1791
X3.5531Y-2.4311
X0.0935Y-3.9272
X2.9921Y-0.935
X6.5453Y-2.4311
X6.3583Y0.0
X7.4803Y-0.935
X8.7894Y-2.4311
X9.3504Y-3.1791
X9.3504Y-1.6831
X8.0413Y0.0
X10.3789Y-2.0571
X10.7039Y-1.5871
X10.7039Y-2.5271
X-0.0025Y-3.5041
X0.4675Y-3.1791
X0.9375Y-3.5041
X1.0285Y-3.9272
X4.1142Y0.0
X10.4724Y-4.1142
X6.3583Y-1.6831
X0.935Y0.0
X1.4961Y-0.935
X9.5374Y-2.4311
X3.9272Y-3.1791
X8.6024Y-1.6831
X4.4882Y-0.935
X0.187Y-1.6831
X1.3091Y-2.4311
X4.1142Y-1.6831
X0.0Y0.0
X7.2933Y0.0
X9.6284Y-0.61
X10.0984Y-0.935
X10.5684Y-0.61
X10.4724Y-3.3661
X10.4724Y0.0
X11.4075Y-3.1791
X7.1063Y-1.6831
X7.6673Y-3.9272
X0.935Y-3.1791
X1.6831Y-3.1791
X5.4232Y-3.1791
X2.4311Y0.0
X2.2441Y-0.935
T5
G00X11.187Y-0.0256
M15
G01X11.187Y0.0256
M16
G05
G00X11.628Y-0.0256
M15
G01X11.628Y0.0256
M16
G05
T0
M30
