G04 #@! TF.GenerationSoftware,KiCad,Pcbnew,(5.1.7)-1*
G04 #@! TF.CreationDate,2020-11-05T17:31:16+01:00*
G04 #@! TF.ProjectId,isometria-75-pcb-ml,69736f6d-6574-4726-9961-2d37352d7063,rev?*
G04 #@! TF.SameCoordinates,Original*
G04 #@! TF.FileFunction,Paste,Bot*
G04 #@! TF.FilePolarity,Positive*
%FSLAX46Y46*%
G04 Gerber Fmt 4.6, Leading zero omitted, Abs format (unit mm)*
G04 Created by KiCad (PCBNEW (5.1.7)-1) date 2020-11-05 17:31:16*
%MOMM*%
%LPD*%
G01*
G04 APERTURE LIST*
%ADD10R,0.700000X1.524000*%
%ADD11R,1.524000X0.700000*%
%ADD12R,0.900000X0.800000*%
%ADD13R,0.650000X0.400000*%
%ADD14R,1.600000X0.850000*%
%ADD15R,0.800000X0.900000*%
G04 APERTURE END LIST*
D10*
X157950000Y-92170000D03*
X156850000Y-92170000D03*
X155750000Y-92170000D03*
X154650000Y-92170000D03*
X153550000Y-92170000D03*
X152450000Y-92170000D03*
X151350000Y-92170000D03*
X150250000Y-92170000D03*
X149150000Y-92170000D03*
X148050000Y-92170000D03*
X146950000Y-92170000D03*
X145850000Y-92170000D03*
X144750000Y-92170000D03*
D11*
X143250000Y-93420000D03*
X143250000Y-94520000D03*
X143250000Y-95620000D03*
X143250000Y-96720000D03*
X143250000Y-97820000D03*
X143250000Y-98920000D03*
X143250000Y-100020000D03*
X143250000Y-101120000D03*
X143250000Y-102220000D03*
X143250000Y-103320000D03*
X143250000Y-104420000D03*
D10*
X144750000Y-105670000D03*
X145850000Y-105670000D03*
X146950000Y-105670000D03*
X148050000Y-105670000D03*
X149150000Y-105670000D03*
X150250000Y-105670000D03*
X151350000Y-105670000D03*
X152450000Y-105670000D03*
X153550000Y-105670000D03*
X154650000Y-105670000D03*
X155750000Y-105670000D03*
X156850000Y-105670000D03*
X157950000Y-105670000D03*
G36*
G01*
X139937500Y-105245000D02*
X139462500Y-105245000D01*
G75*
G02*
X139225000Y-105007500I0J237500D01*
G01*
X139225000Y-104432500D01*
G75*
G02*
X139462500Y-104195000I237500J0D01*
G01*
X139937500Y-104195000D01*
G75*
G02*
X140175000Y-104432500I0J-237500D01*
G01*
X140175000Y-105007500D01*
G75*
G02*
X139937500Y-105245000I-237500J0D01*
G01*
G37*
G36*
G01*
X139937500Y-106995000D02*
X139462500Y-106995000D01*
G75*
G02*
X139225000Y-106757500I0J237500D01*
G01*
X139225000Y-106182500D01*
G75*
G02*
X139462500Y-105945000I237500J0D01*
G01*
X139937500Y-105945000D01*
G75*
G02*
X140175000Y-106182500I0J-237500D01*
G01*
X140175000Y-106757500D01*
G75*
G02*
X139937500Y-106995000I-237500J0D01*
G01*
G37*
G36*
G01*
X146452500Y-110720000D02*
X146927500Y-110720000D01*
G75*
G02*
X147165000Y-110957500I0J-237500D01*
G01*
X147165000Y-111532500D01*
G75*
G02*
X146927500Y-111770000I-237500J0D01*
G01*
X146452500Y-111770000D01*
G75*
G02*
X146215000Y-111532500I0J237500D01*
G01*
X146215000Y-110957500D01*
G75*
G02*
X146452500Y-110720000I237500J0D01*
G01*
G37*
G36*
G01*
X146452500Y-108970000D02*
X146927500Y-108970000D01*
G75*
G02*
X147165000Y-109207500I0J-237500D01*
G01*
X147165000Y-109782500D01*
G75*
G02*
X146927500Y-110020000I-237500J0D01*
G01*
X146452500Y-110020000D01*
G75*
G02*
X146215000Y-109782500I0J237500D01*
G01*
X146215000Y-109207500D01*
G75*
G02*
X146452500Y-108970000I237500J0D01*
G01*
G37*
G36*
G01*
X148637500Y-110020000D02*
X148162500Y-110020000D01*
G75*
G02*
X147925000Y-109782500I0J237500D01*
G01*
X147925000Y-109207500D01*
G75*
G02*
X148162500Y-108970000I237500J0D01*
G01*
X148637500Y-108970000D01*
G75*
G02*
X148875000Y-109207500I0J-237500D01*
G01*
X148875000Y-109782500D01*
G75*
G02*
X148637500Y-110020000I-237500J0D01*
G01*
G37*
G36*
G01*
X148637500Y-111770000D02*
X148162500Y-111770000D01*
G75*
G02*
X147925000Y-111532500I0J237500D01*
G01*
X147925000Y-110957500D01*
G75*
G02*
X148162500Y-110720000I237500J0D01*
G01*
X148637500Y-110720000D01*
G75*
G02*
X148875000Y-110957500I0J-237500D01*
G01*
X148875000Y-111532500D01*
G75*
G02*
X148637500Y-111770000I-237500J0D01*
G01*
G37*
G36*
G01*
X143062500Y-110700000D02*
X143537500Y-110700000D01*
G75*
G02*
X143775000Y-110937500I0J-237500D01*
G01*
X143775000Y-111512500D01*
G75*
G02*
X143537500Y-111750000I-237500J0D01*
G01*
X143062500Y-111750000D01*
G75*
G02*
X142825000Y-111512500I0J237500D01*
G01*
X142825000Y-110937500D01*
G75*
G02*
X143062500Y-110700000I237500J0D01*
G01*
G37*
G36*
G01*
X143062500Y-108950000D02*
X143537500Y-108950000D01*
G75*
G02*
X143775000Y-109187500I0J-237500D01*
G01*
X143775000Y-109762500D01*
G75*
G02*
X143537500Y-110000000I-237500J0D01*
G01*
X143062500Y-110000000D01*
G75*
G02*
X142825000Y-109762500I0J237500D01*
G01*
X142825000Y-109187500D01*
G75*
G02*
X143062500Y-108950000I237500J0D01*
G01*
G37*
G36*
G01*
X145237500Y-110000000D02*
X144762500Y-110000000D01*
G75*
G02*
X144525000Y-109762500I0J237500D01*
G01*
X144525000Y-109187500D01*
G75*
G02*
X144762500Y-108950000I237500J0D01*
G01*
X145237500Y-108950000D01*
G75*
G02*
X145475000Y-109187500I0J-237500D01*
G01*
X145475000Y-109762500D01*
G75*
G02*
X145237500Y-110000000I-237500J0D01*
G01*
G37*
G36*
G01*
X145237500Y-111750000D02*
X144762500Y-111750000D01*
G75*
G02*
X144525000Y-111512500I0J237500D01*
G01*
X144525000Y-110937500D01*
G75*
G02*
X144762500Y-110700000I237500J0D01*
G01*
X145237500Y-110700000D01*
G75*
G02*
X145475000Y-110937500I0J-237500D01*
G01*
X145475000Y-111512500D01*
G75*
G02*
X145237500Y-111750000I-237500J0D01*
G01*
G37*
G36*
G01*
X137662500Y-110700000D02*
X138137500Y-110700000D01*
G75*
G02*
X138375000Y-110937500I0J-237500D01*
G01*
X138375000Y-111512500D01*
G75*
G02*
X138137500Y-111750000I-237500J0D01*
G01*
X137662500Y-111750000D01*
G75*
G02*
X137425000Y-111512500I0J237500D01*
G01*
X137425000Y-110937500D01*
G75*
G02*
X137662500Y-110700000I237500J0D01*
G01*
G37*
G36*
G01*
X137662500Y-108950000D02*
X138137500Y-108950000D01*
G75*
G02*
X138375000Y-109187500I0J-237500D01*
G01*
X138375000Y-109762500D01*
G75*
G02*
X138137500Y-110000000I-237500J0D01*
G01*
X137662500Y-110000000D01*
G75*
G02*
X137425000Y-109762500I0J237500D01*
G01*
X137425000Y-109187500D01*
G75*
G02*
X137662500Y-108950000I237500J0D01*
G01*
G37*
D12*
X139600000Y-110350000D03*
X141600000Y-111300000D03*
X141600000Y-109400000D03*
X134200000Y-110350000D03*
X136200000Y-111300000D03*
X136200000Y-109400000D03*
G36*
G01*
X266600000Y-37907500D02*
X266600000Y-37432500D01*
G75*
G02*
X266837500Y-37195000I237500J0D01*
G01*
X267412500Y-37195000D01*
G75*
G02*
X267650000Y-37432500I0J-237500D01*
G01*
X267650000Y-37907500D01*
G75*
G02*
X267412500Y-38145000I-237500J0D01*
G01*
X266837500Y-38145000D01*
G75*
G02*
X266600000Y-37907500I0J237500D01*
G01*
G37*
G36*
G01*
X264850000Y-37907500D02*
X264850000Y-37432500D01*
G75*
G02*
X265087500Y-37195000I237500J0D01*
G01*
X265662500Y-37195000D01*
G75*
G02*
X265900000Y-37432500I0J-237500D01*
G01*
X265900000Y-37907500D01*
G75*
G02*
X265662500Y-38145000I-237500J0D01*
G01*
X265087500Y-38145000D01*
G75*
G02*
X264850000Y-37907500I0J237500D01*
G01*
G37*
G36*
G01*
X130358034Y-109632000D02*
X129883034Y-109632000D01*
G75*
G02*
X129645534Y-109394500I0J237500D01*
G01*
X129645534Y-108819500D01*
G75*
G02*
X129883034Y-108582000I237500J0D01*
G01*
X130358034Y-108582000D01*
G75*
G02*
X130595534Y-108819500I0J-237500D01*
G01*
X130595534Y-109394500D01*
G75*
G02*
X130358034Y-109632000I-237500J0D01*
G01*
G37*
G36*
G01*
X130358034Y-111382000D02*
X129883034Y-111382000D01*
G75*
G02*
X129645534Y-111144500I0J237500D01*
G01*
X129645534Y-110569500D01*
G75*
G02*
X129883034Y-110332000I237500J0D01*
G01*
X130358034Y-110332000D01*
G75*
G02*
X130595534Y-110569500I0J-237500D01*
G01*
X130595534Y-111144500D01*
G75*
G02*
X130358034Y-111382000I-237500J0D01*
G01*
G37*
G36*
G01*
X130525003Y-100473000D02*
X128674997Y-100473000D01*
G75*
G02*
X128425000Y-100223003I0J249997D01*
G01*
X128425000Y-99397997D01*
G75*
G02*
X128674997Y-99148000I249997J0D01*
G01*
X130525003Y-99148000D01*
G75*
G02*
X130775000Y-99397997I0J-249997D01*
G01*
X130775000Y-100223003D01*
G75*
G02*
X130525003Y-100473000I-249997J0D01*
G01*
G37*
G36*
G01*
X130525003Y-103548000D02*
X128674997Y-103548000D01*
G75*
G02*
X128425000Y-103298003I0J249997D01*
G01*
X128425000Y-102472997D01*
G75*
G02*
X128674997Y-102223000I249997J0D01*
G01*
X130525003Y-102223000D01*
G75*
G02*
X130775000Y-102472997I0J-249997D01*
G01*
X130775000Y-103298003D01*
G75*
G02*
X130525003Y-103548000I-249997J0D01*
G01*
G37*
D13*
X134200000Y-101570000D03*
X134200000Y-102870000D03*
X136100000Y-102220000D03*
X134200000Y-102220000D03*
X136100000Y-102870000D03*
X136100000Y-101570000D03*
G36*
G01*
X279900000Y-109342500D02*
X279900000Y-109817500D01*
G75*
G02*
X279662500Y-110055000I-237500J0D01*
G01*
X279087500Y-110055000D01*
G75*
G02*
X278850000Y-109817500I0J237500D01*
G01*
X278850000Y-109342500D01*
G75*
G02*
X279087500Y-109105000I237500J0D01*
G01*
X279662500Y-109105000D01*
G75*
G02*
X279900000Y-109342500I0J-237500D01*
G01*
G37*
G36*
G01*
X281650000Y-109342500D02*
X281650000Y-109817500D01*
G75*
G02*
X281412500Y-110055000I-237500J0D01*
G01*
X280837500Y-110055000D01*
G75*
G02*
X280600000Y-109817500I0J237500D01*
G01*
X280600000Y-109342500D01*
G75*
G02*
X280837500Y-109105000I237500J0D01*
G01*
X281412500Y-109105000D01*
G75*
G02*
X281650000Y-109342500I0J-237500D01*
G01*
G37*
G36*
G01*
X260900000Y-109342500D02*
X260900000Y-109817500D01*
G75*
G02*
X260662500Y-110055000I-237500J0D01*
G01*
X260087500Y-110055000D01*
G75*
G02*
X259850000Y-109817500I0J237500D01*
G01*
X259850000Y-109342500D01*
G75*
G02*
X260087500Y-109105000I237500J0D01*
G01*
X260662500Y-109105000D01*
G75*
G02*
X260900000Y-109342500I0J-237500D01*
G01*
G37*
G36*
G01*
X262650000Y-109342500D02*
X262650000Y-109817500D01*
G75*
G02*
X262412500Y-110055000I-237500J0D01*
G01*
X261837500Y-110055000D01*
G75*
G02*
X261600000Y-109817500I0J237500D01*
G01*
X261600000Y-109342500D01*
G75*
G02*
X261837500Y-109105000I237500J0D01*
G01*
X262412500Y-109105000D01*
G75*
G02*
X262650000Y-109342500I0J-237500D01*
G01*
G37*
G36*
G01*
X241900000Y-109342500D02*
X241900000Y-109817500D01*
G75*
G02*
X241662500Y-110055000I-237500J0D01*
G01*
X241087500Y-110055000D01*
G75*
G02*
X240850000Y-109817500I0J237500D01*
G01*
X240850000Y-109342500D01*
G75*
G02*
X241087500Y-109105000I237500J0D01*
G01*
X241662500Y-109105000D01*
G75*
G02*
X241900000Y-109342500I0J-237500D01*
G01*
G37*
G36*
G01*
X243650000Y-109342500D02*
X243650000Y-109817500D01*
G75*
G02*
X243412500Y-110055000I-237500J0D01*
G01*
X242837500Y-110055000D01*
G75*
G02*
X242600000Y-109817500I0J237500D01*
G01*
X242600000Y-109342500D01*
G75*
G02*
X242837500Y-109105000I237500J0D01*
G01*
X243412500Y-109105000D01*
G75*
G02*
X243650000Y-109342500I0J-237500D01*
G01*
G37*
G36*
G01*
X215804000Y-104592500D02*
X215804000Y-105067500D01*
G75*
G02*
X215566500Y-105305000I-237500J0D01*
G01*
X214991500Y-105305000D01*
G75*
G02*
X214754000Y-105067500I0J237500D01*
G01*
X214754000Y-104592500D01*
G75*
G02*
X214991500Y-104355000I237500J0D01*
G01*
X215566500Y-104355000D01*
G75*
G02*
X215804000Y-104592500I0J-237500D01*
G01*
G37*
G36*
G01*
X217554000Y-104592500D02*
X217554000Y-105067500D01*
G75*
G02*
X217316500Y-105305000I-237500J0D01*
G01*
X216741500Y-105305000D01*
G75*
G02*
X216504000Y-105067500I0J237500D01*
G01*
X216504000Y-104592500D01*
G75*
G02*
X216741500Y-104355000I237500J0D01*
G01*
X217316500Y-104355000D01*
G75*
G02*
X217554000Y-104592500I0J-237500D01*
G01*
G37*
G36*
G01*
X189642000Y-104592500D02*
X189642000Y-105067500D01*
G75*
G02*
X189404500Y-105305000I-237500J0D01*
G01*
X188829500Y-105305000D01*
G75*
G02*
X188592000Y-105067500I0J237500D01*
G01*
X188592000Y-104592500D01*
G75*
G02*
X188829500Y-104355000I237500J0D01*
G01*
X189404500Y-104355000D01*
G75*
G02*
X189642000Y-104592500I0J-237500D01*
G01*
G37*
G36*
G01*
X191392000Y-104592500D02*
X191392000Y-105067500D01*
G75*
G02*
X191154500Y-105305000I-237500J0D01*
G01*
X190579500Y-105305000D01*
G75*
G02*
X190342000Y-105067500I0J237500D01*
G01*
X190342000Y-104592500D01*
G75*
G02*
X190579500Y-104355000I237500J0D01*
G01*
X191154500Y-104355000D01*
G75*
G02*
X191392000Y-104592500I0J-237500D01*
G01*
G37*
G36*
G01*
X116025000Y-104592500D02*
X116025000Y-105067500D01*
G75*
G02*
X115787500Y-105305000I-237500J0D01*
G01*
X115212500Y-105305000D01*
G75*
G02*
X114975000Y-105067500I0J237500D01*
G01*
X114975000Y-104592500D01*
G75*
G02*
X115212500Y-104355000I237500J0D01*
G01*
X115787500Y-104355000D01*
G75*
G02*
X116025000Y-104592500I0J-237500D01*
G01*
G37*
G36*
G01*
X117775000Y-104592500D02*
X117775000Y-105067500D01*
G75*
G02*
X117537500Y-105305000I-237500J0D01*
G01*
X116962500Y-105305000D01*
G75*
G02*
X116725000Y-105067500I0J237500D01*
G01*
X116725000Y-104592500D01*
G75*
G02*
X116962500Y-104355000I237500J0D01*
G01*
X117537500Y-104355000D01*
G75*
G02*
X117775000Y-104592500I0J-237500D01*
G01*
G37*
G36*
G01*
X44775000Y-104592500D02*
X44775000Y-105067500D01*
G75*
G02*
X44537500Y-105305000I-237500J0D01*
G01*
X43962500Y-105305000D01*
G75*
G02*
X43725000Y-105067500I0J237500D01*
G01*
X43725000Y-104592500D01*
G75*
G02*
X43962500Y-104355000I237500J0D01*
G01*
X44537500Y-104355000D01*
G75*
G02*
X44775000Y-104592500I0J-237500D01*
G01*
G37*
G36*
G01*
X46525000Y-104592500D02*
X46525000Y-105067500D01*
G75*
G02*
X46287500Y-105305000I-237500J0D01*
G01*
X45712500Y-105305000D01*
G75*
G02*
X45475000Y-105067500I0J237500D01*
G01*
X45475000Y-104592500D01*
G75*
G02*
X45712500Y-104355000I237500J0D01*
G01*
X46287500Y-104355000D01*
G75*
G02*
X46525000Y-104592500I0J-237500D01*
G01*
G37*
G36*
G01*
X21025000Y-104592500D02*
X21025000Y-105067500D01*
G75*
G02*
X20787500Y-105305000I-237500J0D01*
G01*
X20212500Y-105305000D01*
G75*
G02*
X19975000Y-105067500I0J237500D01*
G01*
X19975000Y-104592500D01*
G75*
G02*
X20212500Y-104355000I237500J0D01*
G01*
X20787500Y-104355000D01*
G75*
G02*
X21025000Y-104592500I0J-237500D01*
G01*
G37*
G36*
G01*
X22775000Y-104592500D02*
X22775000Y-105067500D01*
G75*
G02*
X22537500Y-105305000I-237500J0D01*
G01*
X21962500Y-105305000D01*
G75*
G02*
X21725000Y-105067500I0J237500D01*
G01*
X21725000Y-104592500D01*
G75*
G02*
X21962500Y-104355000I237500J0D01*
G01*
X22537500Y-104355000D01*
G75*
G02*
X22775000Y-104592500I0J-237500D01*
G01*
G37*
G36*
G01*
X-2725000Y-104592500D02*
X-2725000Y-105067500D01*
G75*
G02*
X-2962500Y-105305000I-237500J0D01*
G01*
X-3537500Y-105305000D01*
G75*
G02*
X-3775000Y-105067500I0J237500D01*
G01*
X-3775000Y-104592500D01*
G75*
G02*
X-3537500Y-104355000I237500J0D01*
G01*
X-2962500Y-104355000D01*
G75*
G02*
X-2725000Y-104592500I0J-237500D01*
G01*
G37*
G36*
G01*
X-975000Y-104592500D02*
X-975000Y-105067500D01*
G75*
G02*
X-1212500Y-105305000I-237500J0D01*
G01*
X-1787500Y-105305000D01*
G75*
G02*
X-2025000Y-105067500I0J237500D01*
G01*
X-2025000Y-104592500D01*
G75*
G02*
X-1787500Y-104355000I237500J0D01*
G01*
X-1212500Y-104355000D01*
G75*
G02*
X-975000Y-104592500I0J-237500D01*
G01*
G37*
G36*
G01*
X284650000Y-85614500D02*
X284650000Y-86089500D01*
G75*
G02*
X284412500Y-86327000I-237500J0D01*
G01*
X283837500Y-86327000D01*
G75*
G02*
X283600000Y-86089500I0J237500D01*
G01*
X283600000Y-85614500D01*
G75*
G02*
X283837500Y-85377000I237500J0D01*
G01*
X284412500Y-85377000D01*
G75*
G02*
X284650000Y-85614500I0J-237500D01*
G01*
G37*
G36*
G01*
X286400000Y-85614500D02*
X286400000Y-86089500D01*
G75*
G02*
X286162500Y-86327000I-237500J0D01*
G01*
X285587500Y-86327000D01*
G75*
G02*
X285350000Y-86089500I0J237500D01*
G01*
X285350000Y-85614500D01*
G75*
G02*
X285587500Y-85377000I237500J0D01*
G01*
X286162500Y-85377000D01*
G75*
G02*
X286400000Y-85614500I0J-237500D01*
G01*
G37*
G36*
G01*
X260900000Y-90342500D02*
X260900000Y-90817500D01*
G75*
G02*
X260662500Y-91055000I-237500J0D01*
G01*
X260087500Y-91055000D01*
G75*
G02*
X259850000Y-90817500I0J237500D01*
G01*
X259850000Y-90342500D01*
G75*
G02*
X260087500Y-90105000I237500J0D01*
G01*
X260662500Y-90105000D01*
G75*
G02*
X260900000Y-90342500I0J-237500D01*
G01*
G37*
G36*
G01*
X262650000Y-90342500D02*
X262650000Y-90817500D01*
G75*
G02*
X262412500Y-91055000I-237500J0D01*
G01*
X261837500Y-91055000D01*
G75*
G02*
X261600000Y-90817500I0J237500D01*
G01*
X261600000Y-90342500D01*
G75*
G02*
X261837500Y-90105000I237500J0D01*
G01*
X262412500Y-90105000D01*
G75*
G02*
X262650000Y-90342500I0J-237500D01*
G01*
G37*
G36*
G01*
X232400000Y-85614500D02*
X232400000Y-86089500D01*
G75*
G02*
X232162500Y-86327000I-237500J0D01*
G01*
X231587500Y-86327000D01*
G75*
G02*
X231350000Y-86089500I0J237500D01*
G01*
X231350000Y-85614500D01*
G75*
G02*
X231587500Y-85377000I237500J0D01*
G01*
X232162500Y-85377000D01*
G75*
G02*
X232400000Y-85614500I0J-237500D01*
G01*
G37*
G36*
G01*
X234150000Y-85614500D02*
X234150000Y-86089500D01*
G75*
G02*
X233912500Y-86327000I-237500J0D01*
G01*
X233337500Y-86327000D01*
G75*
G02*
X233100000Y-86089500I0J237500D01*
G01*
X233100000Y-85614500D01*
G75*
G02*
X233337500Y-85377000I237500J0D01*
G01*
X233912500Y-85377000D01*
G75*
G02*
X234150000Y-85614500I0J-237500D01*
G01*
G37*
G36*
G01*
X208650000Y-85614500D02*
X208650000Y-86089500D01*
G75*
G02*
X208412500Y-86327000I-237500J0D01*
G01*
X207837500Y-86327000D01*
G75*
G02*
X207600000Y-86089500I0J237500D01*
G01*
X207600000Y-85614500D01*
G75*
G02*
X207837500Y-85377000I237500J0D01*
G01*
X208412500Y-85377000D01*
G75*
G02*
X208650000Y-85614500I0J-237500D01*
G01*
G37*
G36*
G01*
X210400000Y-85614500D02*
X210400000Y-86089500D01*
G75*
G02*
X210162500Y-86327000I-237500J0D01*
G01*
X209587500Y-86327000D01*
G75*
G02*
X209350000Y-86089500I0J237500D01*
G01*
X209350000Y-85614500D01*
G75*
G02*
X209587500Y-85377000I237500J0D01*
G01*
X210162500Y-85377000D01*
G75*
G02*
X210400000Y-85614500I0J-237500D01*
G01*
G37*
G36*
G01*
X189650000Y-85614500D02*
X189650000Y-86089500D01*
G75*
G02*
X189412500Y-86327000I-237500J0D01*
G01*
X188837500Y-86327000D01*
G75*
G02*
X188600000Y-86089500I0J237500D01*
G01*
X188600000Y-85614500D01*
G75*
G02*
X188837500Y-85377000I237500J0D01*
G01*
X189412500Y-85377000D01*
G75*
G02*
X189650000Y-85614500I0J-237500D01*
G01*
G37*
G36*
G01*
X191400000Y-85614500D02*
X191400000Y-86089500D01*
G75*
G02*
X191162500Y-86327000I-237500J0D01*
G01*
X190587500Y-86327000D01*
G75*
G02*
X190350000Y-86089500I0J237500D01*
G01*
X190350000Y-85614500D01*
G75*
G02*
X190587500Y-85377000I237500J0D01*
G01*
X191162500Y-85377000D01*
G75*
G02*
X191400000Y-85614500I0J-237500D01*
G01*
G37*
G36*
G01*
X170650000Y-85614500D02*
X170650000Y-86089500D01*
G75*
G02*
X170412500Y-86327000I-237500J0D01*
G01*
X169837500Y-86327000D01*
G75*
G02*
X169600000Y-86089500I0J237500D01*
G01*
X169600000Y-85614500D01*
G75*
G02*
X169837500Y-85377000I237500J0D01*
G01*
X170412500Y-85377000D01*
G75*
G02*
X170650000Y-85614500I0J-237500D01*
G01*
G37*
G36*
G01*
X172400000Y-85614500D02*
X172400000Y-86089500D01*
G75*
G02*
X172162500Y-86327000I-237500J0D01*
G01*
X171587500Y-86327000D01*
G75*
G02*
X171350000Y-86089500I0J237500D01*
G01*
X171350000Y-85614500D01*
G75*
G02*
X171587500Y-85377000I237500J0D01*
G01*
X172162500Y-85377000D01*
G75*
G02*
X172400000Y-85614500I0J-237500D01*
G01*
G37*
G36*
G01*
X151650000Y-85614500D02*
X151650000Y-86089500D01*
G75*
G02*
X151412500Y-86327000I-237500J0D01*
G01*
X150837500Y-86327000D01*
G75*
G02*
X150600000Y-86089500I0J237500D01*
G01*
X150600000Y-85614500D01*
G75*
G02*
X150837500Y-85377000I237500J0D01*
G01*
X151412500Y-85377000D01*
G75*
G02*
X151650000Y-85614500I0J-237500D01*
G01*
G37*
G36*
G01*
X153400000Y-85614500D02*
X153400000Y-86089500D01*
G75*
G02*
X153162500Y-86327000I-237500J0D01*
G01*
X152587500Y-86327000D01*
G75*
G02*
X152350000Y-86089500I0J237500D01*
G01*
X152350000Y-85614500D01*
G75*
G02*
X152587500Y-85377000I237500J0D01*
G01*
X153162500Y-85377000D01*
G75*
G02*
X153400000Y-85614500I0J-237500D01*
G01*
G37*
G36*
G01*
X132650000Y-85614500D02*
X132650000Y-86089500D01*
G75*
G02*
X132412500Y-86327000I-237500J0D01*
G01*
X131837500Y-86327000D01*
G75*
G02*
X131600000Y-86089500I0J237500D01*
G01*
X131600000Y-85614500D01*
G75*
G02*
X131837500Y-85377000I237500J0D01*
G01*
X132412500Y-85377000D01*
G75*
G02*
X132650000Y-85614500I0J-237500D01*
G01*
G37*
G36*
G01*
X134400000Y-85614500D02*
X134400000Y-86089500D01*
G75*
G02*
X134162500Y-86327000I-237500J0D01*
G01*
X133587500Y-86327000D01*
G75*
G02*
X133350000Y-86089500I0J237500D01*
G01*
X133350000Y-85614500D01*
G75*
G02*
X133587500Y-85377000I237500J0D01*
G01*
X134162500Y-85377000D01*
G75*
G02*
X134400000Y-85614500I0J-237500D01*
G01*
G37*
G36*
G01*
X113650000Y-85614500D02*
X113650000Y-86089500D01*
G75*
G02*
X113412500Y-86327000I-237500J0D01*
G01*
X112837500Y-86327000D01*
G75*
G02*
X112600000Y-86089500I0J237500D01*
G01*
X112600000Y-85614500D01*
G75*
G02*
X112837500Y-85377000I237500J0D01*
G01*
X113412500Y-85377000D01*
G75*
G02*
X113650000Y-85614500I0J-237500D01*
G01*
G37*
G36*
G01*
X115400000Y-85614500D02*
X115400000Y-86089500D01*
G75*
G02*
X115162500Y-86327000I-237500J0D01*
G01*
X114587500Y-86327000D01*
G75*
G02*
X114350000Y-86089500I0J237500D01*
G01*
X114350000Y-85614500D01*
G75*
G02*
X114587500Y-85377000I237500J0D01*
G01*
X115162500Y-85377000D01*
G75*
G02*
X115400000Y-85614500I0J-237500D01*
G01*
G37*
G36*
G01*
X94650000Y-85614500D02*
X94650000Y-86089500D01*
G75*
G02*
X94412500Y-86327000I-237500J0D01*
G01*
X93837500Y-86327000D01*
G75*
G02*
X93600000Y-86089500I0J237500D01*
G01*
X93600000Y-85614500D01*
G75*
G02*
X93837500Y-85377000I237500J0D01*
G01*
X94412500Y-85377000D01*
G75*
G02*
X94650000Y-85614500I0J-237500D01*
G01*
G37*
G36*
G01*
X96400000Y-85614500D02*
X96400000Y-86089500D01*
G75*
G02*
X96162500Y-86327000I-237500J0D01*
G01*
X95587500Y-86327000D01*
G75*
G02*
X95350000Y-86089500I0J237500D01*
G01*
X95350000Y-85614500D01*
G75*
G02*
X95587500Y-85377000I237500J0D01*
G01*
X96162500Y-85377000D01*
G75*
G02*
X96400000Y-85614500I0J-237500D01*
G01*
G37*
G36*
G01*
X75650000Y-85614500D02*
X75650000Y-86089500D01*
G75*
G02*
X75412500Y-86327000I-237500J0D01*
G01*
X74837500Y-86327000D01*
G75*
G02*
X74600000Y-86089500I0J237500D01*
G01*
X74600000Y-85614500D01*
G75*
G02*
X74837500Y-85377000I237500J0D01*
G01*
X75412500Y-85377000D01*
G75*
G02*
X75650000Y-85614500I0J-237500D01*
G01*
G37*
G36*
G01*
X77400000Y-85614500D02*
X77400000Y-86089500D01*
G75*
G02*
X77162500Y-86327000I-237500J0D01*
G01*
X76587500Y-86327000D01*
G75*
G02*
X76350000Y-86089500I0J237500D01*
G01*
X76350000Y-85614500D01*
G75*
G02*
X76587500Y-85377000I237500J0D01*
G01*
X77162500Y-85377000D01*
G75*
G02*
X77400000Y-85614500I0J-237500D01*
G01*
G37*
G36*
G01*
X56650000Y-85614500D02*
X56650000Y-86089500D01*
G75*
G02*
X56412500Y-86327000I-237500J0D01*
G01*
X55837500Y-86327000D01*
G75*
G02*
X55600000Y-86089500I0J237500D01*
G01*
X55600000Y-85614500D01*
G75*
G02*
X55837500Y-85377000I237500J0D01*
G01*
X56412500Y-85377000D01*
G75*
G02*
X56650000Y-85614500I0J-237500D01*
G01*
G37*
G36*
G01*
X58400000Y-85614500D02*
X58400000Y-86089500D01*
G75*
G02*
X58162500Y-86327000I-237500J0D01*
G01*
X57587500Y-86327000D01*
G75*
G02*
X57350000Y-86089500I0J237500D01*
G01*
X57350000Y-85614500D01*
G75*
G02*
X57587500Y-85377000I237500J0D01*
G01*
X58162500Y-85377000D01*
G75*
G02*
X58400000Y-85614500I0J-237500D01*
G01*
G37*
G36*
G01*
X37650000Y-85614500D02*
X37650000Y-86089500D01*
G75*
G02*
X37412500Y-86327000I-237500J0D01*
G01*
X36837500Y-86327000D01*
G75*
G02*
X36600000Y-86089500I0J237500D01*
G01*
X36600000Y-85614500D01*
G75*
G02*
X36837500Y-85377000I237500J0D01*
G01*
X37412500Y-85377000D01*
G75*
G02*
X37650000Y-85614500I0J-237500D01*
G01*
G37*
G36*
G01*
X39400000Y-85614500D02*
X39400000Y-86089500D01*
G75*
G02*
X39162500Y-86327000I-237500J0D01*
G01*
X38587500Y-86327000D01*
G75*
G02*
X38350000Y-86089500I0J237500D01*
G01*
X38350000Y-85614500D01*
G75*
G02*
X38587500Y-85377000I237500J0D01*
G01*
X39162500Y-85377000D01*
G75*
G02*
X39400000Y-85614500I0J-237500D01*
G01*
G37*
G36*
G01*
X18700000Y-85614500D02*
X18700000Y-86089500D01*
G75*
G02*
X18462500Y-86327000I-237500J0D01*
G01*
X17887500Y-86327000D01*
G75*
G02*
X17650000Y-86089500I0J237500D01*
G01*
X17650000Y-85614500D01*
G75*
G02*
X17887500Y-85377000I237500J0D01*
G01*
X18462500Y-85377000D01*
G75*
G02*
X18700000Y-85614500I0J-237500D01*
G01*
G37*
G36*
G01*
X20450000Y-85614500D02*
X20450000Y-86089500D01*
G75*
G02*
X20212500Y-86327000I-237500J0D01*
G01*
X19637500Y-86327000D01*
G75*
G02*
X19400000Y-86089500I0J237500D01*
G01*
X19400000Y-85614500D01*
G75*
G02*
X19637500Y-85377000I237500J0D01*
G01*
X20212500Y-85377000D01*
G75*
G02*
X20450000Y-85614500I0J-237500D01*
G01*
G37*
G36*
G01*
X6775000Y-85614500D02*
X6775000Y-86089500D01*
G75*
G02*
X6537500Y-86327000I-237500J0D01*
G01*
X5962500Y-86327000D01*
G75*
G02*
X5725000Y-86089500I0J237500D01*
G01*
X5725000Y-85614500D01*
G75*
G02*
X5962500Y-85377000I237500J0D01*
G01*
X6537500Y-85377000D01*
G75*
G02*
X6775000Y-85614500I0J-237500D01*
G01*
G37*
G36*
G01*
X8525000Y-85614500D02*
X8525000Y-86089500D01*
G75*
G02*
X8287500Y-86327000I-237500J0D01*
G01*
X7712500Y-86327000D01*
G75*
G02*
X7475000Y-86089500I0J237500D01*
G01*
X7475000Y-85614500D01*
G75*
G02*
X7712500Y-85377000I237500J0D01*
G01*
X8287500Y-85377000D01*
G75*
G02*
X8525000Y-85614500I0J-237500D01*
G01*
G37*
G36*
G01*
X284638000Y-66564500D02*
X284638000Y-67039500D01*
G75*
G02*
X284400500Y-67277000I-237500J0D01*
G01*
X283825500Y-67277000D01*
G75*
G02*
X283588000Y-67039500I0J237500D01*
G01*
X283588000Y-66564500D01*
G75*
G02*
X283825500Y-66327000I237500J0D01*
G01*
X284400500Y-66327000D01*
G75*
G02*
X284638000Y-66564500I0J-237500D01*
G01*
G37*
G36*
G01*
X286388000Y-66564500D02*
X286388000Y-67039500D01*
G75*
G02*
X286150500Y-67277000I-237500J0D01*
G01*
X285575500Y-67277000D01*
G75*
G02*
X285338000Y-67039500I0J237500D01*
G01*
X285338000Y-66564500D01*
G75*
G02*
X285575500Y-66327000I237500J0D01*
G01*
X286150500Y-66327000D01*
G75*
G02*
X286388000Y-66564500I0J-237500D01*
G01*
G37*
G36*
G01*
X249150000Y-66564500D02*
X249150000Y-67039500D01*
G75*
G02*
X248912500Y-67277000I-237500J0D01*
G01*
X248337500Y-67277000D01*
G75*
G02*
X248100000Y-67039500I0J237500D01*
G01*
X248100000Y-66564500D01*
G75*
G02*
X248337500Y-66327000I237500J0D01*
G01*
X248912500Y-66327000D01*
G75*
G02*
X249150000Y-66564500I0J-237500D01*
G01*
G37*
G36*
G01*
X250900000Y-66564500D02*
X250900000Y-67039500D01*
G75*
G02*
X250662500Y-67277000I-237500J0D01*
G01*
X250087500Y-67277000D01*
G75*
G02*
X249850000Y-67039500I0J237500D01*
G01*
X249850000Y-66564500D01*
G75*
G02*
X250087500Y-66327000I237500J0D01*
G01*
X250662500Y-66327000D01*
G75*
G02*
X250900000Y-66564500I0J-237500D01*
G01*
G37*
G36*
G01*
X237150000Y-66564500D02*
X237150000Y-67039500D01*
G75*
G02*
X236912500Y-67277000I-237500J0D01*
G01*
X236337500Y-67277000D01*
G75*
G02*
X236100000Y-67039500I0J237500D01*
G01*
X236100000Y-66564500D01*
G75*
G02*
X236337500Y-66327000I237500J0D01*
G01*
X236912500Y-66327000D01*
G75*
G02*
X237150000Y-66564500I0J-237500D01*
G01*
G37*
G36*
G01*
X238900000Y-66564500D02*
X238900000Y-67039500D01*
G75*
G02*
X238662500Y-67277000I-237500J0D01*
G01*
X238087500Y-67277000D01*
G75*
G02*
X237850000Y-67039500I0J237500D01*
G01*
X237850000Y-66564500D01*
G75*
G02*
X238087500Y-66327000I237500J0D01*
G01*
X238662500Y-66327000D01*
G75*
G02*
X238900000Y-66564500I0J-237500D01*
G01*
G37*
G36*
G01*
X218150000Y-66564500D02*
X218150000Y-67039500D01*
G75*
G02*
X217912500Y-67277000I-237500J0D01*
G01*
X217337500Y-67277000D01*
G75*
G02*
X217100000Y-67039500I0J237500D01*
G01*
X217100000Y-66564500D01*
G75*
G02*
X217337500Y-66327000I237500J0D01*
G01*
X217912500Y-66327000D01*
G75*
G02*
X218150000Y-66564500I0J-237500D01*
G01*
G37*
G36*
G01*
X219900000Y-66564500D02*
X219900000Y-67039500D01*
G75*
G02*
X219662500Y-67277000I-237500J0D01*
G01*
X219087500Y-67277000D01*
G75*
G02*
X218850000Y-67039500I0J237500D01*
G01*
X218850000Y-66564500D01*
G75*
G02*
X219087500Y-66327000I237500J0D01*
G01*
X219662500Y-66327000D01*
G75*
G02*
X219900000Y-66564500I0J-237500D01*
G01*
G37*
G36*
G01*
X199150000Y-66564500D02*
X199150000Y-67039500D01*
G75*
G02*
X198912500Y-67277000I-237500J0D01*
G01*
X198337500Y-67277000D01*
G75*
G02*
X198100000Y-67039500I0J237500D01*
G01*
X198100000Y-66564500D01*
G75*
G02*
X198337500Y-66327000I237500J0D01*
G01*
X198912500Y-66327000D01*
G75*
G02*
X199150000Y-66564500I0J-237500D01*
G01*
G37*
G36*
G01*
X200900000Y-66564500D02*
X200900000Y-67039500D01*
G75*
G02*
X200662500Y-67277000I-237500J0D01*
G01*
X200087500Y-67277000D01*
G75*
G02*
X199850000Y-67039500I0J237500D01*
G01*
X199850000Y-66564500D01*
G75*
G02*
X200087500Y-66327000I237500J0D01*
G01*
X200662500Y-66327000D01*
G75*
G02*
X200900000Y-66564500I0J-237500D01*
G01*
G37*
G36*
G01*
X180150000Y-66564500D02*
X180150000Y-67039500D01*
G75*
G02*
X179912500Y-67277000I-237500J0D01*
G01*
X179337500Y-67277000D01*
G75*
G02*
X179100000Y-67039500I0J237500D01*
G01*
X179100000Y-66564500D01*
G75*
G02*
X179337500Y-66327000I237500J0D01*
G01*
X179912500Y-66327000D01*
G75*
G02*
X180150000Y-66564500I0J-237500D01*
G01*
G37*
G36*
G01*
X181900000Y-66564500D02*
X181900000Y-67039500D01*
G75*
G02*
X181662500Y-67277000I-237500J0D01*
G01*
X181087500Y-67277000D01*
G75*
G02*
X180850000Y-67039500I0J237500D01*
G01*
X180850000Y-66564500D01*
G75*
G02*
X181087500Y-66327000I237500J0D01*
G01*
X181662500Y-66327000D01*
G75*
G02*
X181900000Y-66564500I0J-237500D01*
G01*
G37*
G36*
G01*
X161150000Y-66564500D02*
X161150000Y-67039500D01*
G75*
G02*
X160912500Y-67277000I-237500J0D01*
G01*
X160337500Y-67277000D01*
G75*
G02*
X160100000Y-67039500I0J237500D01*
G01*
X160100000Y-66564500D01*
G75*
G02*
X160337500Y-66327000I237500J0D01*
G01*
X160912500Y-66327000D01*
G75*
G02*
X161150000Y-66564500I0J-237500D01*
G01*
G37*
G36*
G01*
X162900000Y-66564500D02*
X162900000Y-67039500D01*
G75*
G02*
X162662500Y-67277000I-237500J0D01*
G01*
X162087500Y-67277000D01*
G75*
G02*
X161850000Y-67039500I0J237500D01*
G01*
X161850000Y-66564500D01*
G75*
G02*
X162087500Y-66327000I237500J0D01*
G01*
X162662500Y-66327000D01*
G75*
G02*
X162900000Y-66564500I0J-237500D01*
G01*
G37*
G36*
G01*
X142144000Y-66564500D02*
X142144000Y-67039500D01*
G75*
G02*
X141906500Y-67277000I-237500J0D01*
G01*
X141331500Y-67277000D01*
G75*
G02*
X141094000Y-67039500I0J237500D01*
G01*
X141094000Y-66564500D01*
G75*
G02*
X141331500Y-66327000I237500J0D01*
G01*
X141906500Y-66327000D01*
G75*
G02*
X142144000Y-66564500I0J-237500D01*
G01*
G37*
G36*
G01*
X143894000Y-66564500D02*
X143894000Y-67039500D01*
G75*
G02*
X143656500Y-67277000I-237500J0D01*
G01*
X143081500Y-67277000D01*
G75*
G02*
X142844000Y-67039500I0J237500D01*
G01*
X142844000Y-66564500D01*
G75*
G02*
X143081500Y-66327000I237500J0D01*
G01*
X143656500Y-66327000D01*
G75*
G02*
X143894000Y-66564500I0J-237500D01*
G01*
G37*
G36*
G01*
X123150000Y-66564500D02*
X123150000Y-67039500D01*
G75*
G02*
X122912500Y-67277000I-237500J0D01*
G01*
X122337500Y-67277000D01*
G75*
G02*
X122100000Y-67039500I0J237500D01*
G01*
X122100000Y-66564500D01*
G75*
G02*
X122337500Y-66327000I237500J0D01*
G01*
X122912500Y-66327000D01*
G75*
G02*
X123150000Y-66564500I0J-237500D01*
G01*
G37*
G36*
G01*
X124900000Y-66564500D02*
X124900000Y-67039500D01*
G75*
G02*
X124662500Y-67277000I-237500J0D01*
G01*
X124087500Y-67277000D01*
G75*
G02*
X123850000Y-67039500I0J237500D01*
G01*
X123850000Y-66564500D01*
G75*
G02*
X124087500Y-66327000I237500J0D01*
G01*
X124662500Y-66327000D01*
G75*
G02*
X124900000Y-66564500I0J-237500D01*
G01*
G37*
G36*
G01*
X104150000Y-66564500D02*
X104150000Y-67039500D01*
G75*
G02*
X103912500Y-67277000I-237500J0D01*
G01*
X103337500Y-67277000D01*
G75*
G02*
X103100000Y-67039500I0J237500D01*
G01*
X103100000Y-66564500D01*
G75*
G02*
X103337500Y-66327000I237500J0D01*
G01*
X103912500Y-66327000D01*
G75*
G02*
X104150000Y-66564500I0J-237500D01*
G01*
G37*
G36*
G01*
X105900000Y-66564500D02*
X105900000Y-67039500D01*
G75*
G02*
X105662500Y-67277000I-237500J0D01*
G01*
X105087500Y-67277000D01*
G75*
G02*
X104850000Y-67039500I0J237500D01*
G01*
X104850000Y-66564500D01*
G75*
G02*
X105087500Y-66327000I237500J0D01*
G01*
X105662500Y-66327000D01*
G75*
G02*
X105900000Y-66564500I0J-237500D01*
G01*
G37*
G36*
G01*
X85150000Y-66564500D02*
X85150000Y-67039500D01*
G75*
G02*
X84912500Y-67277000I-237500J0D01*
G01*
X84337500Y-67277000D01*
G75*
G02*
X84100000Y-67039500I0J237500D01*
G01*
X84100000Y-66564500D01*
G75*
G02*
X84337500Y-66327000I237500J0D01*
G01*
X84912500Y-66327000D01*
G75*
G02*
X85150000Y-66564500I0J-237500D01*
G01*
G37*
G36*
G01*
X86900000Y-66564500D02*
X86900000Y-67039500D01*
G75*
G02*
X86662500Y-67277000I-237500J0D01*
G01*
X86087500Y-67277000D01*
G75*
G02*
X85850000Y-67039500I0J237500D01*
G01*
X85850000Y-66564500D01*
G75*
G02*
X86087500Y-66327000I237500J0D01*
G01*
X86662500Y-66327000D01*
G75*
G02*
X86900000Y-66564500I0J-237500D01*
G01*
G37*
G36*
G01*
X66198000Y-66564500D02*
X66198000Y-67039500D01*
G75*
G02*
X65960500Y-67277000I-237500J0D01*
G01*
X65385500Y-67277000D01*
G75*
G02*
X65148000Y-67039500I0J237500D01*
G01*
X65148000Y-66564500D01*
G75*
G02*
X65385500Y-66327000I237500J0D01*
G01*
X65960500Y-66327000D01*
G75*
G02*
X66198000Y-66564500I0J-237500D01*
G01*
G37*
G36*
G01*
X67948000Y-66564500D02*
X67948000Y-67039500D01*
G75*
G02*
X67710500Y-67277000I-237500J0D01*
G01*
X67135500Y-67277000D01*
G75*
G02*
X66898000Y-67039500I0J237500D01*
G01*
X66898000Y-66564500D01*
G75*
G02*
X67135500Y-66327000I237500J0D01*
G01*
X67710500Y-66327000D01*
G75*
G02*
X67948000Y-66564500I0J-237500D01*
G01*
G37*
G36*
G01*
X47150000Y-66564500D02*
X47150000Y-67039500D01*
G75*
G02*
X46912500Y-67277000I-237500J0D01*
G01*
X46337500Y-67277000D01*
G75*
G02*
X46100000Y-67039500I0J237500D01*
G01*
X46100000Y-66564500D01*
G75*
G02*
X46337500Y-66327000I237500J0D01*
G01*
X46912500Y-66327000D01*
G75*
G02*
X47150000Y-66564500I0J-237500D01*
G01*
G37*
G36*
G01*
X48900000Y-66564500D02*
X48900000Y-67039500D01*
G75*
G02*
X48662500Y-67277000I-237500J0D01*
G01*
X48087500Y-67277000D01*
G75*
G02*
X47850000Y-67039500I0J237500D01*
G01*
X47850000Y-66564500D01*
G75*
G02*
X48087500Y-66327000I237500J0D01*
G01*
X48662500Y-66327000D01*
G75*
G02*
X48900000Y-66564500I0J-237500D01*
G01*
G37*
G36*
G01*
X28150000Y-66564500D02*
X28150000Y-67039500D01*
G75*
G02*
X27912500Y-67277000I-237500J0D01*
G01*
X27337500Y-67277000D01*
G75*
G02*
X27100000Y-67039500I0J237500D01*
G01*
X27100000Y-66564500D01*
G75*
G02*
X27337500Y-66327000I237500J0D01*
G01*
X27912500Y-66327000D01*
G75*
G02*
X28150000Y-66564500I0J-237500D01*
G01*
G37*
G36*
G01*
X29900000Y-66564500D02*
X29900000Y-67039500D01*
G75*
G02*
X29662500Y-67277000I-237500J0D01*
G01*
X29087500Y-67277000D01*
G75*
G02*
X28850000Y-67039500I0J237500D01*
G01*
X28850000Y-66564500D01*
G75*
G02*
X29087500Y-66327000I237500J0D01*
G01*
X29662500Y-66327000D01*
G75*
G02*
X29900000Y-66564500I0J-237500D01*
G01*
G37*
G36*
G01*
X2025000Y-66564500D02*
X2025000Y-67039500D01*
G75*
G02*
X1787500Y-67277000I-237500J0D01*
G01*
X1212500Y-67277000D01*
G75*
G02*
X975000Y-67039500I0J237500D01*
G01*
X975000Y-66564500D01*
G75*
G02*
X1212500Y-66327000I237500J0D01*
G01*
X1787500Y-66327000D01*
G75*
G02*
X2025000Y-66564500I0J-237500D01*
G01*
G37*
G36*
G01*
X3775000Y-66564500D02*
X3775000Y-67039500D01*
G75*
G02*
X3537500Y-67277000I-237500J0D01*
G01*
X2962500Y-67277000D01*
G75*
G02*
X2725000Y-67039500I0J237500D01*
G01*
X2725000Y-66564500D01*
G75*
G02*
X2962500Y-66327000I237500J0D01*
G01*
X3537500Y-66327000D01*
G75*
G02*
X3775000Y-66564500I0J-237500D01*
G01*
G37*
G36*
G01*
X284612500Y-47592500D02*
X284612500Y-48067500D01*
G75*
G02*
X284375000Y-48305000I-237500J0D01*
G01*
X283800000Y-48305000D01*
G75*
G02*
X283562500Y-48067500I0J237500D01*
G01*
X283562500Y-47592500D01*
G75*
G02*
X283800000Y-47355000I237500J0D01*
G01*
X284375000Y-47355000D01*
G75*
G02*
X284612500Y-47592500I0J-237500D01*
G01*
G37*
G36*
G01*
X286362500Y-47592500D02*
X286362500Y-48067500D01*
G75*
G02*
X286125000Y-48305000I-237500J0D01*
G01*
X285550000Y-48305000D01*
G75*
G02*
X285312500Y-48067500I0J237500D01*
G01*
X285312500Y-47592500D01*
G75*
G02*
X285550000Y-47355000I237500J0D01*
G01*
X286125000Y-47355000D01*
G75*
G02*
X286362500Y-47592500I0J-237500D01*
G01*
G37*
G36*
G01*
X232400000Y-47592500D02*
X232400000Y-48067500D01*
G75*
G02*
X232162500Y-48305000I-237500J0D01*
G01*
X231587500Y-48305000D01*
G75*
G02*
X231350000Y-48067500I0J237500D01*
G01*
X231350000Y-47592500D01*
G75*
G02*
X231587500Y-47355000I237500J0D01*
G01*
X232162500Y-47355000D01*
G75*
G02*
X232400000Y-47592500I0J-237500D01*
G01*
G37*
G36*
G01*
X234150000Y-47592500D02*
X234150000Y-48067500D01*
G75*
G02*
X233912500Y-48305000I-237500J0D01*
G01*
X233337500Y-48305000D01*
G75*
G02*
X233100000Y-48067500I0J237500D01*
G01*
X233100000Y-47592500D01*
G75*
G02*
X233337500Y-47355000I237500J0D01*
G01*
X233912500Y-47355000D01*
G75*
G02*
X234150000Y-47592500I0J-237500D01*
G01*
G37*
G36*
G01*
X213400000Y-47592500D02*
X213400000Y-48067500D01*
G75*
G02*
X213162500Y-48305000I-237500J0D01*
G01*
X212587500Y-48305000D01*
G75*
G02*
X212350000Y-48067500I0J237500D01*
G01*
X212350000Y-47592500D01*
G75*
G02*
X212587500Y-47355000I237500J0D01*
G01*
X213162500Y-47355000D01*
G75*
G02*
X213400000Y-47592500I0J-237500D01*
G01*
G37*
G36*
G01*
X215150000Y-47592500D02*
X215150000Y-48067500D01*
G75*
G02*
X214912500Y-48305000I-237500J0D01*
G01*
X214337500Y-48305000D01*
G75*
G02*
X214100000Y-48067500I0J237500D01*
G01*
X214100000Y-47592500D01*
G75*
G02*
X214337500Y-47355000I237500J0D01*
G01*
X214912500Y-47355000D01*
G75*
G02*
X215150000Y-47592500I0J-237500D01*
G01*
G37*
G36*
G01*
X194400000Y-47592500D02*
X194400000Y-48067500D01*
G75*
G02*
X194162500Y-48305000I-237500J0D01*
G01*
X193587500Y-48305000D01*
G75*
G02*
X193350000Y-48067500I0J237500D01*
G01*
X193350000Y-47592500D01*
G75*
G02*
X193587500Y-47355000I237500J0D01*
G01*
X194162500Y-47355000D01*
G75*
G02*
X194400000Y-47592500I0J-237500D01*
G01*
G37*
G36*
G01*
X196150000Y-47592500D02*
X196150000Y-48067500D01*
G75*
G02*
X195912500Y-48305000I-237500J0D01*
G01*
X195337500Y-48305000D01*
G75*
G02*
X195100000Y-48067500I0J237500D01*
G01*
X195100000Y-47592500D01*
G75*
G02*
X195337500Y-47355000I237500J0D01*
G01*
X195912500Y-47355000D01*
G75*
G02*
X196150000Y-47592500I0J-237500D01*
G01*
G37*
G36*
G01*
X175400000Y-47592500D02*
X175400000Y-48067500D01*
G75*
G02*
X175162500Y-48305000I-237500J0D01*
G01*
X174587500Y-48305000D01*
G75*
G02*
X174350000Y-48067500I0J237500D01*
G01*
X174350000Y-47592500D01*
G75*
G02*
X174587500Y-47355000I237500J0D01*
G01*
X175162500Y-47355000D01*
G75*
G02*
X175400000Y-47592500I0J-237500D01*
G01*
G37*
G36*
G01*
X177150000Y-47592500D02*
X177150000Y-48067500D01*
G75*
G02*
X176912500Y-48305000I-237500J0D01*
G01*
X176337500Y-48305000D01*
G75*
G02*
X176100000Y-48067500I0J237500D01*
G01*
X176100000Y-47592500D01*
G75*
G02*
X176337500Y-47355000I237500J0D01*
G01*
X176912500Y-47355000D01*
G75*
G02*
X177150000Y-47592500I0J-237500D01*
G01*
G37*
G36*
G01*
X156400000Y-47592500D02*
X156400000Y-48067500D01*
G75*
G02*
X156162500Y-48305000I-237500J0D01*
G01*
X155587500Y-48305000D01*
G75*
G02*
X155350000Y-48067500I0J237500D01*
G01*
X155350000Y-47592500D01*
G75*
G02*
X155587500Y-47355000I237500J0D01*
G01*
X156162500Y-47355000D01*
G75*
G02*
X156400000Y-47592500I0J-237500D01*
G01*
G37*
G36*
G01*
X158150000Y-47592500D02*
X158150000Y-48067500D01*
G75*
G02*
X157912500Y-48305000I-237500J0D01*
G01*
X157337500Y-48305000D01*
G75*
G02*
X157100000Y-48067500I0J237500D01*
G01*
X157100000Y-47592500D01*
G75*
G02*
X157337500Y-47355000I237500J0D01*
G01*
X157912500Y-47355000D01*
G75*
G02*
X158150000Y-47592500I0J-237500D01*
G01*
G37*
G36*
G01*
X137400000Y-47592500D02*
X137400000Y-48067500D01*
G75*
G02*
X137162500Y-48305000I-237500J0D01*
G01*
X136587500Y-48305000D01*
G75*
G02*
X136350000Y-48067500I0J237500D01*
G01*
X136350000Y-47592500D01*
G75*
G02*
X136587500Y-47355000I237500J0D01*
G01*
X137162500Y-47355000D01*
G75*
G02*
X137400000Y-47592500I0J-237500D01*
G01*
G37*
G36*
G01*
X139150000Y-47592500D02*
X139150000Y-48067500D01*
G75*
G02*
X138912500Y-48305000I-237500J0D01*
G01*
X138337500Y-48305000D01*
G75*
G02*
X138100000Y-48067500I0J237500D01*
G01*
X138100000Y-47592500D01*
G75*
G02*
X138337500Y-47355000I237500J0D01*
G01*
X138912500Y-47355000D01*
G75*
G02*
X139150000Y-47592500I0J-237500D01*
G01*
G37*
G36*
G01*
X118395000Y-47592500D02*
X118395000Y-48067500D01*
G75*
G02*
X118157500Y-48305000I-237500J0D01*
G01*
X117582500Y-48305000D01*
G75*
G02*
X117345000Y-48067500I0J237500D01*
G01*
X117345000Y-47592500D01*
G75*
G02*
X117582500Y-47355000I237500J0D01*
G01*
X118157500Y-47355000D01*
G75*
G02*
X118395000Y-47592500I0J-237500D01*
G01*
G37*
G36*
G01*
X120145000Y-47592500D02*
X120145000Y-48067500D01*
G75*
G02*
X119907500Y-48305000I-237500J0D01*
G01*
X119332500Y-48305000D01*
G75*
G02*
X119095000Y-48067500I0J237500D01*
G01*
X119095000Y-47592500D01*
G75*
G02*
X119332500Y-47355000I237500J0D01*
G01*
X119907500Y-47355000D01*
G75*
G02*
X120145000Y-47592500I0J-237500D01*
G01*
G37*
G36*
G01*
X99400000Y-47592500D02*
X99400000Y-48067500D01*
G75*
G02*
X99162500Y-48305000I-237500J0D01*
G01*
X98587500Y-48305000D01*
G75*
G02*
X98350000Y-48067500I0J237500D01*
G01*
X98350000Y-47592500D01*
G75*
G02*
X98587500Y-47355000I237500J0D01*
G01*
X99162500Y-47355000D01*
G75*
G02*
X99400000Y-47592500I0J-237500D01*
G01*
G37*
G36*
G01*
X101150000Y-47592500D02*
X101150000Y-48067500D01*
G75*
G02*
X100912500Y-48305000I-237500J0D01*
G01*
X100337500Y-48305000D01*
G75*
G02*
X100100000Y-48067500I0J237500D01*
G01*
X100100000Y-47592500D01*
G75*
G02*
X100337500Y-47355000I237500J0D01*
G01*
X100912500Y-47355000D01*
G75*
G02*
X101150000Y-47592500I0J-237500D01*
G01*
G37*
G36*
G01*
X80400000Y-47592500D02*
X80400000Y-48067500D01*
G75*
G02*
X80162500Y-48305000I-237500J0D01*
G01*
X79587500Y-48305000D01*
G75*
G02*
X79350000Y-48067500I0J237500D01*
G01*
X79350000Y-47592500D01*
G75*
G02*
X79587500Y-47355000I237500J0D01*
G01*
X80162500Y-47355000D01*
G75*
G02*
X80400000Y-47592500I0J-237500D01*
G01*
G37*
G36*
G01*
X82150000Y-47592500D02*
X82150000Y-48067500D01*
G75*
G02*
X81912500Y-48305000I-237500J0D01*
G01*
X81337500Y-48305000D01*
G75*
G02*
X81100000Y-48067500I0J237500D01*
G01*
X81100000Y-47592500D01*
G75*
G02*
X81337500Y-47355000I237500J0D01*
G01*
X81912500Y-47355000D01*
G75*
G02*
X82150000Y-47592500I0J-237500D01*
G01*
G37*
G36*
G01*
X61400000Y-47592500D02*
X61400000Y-48067500D01*
G75*
G02*
X61162500Y-48305000I-237500J0D01*
G01*
X60587500Y-48305000D01*
G75*
G02*
X60350000Y-48067500I0J237500D01*
G01*
X60350000Y-47592500D01*
G75*
G02*
X60587500Y-47355000I237500J0D01*
G01*
X61162500Y-47355000D01*
G75*
G02*
X61400000Y-47592500I0J-237500D01*
G01*
G37*
G36*
G01*
X63150000Y-47592500D02*
X63150000Y-48067500D01*
G75*
G02*
X62912500Y-48305000I-237500J0D01*
G01*
X62337500Y-48305000D01*
G75*
G02*
X62100000Y-48067500I0J237500D01*
G01*
X62100000Y-47592500D01*
G75*
G02*
X62337500Y-47355000I237500J0D01*
G01*
X62912500Y-47355000D01*
G75*
G02*
X63150000Y-47592500I0J-237500D01*
G01*
G37*
G36*
G01*
X42400000Y-47592500D02*
X42400000Y-48067500D01*
G75*
G02*
X42162500Y-48305000I-237500J0D01*
G01*
X41587500Y-48305000D01*
G75*
G02*
X41350000Y-48067500I0J237500D01*
G01*
X41350000Y-47592500D01*
G75*
G02*
X41587500Y-47355000I237500J0D01*
G01*
X42162500Y-47355000D01*
G75*
G02*
X42400000Y-47592500I0J-237500D01*
G01*
G37*
G36*
G01*
X44150000Y-47592500D02*
X44150000Y-48067500D01*
G75*
G02*
X43912500Y-48305000I-237500J0D01*
G01*
X43337500Y-48305000D01*
G75*
G02*
X43100000Y-48067500I0J237500D01*
G01*
X43100000Y-47592500D01*
G75*
G02*
X43337500Y-47355000I237500J0D01*
G01*
X43912500Y-47355000D01*
G75*
G02*
X44150000Y-47592500I0J-237500D01*
G01*
G37*
G36*
G01*
X23400000Y-47592500D02*
X23400000Y-48067500D01*
G75*
G02*
X23162500Y-48305000I-237500J0D01*
G01*
X22587500Y-48305000D01*
G75*
G02*
X22350000Y-48067500I0J237500D01*
G01*
X22350000Y-47592500D01*
G75*
G02*
X22587500Y-47355000I237500J0D01*
G01*
X23162500Y-47355000D01*
G75*
G02*
X23400000Y-47592500I0J-237500D01*
G01*
G37*
G36*
G01*
X25150000Y-47592500D02*
X25150000Y-48067500D01*
G75*
G02*
X24912500Y-48305000I-237500J0D01*
G01*
X24337500Y-48305000D01*
G75*
G02*
X24100000Y-48067500I0J237500D01*
G01*
X24100000Y-47592500D01*
G75*
G02*
X24337500Y-47355000I237500J0D01*
G01*
X24912500Y-47355000D01*
G75*
G02*
X25150000Y-47592500I0J-237500D01*
G01*
G37*
G36*
G01*
X-350000Y-47592500D02*
X-350000Y-48067500D01*
G75*
G02*
X-587500Y-48305000I-237500J0D01*
G01*
X-1162500Y-48305000D01*
G75*
G02*
X-1400000Y-48067500I0J237500D01*
G01*
X-1400000Y-47592500D01*
G75*
G02*
X-1162500Y-47355000I237500J0D01*
G01*
X-587500Y-47355000D01*
G75*
G02*
X-350000Y-47592500I0J-237500D01*
G01*
G37*
G36*
G01*
X1400000Y-47592500D02*
X1400000Y-48067500D01*
G75*
G02*
X1162500Y-48305000I-237500J0D01*
G01*
X587500Y-48305000D01*
G75*
G02*
X350000Y-48067500I0J237500D01*
G01*
X350000Y-47592500D01*
G75*
G02*
X587500Y-47355000I237500J0D01*
G01*
X1162500Y-47355000D01*
G75*
G02*
X1400000Y-47592500I0J-237500D01*
G01*
G37*
G36*
G01*
X284650000Y-28592500D02*
X284650000Y-29067500D01*
G75*
G02*
X284412500Y-29305000I-237500J0D01*
G01*
X283837500Y-29305000D01*
G75*
G02*
X283600000Y-29067500I0J237500D01*
G01*
X283600000Y-28592500D01*
G75*
G02*
X283837500Y-28355000I237500J0D01*
G01*
X284412500Y-28355000D01*
G75*
G02*
X284650000Y-28592500I0J-237500D01*
G01*
G37*
G36*
G01*
X286400000Y-28592500D02*
X286400000Y-29067500D01*
G75*
G02*
X286162500Y-29305000I-237500J0D01*
G01*
X285587500Y-29305000D01*
G75*
G02*
X285350000Y-29067500I0J237500D01*
G01*
X285350000Y-28592500D01*
G75*
G02*
X285587500Y-28355000I237500J0D01*
G01*
X286162500Y-28355000D01*
G75*
G02*
X286400000Y-28592500I0J-237500D01*
G01*
G37*
G36*
G01*
X251400000Y-28592500D02*
X251400000Y-29067500D01*
G75*
G02*
X251162500Y-29305000I-237500J0D01*
G01*
X250587500Y-29305000D01*
G75*
G02*
X250350000Y-29067500I0J237500D01*
G01*
X250350000Y-28592500D01*
G75*
G02*
X250587500Y-28355000I237500J0D01*
G01*
X251162500Y-28355000D01*
G75*
G02*
X251400000Y-28592500I0J-237500D01*
G01*
G37*
G36*
G01*
X253150000Y-28592500D02*
X253150000Y-29067500D01*
G75*
G02*
X252912500Y-29305000I-237500J0D01*
G01*
X252337500Y-29305000D01*
G75*
G02*
X252100000Y-29067500I0J237500D01*
G01*
X252100000Y-28592500D01*
G75*
G02*
X252337500Y-28355000I237500J0D01*
G01*
X252912500Y-28355000D01*
G75*
G02*
X253150000Y-28592500I0J-237500D01*
G01*
G37*
G36*
G01*
X222900000Y-28592500D02*
X222900000Y-29067500D01*
G75*
G02*
X222662500Y-29305000I-237500J0D01*
G01*
X222087500Y-29305000D01*
G75*
G02*
X221850000Y-29067500I0J237500D01*
G01*
X221850000Y-28592500D01*
G75*
G02*
X222087500Y-28355000I237500J0D01*
G01*
X222662500Y-28355000D01*
G75*
G02*
X222900000Y-28592500I0J-237500D01*
G01*
G37*
G36*
G01*
X224650000Y-28592500D02*
X224650000Y-29067500D01*
G75*
G02*
X224412500Y-29305000I-237500J0D01*
G01*
X223837500Y-29305000D01*
G75*
G02*
X223600000Y-29067500I0J237500D01*
G01*
X223600000Y-28592500D01*
G75*
G02*
X223837500Y-28355000I237500J0D01*
G01*
X224412500Y-28355000D01*
G75*
G02*
X224650000Y-28592500I0J-237500D01*
G01*
G37*
G36*
G01*
X203900000Y-28592500D02*
X203900000Y-29067500D01*
G75*
G02*
X203662500Y-29305000I-237500J0D01*
G01*
X203087500Y-29305000D01*
G75*
G02*
X202850000Y-29067500I0J237500D01*
G01*
X202850000Y-28592500D01*
G75*
G02*
X203087500Y-28355000I237500J0D01*
G01*
X203662500Y-28355000D01*
G75*
G02*
X203900000Y-28592500I0J-237500D01*
G01*
G37*
G36*
G01*
X205650000Y-28592500D02*
X205650000Y-29067500D01*
G75*
G02*
X205412500Y-29305000I-237500J0D01*
G01*
X204837500Y-29305000D01*
G75*
G02*
X204600000Y-29067500I0J237500D01*
G01*
X204600000Y-28592500D01*
G75*
G02*
X204837500Y-28355000I237500J0D01*
G01*
X205412500Y-28355000D01*
G75*
G02*
X205650000Y-28592500I0J-237500D01*
G01*
G37*
G36*
G01*
X184900000Y-28592500D02*
X184900000Y-29067500D01*
G75*
G02*
X184662500Y-29305000I-237500J0D01*
G01*
X184087500Y-29305000D01*
G75*
G02*
X183850000Y-29067500I0J237500D01*
G01*
X183850000Y-28592500D01*
G75*
G02*
X184087500Y-28355000I237500J0D01*
G01*
X184662500Y-28355000D01*
G75*
G02*
X184900000Y-28592500I0J-237500D01*
G01*
G37*
G36*
G01*
X186650000Y-28592500D02*
X186650000Y-29067500D01*
G75*
G02*
X186412500Y-29305000I-237500J0D01*
G01*
X185837500Y-29305000D01*
G75*
G02*
X185600000Y-29067500I0J237500D01*
G01*
X185600000Y-28592500D01*
G75*
G02*
X185837500Y-28355000I237500J0D01*
G01*
X186412500Y-28355000D01*
G75*
G02*
X186650000Y-28592500I0J-237500D01*
G01*
G37*
G36*
G01*
X166020000Y-28592500D02*
X166020000Y-29067500D01*
G75*
G02*
X165782500Y-29305000I-237500J0D01*
G01*
X165207500Y-29305000D01*
G75*
G02*
X164970000Y-29067500I0J237500D01*
G01*
X164970000Y-28592500D01*
G75*
G02*
X165207500Y-28355000I237500J0D01*
G01*
X165782500Y-28355000D01*
G75*
G02*
X166020000Y-28592500I0J-237500D01*
G01*
G37*
G36*
G01*
X167770000Y-28592500D02*
X167770000Y-29067500D01*
G75*
G02*
X167532500Y-29305000I-237500J0D01*
G01*
X166957500Y-29305000D01*
G75*
G02*
X166720000Y-29067500I0J237500D01*
G01*
X166720000Y-28592500D01*
G75*
G02*
X166957500Y-28355000I237500J0D01*
G01*
X167532500Y-28355000D01*
G75*
G02*
X167770000Y-28592500I0J-237500D01*
G01*
G37*
G36*
G01*
X146900000Y-28592500D02*
X146900000Y-29067500D01*
G75*
G02*
X146662500Y-29305000I-237500J0D01*
G01*
X146087500Y-29305000D01*
G75*
G02*
X145850000Y-29067500I0J237500D01*
G01*
X145850000Y-28592500D01*
G75*
G02*
X146087500Y-28355000I237500J0D01*
G01*
X146662500Y-28355000D01*
G75*
G02*
X146900000Y-28592500I0J-237500D01*
G01*
G37*
G36*
G01*
X148650000Y-28592500D02*
X148650000Y-29067500D01*
G75*
G02*
X148412500Y-29305000I-237500J0D01*
G01*
X147837500Y-29305000D01*
G75*
G02*
X147600000Y-29067500I0J237500D01*
G01*
X147600000Y-28592500D01*
G75*
G02*
X147837500Y-28355000I237500J0D01*
G01*
X148412500Y-28355000D01*
G75*
G02*
X148650000Y-28592500I0J-237500D01*
G01*
G37*
G36*
G01*
X127920000Y-28592500D02*
X127920000Y-29067500D01*
G75*
G02*
X127682500Y-29305000I-237500J0D01*
G01*
X127107500Y-29305000D01*
G75*
G02*
X126870000Y-29067500I0J237500D01*
G01*
X126870000Y-28592500D01*
G75*
G02*
X127107500Y-28355000I237500J0D01*
G01*
X127682500Y-28355000D01*
G75*
G02*
X127920000Y-28592500I0J-237500D01*
G01*
G37*
G36*
G01*
X129670000Y-28592500D02*
X129670000Y-29067500D01*
G75*
G02*
X129432500Y-29305000I-237500J0D01*
G01*
X128857500Y-29305000D01*
G75*
G02*
X128620000Y-29067500I0J237500D01*
G01*
X128620000Y-28592500D01*
G75*
G02*
X128857500Y-28355000I237500J0D01*
G01*
X129432500Y-28355000D01*
G75*
G02*
X129670000Y-28592500I0J-237500D01*
G01*
G37*
G36*
G01*
X108870000Y-28592500D02*
X108870000Y-29067500D01*
G75*
G02*
X108632500Y-29305000I-237500J0D01*
G01*
X108057500Y-29305000D01*
G75*
G02*
X107820000Y-29067500I0J237500D01*
G01*
X107820000Y-28592500D01*
G75*
G02*
X108057500Y-28355000I237500J0D01*
G01*
X108632500Y-28355000D01*
G75*
G02*
X108870000Y-28592500I0J-237500D01*
G01*
G37*
G36*
G01*
X110620000Y-28592500D02*
X110620000Y-29067500D01*
G75*
G02*
X110382500Y-29305000I-237500J0D01*
G01*
X109807500Y-29305000D01*
G75*
G02*
X109570000Y-29067500I0J237500D01*
G01*
X109570000Y-28592500D01*
G75*
G02*
X109807500Y-28355000I237500J0D01*
G01*
X110382500Y-28355000D01*
G75*
G02*
X110620000Y-28592500I0J-237500D01*
G01*
G37*
G36*
G01*
X89900000Y-28592500D02*
X89900000Y-29067500D01*
G75*
G02*
X89662500Y-29305000I-237500J0D01*
G01*
X89087500Y-29305000D01*
G75*
G02*
X88850000Y-29067500I0J237500D01*
G01*
X88850000Y-28592500D01*
G75*
G02*
X89087500Y-28355000I237500J0D01*
G01*
X89662500Y-28355000D01*
G75*
G02*
X89900000Y-28592500I0J-237500D01*
G01*
G37*
G36*
G01*
X91650000Y-28592500D02*
X91650000Y-29067500D01*
G75*
G02*
X91412500Y-29305000I-237500J0D01*
G01*
X90837500Y-29305000D01*
G75*
G02*
X90600000Y-29067500I0J237500D01*
G01*
X90600000Y-28592500D01*
G75*
G02*
X90837500Y-28355000I237500J0D01*
G01*
X91412500Y-28355000D01*
G75*
G02*
X91650000Y-28592500I0J-237500D01*
G01*
G37*
G36*
G01*
X70900000Y-28592500D02*
X70900000Y-29067500D01*
G75*
G02*
X70662500Y-29305000I-237500J0D01*
G01*
X70087500Y-29305000D01*
G75*
G02*
X69850000Y-29067500I0J237500D01*
G01*
X69850000Y-28592500D01*
G75*
G02*
X70087500Y-28355000I237500J0D01*
G01*
X70662500Y-28355000D01*
G75*
G02*
X70900000Y-28592500I0J-237500D01*
G01*
G37*
G36*
G01*
X72650000Y-28592500D02*
X72650000Y-29067500D01*
G75*
G02*
X72412500Y-29305000I-237500J0D01*
G01*
X71837500Y-29305000D01*
G75*
G02*
X71600000Y-29067500I0J237500D01*
G01*
X71600000Y-28592500D01*
G75*
G02*
X71837500Y-28355000I237500J0D01*
G01*
X72412500Y-28355000D01*
G75*
G02*
X72650000Y-28592500I0J-237500D01*
G01*
G37*
G36*
G01*
X51900000Y-28592500D02*
X51900000Y-29067500D01*
G75*
G02*
X51662500Y-29305000I-237500J0D01*
G01*
X51087500Y-29305000D01*
G75*
G02*
X50850000Y-29067500I0J237500D01*
G01*
X50850000Y-28592500D01*
G75*
G02*
X51087500Y-28355000I237500J0D01*
G01*
X51662500Y-28355000D01*
G75*
G02*
X51900000Y-28592500I0J-237500D01*
G01*
G37*
G36*
G01*
X53650000Y-28592500D02*
X53650000Y-29067500D01*
G75*
G02*
X53412500Y-29305000I-237500J0D01*
G01*
X52837500Y-29305000D01*
G75*
G02*
X52600000Y-29067500I0J237500D01*
G01*
X52600000Y-28592500D01*
G75*
G02*
X52837500Y-28355000I237500J0D01*
G01*
X53412500Y-28355000D01*
G75*
G02*
X53650000Y-28592500I0J-237500D01*
G01*
G37*
G36*
G01*
X32900000Y-28592500D02*
X32900000Y-29067500D01*
G75*
G02*
X32662500Y-29305000I-237500J0D01*
G01*
X32087500Y-29305000D01*
G75*
G02*
X31850000Y-29067500I0J237500D01*
G01*
X31850000Y-28592500D01*
G75*
G02*
X32087500Y-28355000I237500J0D01*
G01*
X32662500Y-28355000D01*
G75*
G02*
X32900000Y-28592500I0J-237500D01*
G01*
G37*
G36*
G01*
X34650000Y-28592500D02*
X34650000Y-29067500D01*
G75*
G02*
X34412500Y-29305000I-237500J0D01*
G01*
X33837500Y-29305000D01*
G75*
G02*
X33600000Y-29067500I0J237500D01*
G01*
X33600000Y-28592500D01*
G75*
G02*
X33837500Y-28355000I237500J0D01*
G01*
X34412500Y-28355000D01*
G75*
G02*
X34650000Y-28592500I0J-237500D01*
G01*
G37*
G36*
G01*
X13900000Y-28592500D02*
X13900000Y-29067500D01*
G75*
G02*
X13662500Y-29305000I-237500J0D01*
G01*
X13087500Y-29305000D01*
G75*
G02*
X12850000Y-29067500I0J237500D01*
G01*
X12850000Y-28592500D01*
G75*
G02*
X13087500Y-28355000I237500J0D01*
G01*
X13662500Y-28355000D01*
G75*
G02*
X13900000Y-28592500I0J-237500D01*
G01*
G37*
G36*
G01*
X15650000Y-28592500D02*
X15650000Y-29067500D01*
G75*
G02*
X15412500Y-29305000I-237500J0D01*
G01*
X14837500Y-29305000D01*
G75*
G02*
X14600000Y-29067500I0J237500D01*
G01*
X14600000Y-28592500D01*
G75*
G02*
X14837500Y-28355000I237500J0D01*
G01*
X15412500Y-28355000D01*
G75*
G02*
X15650000Y-28592500I0J-237500D01*
G01*
G37*
G36*
G01*
X-5100000Y-28592500D02*
X-5100000Y-29067500D01*
G75*
G02*
X-5337500Y-29305000I-237500J0D01*
G01*
X-5912500Y-29305000D01*
G75*
G02*
X-6150000Y-29067500I0J237500D01*
G01*
X-6150000Y-28592500D01*
G75*
G02*
X-5912500Y-28355000I237500J0D01*
G01*
X-5337500Y-28355000D01*
G75*
G02*
X-5100000Y-28592500I0J-237500D01*
G01*
G37*
G36*
G01*
X-3350000Y-28592500D02*
X-3350000Y-29067500D01*
G75*
G02*
X-3587500Y-29305000I-237500J0D01*
G01*
X-4162500Y-29305000D01*
G75*
G02*
X-4400000Y-29067500I0J237500D01*
G01*
X-4400000Y-28592500D01*
G75*
G02*
X-4162500Y-28355000I237500J0D01*
G01*
X-3587500Y-28355000D01*
G75*
G02*
X-3350000Y-28592500I0J-237500D01*
G01*
G37*
G36*
G01*
X181992500Y-103275000D02*
X182467500Y-103275000D01*
G75*
G02*
X182705000Y-103512500I0J-237500D01*
G01*
X182705000Y-104087500D01*
G75*
G02*
X182467500Y-104325000I-237500J0D01*
G01*
X181992500Y-104325000D01*
G75*
G02*
X181755000Y-104087500I0J237500D01*
G01*
X181755000Y-103512500D01*
G75*
G02*
X181992500Y-103275000I237500J0D01*
G01*
G37*
G36*
G01*
X181992500Y-105025000D02*
X182467500Y-105025000D01*
G75*
G02*
X182705000Y-105262500I0J-237500D01*
G01*
X182705000Y-105837500D01*
G75*
G02*
X182467500Y-106075000I-237500J0D01*
G01*
X181992500Y-106075000D01*
G75*
G02*
X181755000Y-105837500I0J237500D01*
G01*
X181755000Y-105262500D01*
G75*
G02*
X181992500Y-105025000I237500J0D01*
G01*
G37*
G36*
G01*
X260900000Y-4842500D02*
X260900000Y-5317500D01*
G75*
G02*
X260662500Y-5555000I-237500J0D01*
G01*
X260087500Y-5555000D01*
G75*
G02*
X259850000Y-5317500I0J237500D01*
G01*
X259850000Y-4842500D01*
G75*
G02*
X260087500Y-4605000I237500J0D01*
G01*
X260662500Y-4605000D01*
G75*
G02*
X260900000Y-4842500I0J-237500D01*
G01*
G37*
G36*
G01*
X262650000Y-4842500D02*
X262650000Y-5317500D01*
G75*
G02*
X262412500Y-5555000I-237500J0D01*
G01*
X261837500Y-5555000D01*
G75*
G02*
X261600000Y-5317500I0J237500D01*
G01*
X261600000Y-4842500D01*
G75*
G02*
X261837500Y-4605000I237500J0D01*
G01*
X262412500Y-4605000D01*
G75*
G02*
X262650000Y-4842500I0J-237500D01*
G01*
G37*
G36*
G01*
X237150000Y-4842500D02*
X237150000Y-5317500D01*
G75*
G02*
X236912500Y-5555000I-237500J0D01*
G01*
X236337500Y-5555000D01*
G75*
G02*
X236100000Y-5317500I0J237500D01*
G01*
X236100000Y-4842500D01*
G75*
G02*
X236337500Y-4605000I237500J0D01*
G01*
X236912500Y-4605000D01*
G75*
G02*
X237150000Y-4842500I0J-237500D01*
G01*
G37*
G36*
G01*
X238900000Y-4842500D02*
X238900000Y-5317500D01*
G75*
G02*
X238662500Y-5555000I-237500J0D01*
G01*
X238087500Y-5555000D01*
G75*
G02*
X237850000Y-5317500I0J237500D01*
G01*
X237850000Y-4842500D01*
G75*
G02*
X238087500Y-4605000I237500J0D01*
G01*
X238662500Y-4605000D01*
G75*
G02*
X238900000Y-4842500I0J-237500D01*
G01*
G37*
G36*
G01*
X218150000Y-4842500D02*
X218150000Y-5317500D01*
G75*
G02*
X217912500Y-5555000I-237500J0D01*
G01*
X217337500Y-5555000D01*
G75*
G02*
X217100000Y-5317500I0J237500D01*
G01*
X217100000Y-4842500D01*
G75*
G02*
X217337500Y-4605000I237500J0D01*
G01*
X217912500Y-4605000D01*
G75*
G02*
X218150000Y-4842500I0J-237500D01*
G01*
G37*
G36*
G01*
X219900000Y-4842500D02*
X219900000Y-5317500D01*
G75*
G02*
X219662500Y-5555000I-237500J0D01*
G01*
X219087500Y-5555000D01*
G75*
G02*
X218850000Y-5317500I0J237500D01*
G01*
X218850000Y-4842500D01*
G75*
G02*
X219087500Y-4605000I237500J0D01*
G01*
X219662500Y-4605000D01*
G75*
G02*
X219900000Y-4842500I0J-237500D01*
G01*
G37*
G36*
G01*
X199150000Y-4842500D02*
X199150000Y-5317500D01*
G75*
G02*
X198912500Y-5555000I-237500J0D01*
G01*
X198337500Y-5555000D01*
G75*
G02*
X198100000Y-5317500I0J237500D01*
G01*
X198100000Y-4842500D01*
G75*
G02*
X198337500Y-4605000I237500J0D01*
G01*
X198912500Y-4605000D01*
G75*
G02*
X199150000Y-4842500I0J-237500D01*
G01*
G37*
G36*
G01*
X200900000Y-4842500D02*
X200900000Y-5317500D01*
G75*
G02*
X200662500Y-5555000I-237500J0D01*
G01*
X200087500Y-5555000D01*
G75*
G02*
X199850000Y-5317500I0J237500D01*
G01*
X199850000Y-4842500D01*
G75*
G02*
X200087500Y-4605000I237500J0D01*
G01*
X200662500Y-4605000D01*
G75*
G02*
X200900000Y-4842500I0J-237500D01*
G01*
G37*
G36*
G01*
X180150000Y-4842500D02*
X180150000Y-5317500D01*
G75*
G02*
X179912500Y-5555000I-237500J0D01*
G01*
X179337500Y-5555000D01*
G75*
G02*
X179100000Y-5317500I0J237500D01*
G01*
X179100000Y-4842500D01*
G75*
G02*
X179337500Y-4605000I237500J0D01*
G01*
X179912500Y-4605000D01*
G75*
G02*
X180150000Y-4842500I0J-237500D01*
G01*
G37*
G36*
G01*
X181900000Y-4842500D02*
X181900000Y-5317500D01*
G75*
G02*
X181662500Y-5555000I-237500J0D01*
G01*
X181087500Y-5555000D01*
G75*
G02*
X180850000Y-5317500I0J237500D01*
G01*
X180850000Y-4842500D01*
G75*
G02*
X181087500Y-4605000I237500J0D01*
G01*
X181662500Y-4605000D01*
G75*
G02*
X181900000Y-4842500I0J-237500D01*
G01*
G37*
G36*
G01*
X156400000Y-4842500D02*
X156400000Y-5317500D01*
G75*
G02*
X156162500Y-5555000I-237500J0D01*
G01*
X155587500Y-5555000D01*
G75*
G02*
X155350000Y-5317500I0J237500D01*
G01*
X155350000Y-4842500D01*
G75*
G02*
X155587500Y-4605000I237500J0D01*
G01*
X156162500Y-4605000D01*
G75*
G02*
X156400000Y-4842500I0J-237500D01*
G01*
G37*
G36*
G01*
X158150000Y-4842500D02*
X158150000Y-5317500D01*
G75*
G02*
X157912500Y-5555000I-237500J0D01*
G01*
X157337500Y-5555000D01*
G75*
G02*
X157100000Y-5317500I0J237500D01*
G01*
X157100000Y-4842500D01*
G75*
G02*
X157337500Y-4605000I237500J0D01*
G01*
X157912500Y-4605000D01*
G75*
G02*
X158150000Y-4842500I0J-237500D01*
G01*
G37*
G36*
G01*
X137400000Y-4842500D02*
X137400000Y-5317500D01*
G75*
G02*
X137162500Y-5555000I-237500J0D01*
G01*
X136587500Y-5555000D01*
G75*
G02*
X136350000Y-5317500I0J237500D01*
G01*
X136350000Y-4842500D01*
G75*
G02*
X136587500Y-4605000I237500J0D01*
G01*
X137162500Y-4605000D01*
G75*
G02*
X137400000Y-4842500I0J-237500D01*
G01*
G37*
G36*
G01*
X139150000Y-4842500D02*
X139150000Y-5317500D01*
G75*
G02*
X138912500Y-5555000I-237500J0D01*
G01*
X138337500Y-5555000D01*
G75*
G02*
X138100000Y-5317500I0J237500D01*
G01*
X138100000Y-4842500D01*
G75*
G02*
X138337500Y-4605000I237500J0D01*
G01*
X138912500Y-4605000D01*
G75*
G02*
X139150000Y-4842500I0J-237500D01*
G01*
G37*
G36*
G01*
X118400000Y-4842500D02*
X118400000Y-5317500D01*
G75*
G02*
X118162500Y-5555000I-237500J0D01*
G01*
X117587500Y-5555000D01*
G75*
G02*
X117350000Y-5317500I0J237500D01*
G01*
X117350000Y-4842500D01*
G75*
G02*
X117587500Y-4605000I237500J0D01*
G01*
X118162500Y-4605000D01*
G75*
G02*
X118400000Y-4842500I0J-237500D01*
G01*
G37*
G36*
G01*
X120150000Y-4842500D02*
X120150000Y-5317500D01*
G75*
G02*
X119912500Y-5555000I-237500J0D01*
G01*
X119337500Y-5555000D01*
G75*
G02*
X119100000Y-5317500I0J237500D01*
G01*
X119100000Y-4842500D01*
G75*
G02*
X119337500Y-4605000I237500J0D01*
G01*
X119912500Y-4605000D01*
G75*
G02*
X120150000Y-4842500I0J-237500D01*
G01*
G37*
G36*
G01*
X99400000Y-4842500D02*
X99400000Y-5317500D01*
G75*
G02*
X99162500Y-5555000I-237500J0D01*
G01*
X98587500Y-5555000D01*
G75*
G02*
X98350000Y-5317500I0J237500D01*
G01*
X98350000Y-4842500D01*
G75*
G02*
X98587500Y-4605000I237500J0D01*
G01*
X99162500Y-4605000D01*
G75*
G02*
X99400000Y-4842500I0J-237500D01*
G01*
G37*
G36*
G01*
X101150000Y-4842500D02*
X101150000Y-5317500D01*
G75*
G02*
X100912500Y-5555000I-237500J0D01*
G01*
X100337500Y-5555000D01*
G75*
G02*
X100100000Y-5317500I0J237500D01*
G01*
X100100000Y-4842500D01*
G75*
G02*
X100337500Y-4605000I237500J0D01*
G01*
X100912500Y-4605000D01*
G75*
G02*
X101150000Y-4842500I0J-237500D01*
G01*
G37*
G36*
G01*
X75650000Y-4842500D02*
X75650000Y-5317500D01*
G75*
G02*
X75412500Y-5555000I-237500J0D01*
G01*
X74837500Y-5555000D01*
G75*
G02*
X74600000Y-5317500I0J237500D01*
G01*
X74600000Y-4842500D01*
G75*
G02*
X74837500Y-4605000I237500J0D01*
G01*
X75412500Y-4605000D01*
G75*
G02*
X75650000Y-4842500I0J-237500D01*
G01*
G37*
G36*
G01*
X77400000Y-4842500D02*
X77400000Y-5317500D01*
G75*
G02*
X77162500Y-5555000I-237500J0D01*
G01*
X76587500Y-5555000D01*
G75*
G02*
X76350000Y-5317500I0J237500D01*
G01*
X76350000Y-4842500D01*
G75*
G02*
X76587500Y-4605000I237500J0D01*
G01*
X77162500Y-4605000D01*
G75*
G02*
X77400000Y-4842500I0J-237500D01*
G01*
G37*
G36*
G01*
X56650000Y-4842500D02*
X56650000Y-5317500D01*
G75*
G02*
X56412500Y-5555000I-237500J0D01*
G01*
X55837500Y-5555000D01*
G75*
G02*
X55600000Y-5317500I0J237500D01*
G01*
X55600000Y-4842500D01*
G75*
G02*
X55837500Y-4605000I237500J0D01*
G01*
X56412500Y-4605000D01*
G75*
G02*
X56650000Y-4842500I0J-237500D01*
G01*
G37*
G36*
G01*
X58400000Y-4842500D02*
X58400000Y-5317500D01*
G75*
G02*
X58162500Y-5555000I-237500J0D01*
G01*
X57587500Y-5555000D01*
G75*
G02*
X57350000Y-5317500I0J237500D01*
G01*
X57350000Y-4842500D01*
G75*
G02*
X57587500Y-4605000I237500J0D01*
G01*
X58162500Y-4605000D01*
G75*
G02*
X58400000Y-4842500I0J-237500D01*
G01*
G37*
G36*
G01*
X37650000Y-4842500D02*
X37650000Y-5317500D01*
G75*
G02*
X37412500Y-5555000I-237500J0D01*
G01*
X36837500Y-5555000D01*
G75*
G02*
X36600000Y-5317500I0J237500D01*
G01*
X36600000Y-4842500D01*
G75*
G02*
X36837500Y-4605000I237500J0D01*
G01*
X37412500Y-4605000D01*
G75*
G02*
X37650000Y-4842500I0J-237500D01*
G01*
G37*
G36*
G01*
X39400000Y-4842500D02*
X39400000Y-5317500D01*
G75*
G02*
X39162500Y-5555000I-237500J0D01*
G01*
X38587500Y-5555000D01*
G75*
G02*
X38350000Y-5317500I0J237500D01*
G01*
X38350000Y-4842500D01*
G75*
G02*
X38587500Y-4605000I237500J0D01*
G01*
X39162500Y-4605000D01*
G75*
G02*
X39400000Y-4842500I0J-237500D01*
G01*
G37*
G36*
G01*
X18712500Y-4842500D02*
X18712500Y-5317500D01*
G75*
G02*
X18475000Y-5555000I-237500J0D01*
G01*
X17900000Y-5555000D01*
G75*
G02*
X17662500Y-5317500I0J237500D01*
G01*
X17662500Y-4842500D01*
G75*
G02*
X17900000Y-4605000I237500J0D01*
G01*
X18475000Y-4605000D01*
G75*
G02*
X18712500Y-4842500I0J-237500D01*
G01*
G37*
G36*
G01*
X20462500Y-4842500D02*
X20462500Y-5317500D01*
G75*
G02*
X20225000Y-5555000I-237500J0D01*
G01*
X19650000Y-5555000D01*
G75*
G02*
X19412500Y-5317500I0J237500D01*
G01*
X19412500Y-4842500D01*
G75*
G02*
X19650000Y-4605000I237500J0D01*
G01*
X20225000Y-4605000D01*
G75*
G02*
X20462500Y-4842500I0J-237500D01*
G01*
G37*
G36*
G01*
X-5100000Y-4842500D02*
X-5100000Y-5317500D01*
G75*
G02*
X-5337500Y-5555000I-237500J0D01*
G01*
X-5912500Y-5555000D01*
G75*
G02*
X-6150000Y-5317500I0J237500D01*
G01*
X-6150000Y-4842500D01*
G75*
G02*
X-5912500Y-4605000I237500J0D01*
G01*
X-5337500Y-4605000D01*
G75*
G02*
X-5100000Y-4842500I0J-237500D01*
G01*
G37*
G36*
G01*
X-3350000Y-4842500D02*
X-3350000Y-5317500D01*
G75*
G02*
X-3587500Y-5555000I-237500J0D01*
G01*
X-4162500Y-5555000D01*
G75*
G02*
X-4400000Y-5317500I0J237500D01*
G01*
X-4400000Y-4842500D01*
G75*
G02*
X-4162500Y-4605000I237500J0D01*
G01*
X-3587500Y-4605000D01*
G75*
G02*
X-3350000Y-4842500I0J-237500D01*
G01*
G37*
G36*
G01*
X180767500Y-106075000D02*
X180292500Y-106075000D01*
G75*
G02*
X180055000Y-105837500I0J237500D01*
G01*
X180055000Y-105262500D01*
G75*
G02*
X180292500Y-105025000I237500J0D01*
G01*
X180767500Y-105025000D01*
G75*
G02*
X181005000Y-105262500I0J-237500D01*
G01*
X181005000Y-105837500D01*
G75*
G02*
X180767500Y-106075000I-237500J0D01*
G01*
G37*
G36*
G01*
X180767500Y-104325000D02*
X180292500Y-104325000D01*
G75*
G02*
X180055000Y-104087500I0J237500D01*
G01*
X180055000Y-103512500D01*
G75*
G02*
X180292500Y-103275000I237500J0D01*
G01*
X180767500Y-103275000D01*
G75*
G02*
X181005000Y-103512500I0J-237500D01*
G01*
X181005000Y-104087500D01*
G75*
G02*
X180767500Y-104325000I-237500J0D01*
G01*
G37*
G36*
G01*
X112597500Y-98760000D02*
X113072500Y-98760000D01*
G75*
G02*
X113310000Y-98997500I0J-237500D01*
G01*
X113310000Y-99572500D01*
G75*
G02*
X113072500Y-99810000I-237500J0D01*
G01*
X112597500Y-99810000D01*
G75*
G02*
X112360000Y-99572500I0J237500D01*
G01*
X112360000Y-98997500D01*
G75*
G02*
X112597500Y-98760000I237500J0D01*
G01*
G37*
G36*
G01*
X112597500Y-97010000D02*
X113072500Y-97010000D01*
G75*
G02*
X113310000Y-97247500I0J-237500D01*
G01*
X113310000Y-97822500D01*
G75*
G02*
X113072500Y-98060000I-237500J0D01*
G01*
X112597500Y-98060000D01*
G75*
G02*
X112360000Y-97822500I0J237500D01*
G01*
X112360000Y-97247500D01*
G75*
G02*
X112597500Y-97010000I237500J0D01*
G01*
G37*
G36*
G01*
X110597500Y-98760000D02*
X111072500Y-98760000D01*
G75*
G02*
X111310000Y-98997500I0J-237500D01*
G01*
X111310000Y-99572500D01*
G75*
G02*
X111072500Y-99810000I-237500J0D01*
G01*
X110597500Y-99810000D01*
G75*
G02*
X110360000Y-99572500I0J237500D01*
G01*
X110360000Y-98997500D01*
G75*
G02*
X110597500Y-98760000I237500J0D01*
G01*
G37*
G36*
G01*
X110597500Y-97010000D02*
X111072500Y-97010000D01*
G75*
G02*
X111310000Y-97247500I0J-237500D01*
G01*
X111310000Y-97822500D01*
G75*
G02*
X111072500Y-98060000I-237500J0D01*
G01*
X110597500Y-98060000D01*
G75*
G02*
X110360000Y-97822500I0J237500D01*
G01*
X110360000Y-97247500D01*
G75*
G02*
X110597500Y-97010000I237500J0D01*
G01*
G37*
G36*
G01*
X135500000Y-100120000D02*
X135500000Y-99645000D01*
G75*
G02*
X135737500Y-99407500I237500J0D01*
G01*
X136312500Y-99407500D01*
G75*
G02*
X136550000Y-99645000I0J-237500D01*
G01*
X136550000Y-100120000D01*
G75*
G02*
X136312500Y-100357500I-237500J0D01*
G01*
X135737500Y-100357500D01*
G75*
G02*
X135500000Y-100120000I0J237500D01*
G01*
G37*
G36*
G01*
X133750000Y-100120000D02*
X133750000Y-99645000D01*
G75*
G02*
X133987500Y-99407500I237500J0D01*
G01*
X134562500Y-99407500D01*
G75*
G02*
X134800000Y-99645000I0J-237500D01*
G01*
X134800000Y-100120000D01*
G75*
G02*
X134562500Y-100357500I-237500J0D01*
G01*
X133987500Y-100357500D01*
G75*
G02*
X133750000Y-100120000I0J237500D01*
G01*
G37*
G36*
G01*
X129250000Y-106252500D02*
X129250000Y-106727500D01*
G75*
G02*
X129012500Y-106965000I-237500J0D01*
G01*
X128437500Y-106965000D01*
G75*
G02*
X128200000Y-106727500I0J237500D01*
G01*
X128200000Y-106252500D01*
G75*
G02*
X128437500Y-106015000I237500J0D01*
G01*
X129012500Y-106015000D01*
G75*
G02*
X129250000Y-106252500I0J-237500D01*
G01*
G37*
G36*
G01*
X131000000Y-106252500D02*
X131000000Y-106727500D01*
G75*
G02*
X130762500Y-106965000I-237500J0D01*
G01*
X130187500Y-106965000D01*
G75*
G02*
X129950000Y-106727500I0J237500D01*
G01*
X129950000Y-106252500D01*
G75*
G02*
X130187500Y-106015000I237500J0D01*
G01*
X130762500Y-106015000D01*
G75*
G02*
X131000000Y-106252500I0J-237500D01*
G01*
G37*
G36*
G01*
X132637500Y-101620000D02*
X132162500Y-101620000D01*
G75*
G02*
X131925000Y-101382500I0J237500D01*
G01*
X131925000Y-100807500D01*
G75*
G02*
X132162500Y-100570000I237500J0D01*
G01*
X132637500Y-100570000D01*
G75*
G02*
X132875000Y-100807500I0J-237500D01*
G01*
X132875000Y-101382500D01*
G75*
G02*
X132637500Y-101620000I-237500J0D01*
G01*
G37*
G36*
G01*
X132637500Y-103370000D02*
X132162500Y-103370000D01*
G75*
G02*
X131925000Y-103132500I0J237500D01*
G01*
X131925000Y-102557500D01*
G75*
G02*
X132162500Y-102320000I237500J0D01*
G01*
X132637500Y-102320000D01*
G75*
G02*
X132875000Y-102557500I0J-237500D01*
G01*
X132875000Y-103132500D01*
G75*
G02*
X132637500Y-103370000I-237500J0D01*
G01*
G37*
G36*
G01*
X137662500Y-102320000D02*
X138137500Y-102320000D01*
G75*
G02*
X138375000Y-102557500I0J-237500D01*
G01*
X138375000Y-103132500D01*
G75*
G02*
X138137500Y-103370000I-237500J0D01*
G01*
X137662500Y-103370000D01*
G75*
G02*
X137425000Y-103132500I0J237500D01*
G01*
X137425000Y-102557500D01*
G75*
G02*
X137662500Y-102320000I237500J0D01*
G01*
G37*
G36*
G01*
X137662500Y-100570000D02*
X138137500Y-100570000D01*
G75*
G02*
X138375000Y-100807500I0J-237500D01*
G01*
X138375000Y-101382500D01*
G75*
G02*
X138137500Y-101620000I-237500J0D01*
G01*
X137662500Y-101620000D01*
G75*
G02*
X137425000Y-101382500I0J237500D01*
G01*
X137425000Y-100807500D01*
G75*
G02*
X137662500Y-100570000I237500J0D01*
G01*
G37*
G36*
G01*
X129250000Y-104552500D02*
X129250000Y-105027500D01*
G75*
G02*
X129012500Y-105265000I-237500J0D01*
G01*
X128437500Y-105265000D01*
G75*
G02*
X128200000Y-105027500I0J237500D01*
G01*
X128200000Y-104552500D01*
G75*
G02*
X128437500Y-104315000I237500J0D01*
G01*
X129012500Y-104315000D01*
G75*
G02*
X129250000Y-104552500I0J-237500D01*
G01*
G37*
G36*
G01*
X131000000Y-104552500D02*
X131000000Y-105027500D01*
G75*
G02*
X130762500Y-105265000I-237500J0D01*
G01*
X130187500Y-105265000D01*
G75*
G02*
X129950000Y-105027500I0J237500D01*
G01*
X129950000Y-104552500D01*
G75*
G02*
X130187500Y-104315000I237500J0D01*
G01*
X130762500Y-104315000D01*
G75*
G02*
X131000000Y-104552500I0J-237500D01*
G01*
G37*
D14*
X161785712Y-110857000D03*
X161785712Y-109107000D03*
X165285712Y-110857000D03*
X165285712Y-109107000D03*
G36*
G01*
X168273212Y-109632000D02*
X167798212Y-109632000D01*
G75*
G02*
X167560712Y-109394500I0J237500D01*
G01*
X167560712Y-108819500D01*
G75*
G02*
X167798212Y-108582000I237500J0D01*
G01*
X168273212Y-108582000D01*
G75*
G02*
X168510712Y-108819500I0J-237500D01*
G01*
X168510712Y-109394500D01*
G75*
G02*
X168273212Y-109632000I-237500J0D01*
G01*
G37*
G36*
G01*
X168273212Y-111382000D02*
X167798212Y-111382000D01*
G75*
G02*
X167560712Y-111144500I0J237500D01*
G01*
X167560712Y-110569500D01*
G75*
G02*
X167798212Y-110332000I237500J0D01*
G01*
X168273212Y-110332000D01*
G75*
G02*
X168510712Y-110569500I0J-237500D01*
G01*
X168510712Y-111144500D01*
G75*
G02*
X168273212Y-111382000I-237500J0D01*
G01*
G37*
G36*
G01*
X206188390Y-109632000D02*
X205713390Y-109632000D01*
G75*
G02*
X205475890Y-109394500I0J237500D01*
G01*
X205475890Y-108819500D01*
G75*
G02*
X205713390Y-108582000I237500J0D01*
G01*
X206188390Y-108582000D01*
G75*
G02*
X206425890Y-108819500I0J-237500D01*
G01*
X206425890Y-109394500D01*
G75*
G02*
X206188390Y-109632000I-237500J0D01*
G01*
G37*
G36*
G01*
X206188390Y-111382000D02*
X205713390Y-111382000D01*
G75*
G02*
X205475890Y-111144500I0J237500D01*
G01*
X205475890Y-110569500D01*
G75*
G02*
X205713390Y-110332000I237500J0D01*
G01*
X206188390Y-110332000D01*
G75*
G02*
X206425890Y-110569500I0J-237500D01*
G01*
X206425890Y-111144500D01*
G75*
G02*
X206188390Y-111382000I-237500J0D01*
G01*
G37*
G36*
G01*
X233069250Y-109632000D02*
X232594250Y-109632000D01*
G75*
G02*
X232356750Y-109394500I0J237500D01*
G01*
X232356750Y-108819500D01*
G75*
G02*
X232594250Y-108582000I237500J0D01*
G01*
X233069250Y-108582000D01*
G75*
G02*
X233306750Y-108819500I0J-237500D01*
G01*
X233306750Y-109394500D01*
G75*
G02*
X233069250Y-109632000I-237500J0D01*
G01*
G37*
G36*
G01*
X233069250Y-111382000D02*
X232594250Y-111382000D01*
G75*
G02*
X232356750Y-111144500I0J237500D01*
G01*
X232356750Y-110569500D01*
G75*
G02*
X232594250Y-110332000I237500J0D01*
G01*
X233069250Y-110332000D01*
G75*
G02*
X233306750Y-110569500I0J-237500D01*
G01*
X233306750Y-111144500D01*
G75*
G02*
X233069250Y-111382000I-237500J0D01*
G01*
G37*
G36*
G01*
X270819500Y-109632000D02*
X270344500Y-109632000D01*
G75*
G02*
X270107000Y-109394500I0J237500D01*
G01*
X270107000Y-108819500D01*
G75*
G02*
X270344500Y-108582000I237500J0D01*
G01*
X270819500Y-108582000D01*
G75*
G02*
X271057000Y-108819500I0J-237500D01*
G01*
X271057000Y-109394500D01*
G75*
G02*
X270819500Y-109632000I-237500J0D01*
G01*
G37*
G36*
G01*
X270819500Y-111382000D02*
X270344500Y-111382000D01*
G75*
G02*
X270107000Y-111144500I0J237500D01*
G01*
X270107000Y-110569500D01*
G75*
G02*
X270344500Y-110332000I237500J0D01*
G01*
X270819500Y-110332000D01*
G75*
G02*
X271057000Y-110569500I0J-237500D01*
G01*
X271057000Y-111144500D01*
G75*
G02*
X270819500Y-111382000I-237500J0D01*
G01*
G37*
G36*
G01*
X272543750Y-52928000D02*
X273018750Y-52928000D01*
G75*
G02*
X273256250Y-53165500I0J-237500D01*
G01*
X273256250Y-53740500D01*
G75*
G02*
X273018750Y-53978000I-237500J0D01*
G01*
X272543750Y-53978000D01*
G75*
G02*
X272306250Y-53740500I0J237500D01*
G01*
X272306250Y-53165500D01*
G75*
G02*
X272543750Y-52928000I237500J0D01*
G01*
G37*
G36*
G01*
X272543750Y-51178000D02*
X273018750Y-51178000D01*
G75*
G02*
X273256250Y-51415500I0J-237500D01*
G01*
X273256250Y-51990500D01*
G75*
G02*
X273018750Y-52228000I-237500J0D01*
G01*
X272543750Y-52228000D01*
G75*
G02*
X272306250Y-51990500I0J237500D01*
G01*
X272306250Y-51415500D01*
G75*
G02*
X272543750Y-51178000I237500J0D01*
G01*
G37*
G36*
G01*
X272543750Y-9312000D02*
X273018750Y-9312000D01*
G75*
G02*
X273256250Y-9549500I0J-237500D01*
G01*
X273256250Y-10124500D01*
G75*
G02*
X273018750Y-10362000I-237500J0D01*
G01*
X272543750Y-10362000D01*
G75*
G02*
X272306250Y-10124500I0J237500D01*
G01*
X272306250Y-9549500D01*
G75*
G02*
X272543750Y-9312000I237500J0D01*
G01*
G37*
G36*
G01*
X272543750Y-7562000D02*
X273018750Y-7562000D01*
G75*
G02*
X273256250Y-7799500I0J-237500D01*
G01*
X273256250Y-8374500D01*
G75*
G02*
X273018750Y-8612000I-237500J0D01*
G01*
X272543750Y-8612000D01*
G75*
G02*
X272306250Y-8374500I0J237500D01*
G01*
X272306250Y-7799500D01*
G75*
G02*
X272543750Y-7562000I237500J0D01*
G01*
G37*
G36*
G01*
X234628568Y-9312000D02*
X235103568Y-9312000D01*
G75*
G02*
X235341068Y-9549500I0J-237500D01*
G01*
X235341068Y-10124500D01*
G75*
G02*
X235103568Y-10362000I-237500J0D01*
G01*
X234628568Y-10362000D01*
G75*
G02*
X234391068Y-10124500I0J237500D01*
G01*
X234391068Y-9549500D01*
G75*
G02*
X234628568Y-9312000I237500J0D01*
G01*
G37*
G36*
G01*
X234628568Y-7562000D02*
X235103568Y-7562000D01*
G75*
G02*
X235341068Y-7799500I0J-237500D01*
G01*
X235341068Y-8374500D01*
G75*
G02*
X235103568Y-8612000I-237500J0D01*
G01*
X234628568Y-8612000D01*
G75*
G02*
X234391068Y-8374500I0J237500D01*
G01*
X234391068Y-7799500D01*
G75*
G02*
X234628568Y-7562000I237500J0D01*
G01*
G37*
G36*
G01*
X196713390Y-9312000D02*
X197188390Y-9312000D01*
G75*
G02*
X197425890Y-9549500I0J-237500D01*
G01*
X197425890Y-10124500D01*
G75*
G02*
X197188390Y-10362000I-237500J0D01*
G01*
X196713390Y-10362000D01*
G75*
G02*
X196475890Y-10124500I0J237500D01*
G01*
X196475890Y-9549500D01*
G75*
G02*
X196713390Y-9312000I237500J0D01*
G01*
G37*
G36*
G01*
X196713390Y-7562000D02*
X197188390Y-7562000D01*
G75*
G02*
X197425890Y-7799500I0J-237500D01*
G01*
X197425890Y-8374500D01*
G75*
G02*
X197188390Y-8612000I-237500J0D01*
G01*
X196713390Y-8612000D01*
G75*
G02*
X196475890Y-8374500I0J237500D01*
G01*
X196475890Y-7799500D01*
G75*
G02*
X196713390Y-7562000I237500J0D01*
G01*
G37*
G36*
G01*
X158798212Y-9312000D02*
X159273212Y-9312000D01*
G75*
G02*
X159510712Y-9549500I0J-237500D01*
G01*
X159510712Y-10124500D01*
G75*
G02*
X159273212Y-10362000I-237500J0D01*
G01*
X158798212Y-10362000D01*
G75*
G02*
X158560712Y-10124500I0J237500D01*
G01*
X158560712Y-9549500D01*
G75*
G02*
X158798212Y-9312000I237500J0D01*
G01*
G37*
G36*
G01*
X158798212Y-7562000D02*
X159273212Y-7562000D01*
G75*
G02*
X159510712Y-7799500I0J-237500D01*
G01*
X159510712Y-8374500D01*
G75*
G02*
X159273212Y-8612000I-237500J0D01*
G01*
X158798212Y-8612000D01*
G75*
G02*
X158560712Y-8374500I0J237500D01*
G01*
X158560712Y-7799500D01*
G75*
G02*
X158798212Y-7562000I237500J0D01*
G01*
G37*
G36*
G01*
X120883034Y-9312000D02*
X121358034Y-9312000D01*
G75*
G02*
X121595534Y-9549500I0J-237500D01*
G01*
X121595534Y-10124500D01*
G75*
G02*
X121358034Y-10362000I-237500J0D01*
G01*
X120883034Y-10362000D01*
G75*
G02*
X120645534Y-10124500I0J237500D01*
G01*
X120645534Y-9549500D01*
G75*
G02*
X120883034Y-9312000I237500J0D01*
G01*
G37*
G36*
G01*
X120883034Y-7562000D02*
X121358034Y-7562000D01*
G75*
G02*
X121595534Y-7799500I0J-237500D01*
G01*
X121595534Y-8374500D01*
G75*
G02*
X121358034Y-8612000I-237500J0D01*
G01*
X120883034Y-8612000D01*
G75*
G02*
X120645534Y-8374500I0J237500D01*
G01*
X120645534Y-7799500D01*
G75*
G02*
X120883034Y-7562000I237500J0D01*
G01*
G37*
G36*
G01*
X82967856Y-9312000D02*
X83442856Y-9312000D01*
G75*
G02*
X83680356Y-9549500I0J-237500D01*
G01*
X83680356Y-10124500D01*
G75*
G02*
X83442856Y-10362000I-237500J0D01*
G01*
X82967856Y-10362000D01*
G75*
G02*
X82730356Y-10124500I0J237500D01*
G01*
X82730356Y-9549500D01*
G75*
G02*
X82967856Y-9312000I237500J0D01*
G01*
G37*
G36*
G01*
X82967856Y-7562000D02*
X83442856Y-7562000D01*
G75*
G02*
X83680356Y-7799500I0J-237500D01*
G01*
X83680356Y-8374500D01*
G75*
G02*
X83442856Y-8612000I-237500J0D01*
G01*
X82967856Y-8612000D01*
G75*
G02*
X82730356Y-8374500I0J237500D01*
G01*
X82730356Y-7799500D01*
G75*
G02*
X82967856Y-7562000I237500J0D01*
G01*
G37*
G36*
G01*
X45052678Y-9312000D02*
X45527678Y-9312000D01*
G75*
G02*
X45765178Y-9549500I0J-237500D01*
G01*
X45765178Y-10124500D01*
G75*
G02*
X45527678Y-10362000I-237500J0D01*
G01*
X45052678Y-10362000D01*
G75*
G02*
X44815178Y-10124500I0J237500D01*
G01*
X44815178Y-9549500D01*
G75*
G02*
X45052678Y-9312000I237500J0D01*
G01*
G37*
G36*
G01*
X45052678Y-7562000D02*
X45527678Y-7562000D01*
G75*
G02*
X45765178Y-7799500I0J-237500D01*
G01*
X45765178Y-8374500D01*
G75*
G02*
X45527678Y-8612000I-237500J0D01*
G01*
X45052678Y-8612000D01*
G75*
G02*
X44815178Y-8374500I0J237500D01*
G01*
X44815178Y-7799500D01*
G75*
G02*
X45052678Y-7562000I237500J0D01*
G01*
G37*
G36*
G01*
X7137500Y-9312000D02*
X7612500Y-9312000D01*
G75*
G02*
X7850000Y-9549500I0J-237500D01*
G01*
X7850000Y-10124500D01*
G75*
G02*
X7612500Y-10362000I-237500J0D01*
G01*
X7137500Y-10362000D01*
G75*
G02*
X6900000Y-10124500I0J237500D01*
G01*
X6900000Y-9549500D01*
G75*
G02*
X7137500Y-9312000I237500J0D01*
G01*
G37*
G36*
G01*
X7137500Y-7562000D02*
X7612500Y-7562000D01*
G75*
G02*
X7850000Y-7799500I0J-237500D01*
G01*
X7850000Y-8374500D01*
G75*
G02*
X7612500Y-8612000I-237500J0D01*
G01*
X7137500Y-8612000D01*
G75*
G02*
X6900000Y-8374500I0J237500D01*
G01*
X6900000Y-7799500D01*
G75*
G02*
X7137500Y-7562000I237500J0D01*
G01*
G37*
G36*
G01*
X7137500Y-52773000D02*
X7612500Y-52773000D01*
G75*
G02*
X7850000Y-53010500I0J-237500D01*
G01*
X7850000Y-53585500D01*
G75*
G02*
X7612500Y-53823000I-237500J0D01*
G01*
X7137500Y-53823000D01*
G75*
G02*
X6900000Y-53585500I0J237500D01*
G01*
X6900000Y-53010500D01*
G75*
G02*
X7137500Y-52773000I237500J0D01*
G01*
G37*
G36*
G01*
X7137500Y-51023000D02*
X7612500Y-51023000D01*
G75*
G02*
X7850000Y-51260500I0J-237500D01*
G01*
X7850000Y-51835500D01*
G75*
G02*
X7612500Y-52073000I-237500J0D01*
G01*
X7137500Y-52073000D01*
G75*
G02*
X6900000Y-51835500I0J237500D01*
G01*
X6900000Y-51260500D01*
G75*
G02*
X7137500Y-51023000I237500J0D01*
G01*
G37*
G36*
G01*
X16612500Y-109632000D02*
X16137500Y-109632000D01*
G75*
G02*
X15900000Y-109394500I0J237500D01*
G01*
X15900000Y-108819500D01*
G75*
G02*
X16137500Y-108582000I237500J0D01*
G01*
X16612500Y-108582000D01*
G75*
G02*
X16850000Y-108819500I0J-237500D01*
G01*
X16850000Y-109394500D01*
G75*
G02*
X16612500Y-109632000I-237500J0D01*
G01*
G37*
G36*
G01*
X16612500Y-111382000D02*
X16137500Y-111382000D01*
G75*
G02*
X15900000Y-111144500I0J237500D01*
G01*
X15900000Y-110569500D01*
G75*
G02*
X16137500Y-110332000I237500J0D01*
G01*
X16612500Y-110332000D01*
G75*
G02*
X16850000Y-110569500I0J-237500D01*
G01*
X16850000Y-111144500D01*
G75*
G02*
X16612500Y-111382000I-237500J0D01*
G01*
G37*
G36*
G01*
X54527678Y-109632000D02*
X54052678Y-109632000D01*
G75*
G02*
X53815178Y-109394500I0J237500D01*
G01*
X53815178Y-108819500D01*
G75*
G02*
X54052678Y-108582000I237500J0D01*
G01*
X54527678Y-108582000D01*
G75*
G02*
X54765178Y-108819500I0J-237500D01*
G01*
X54765178Y-109394500D01*
G75*
G02*
X54527678Y-109632000I-237500J0D01*
G01*
G37*
G36*
G01*
X54527678Y-111382000D02*
X54052678Y-111382000D01*
G75*
G02*
X53815178Y-111144500I0J237500D01*
G01*
X53815178Y-110569500D01*
G75*
G02*
X54052678Y-110332000I237500J0D01*
G01*
X54527678Y-110332000D01*
G75*
G02*
X54765178Y-110569500I0J-237500D01*
G01*
X54765178Y-111144500D01*
G75*
G02*
X54527678Y-111382000I-237500J0D01*
G01*
G37*
G36*
G01*
X92442856Y-109632000D02*
X91967856Y-109632000D01*
G75*
G02*
X91730356Y-109394500I0J237500D01*
G01*
X91730356Y-108819500D01*
G75*
G02*
X91967856Y-108582000I237500J0D01*
G01*
X92442856Y-108582000D01*
G75*
G02*
X92680356Y-108819500I0J-237500D01*
G01*
X92680356Y-109394500D01*
G75*
G02*
X92442856Y-109632000I-237500J0D01*
G01*
G37*
G36*
G01*
X92442856Y-111382000D02*
X91967856Y-111382000D01*
G75*
G02*
X91730356Y-111144500I0J237500D01*
G01*
X91730356Y-110569500D01*
G75*
G02*
X91967856Y-110332000I237500J0D01*
G01*
X92442856Y-110332000D01*
G75*
G02*
X92680356Y-110569500I0J-237500D01*
G01*
X92680356Y-111144500D01*
G75*
G02*
X92442856Y-111382000I-237500J0D01*
G01*
G37*
G36*
G01*
X182467500Y-102575000D02*
X181992500Y-102575000D01*
G75*
G02*
X181755000Y-102337500I0J237500D01*
G01*
X181755000Y-101762500D01*
G75*
G02*
X181992500Y-101525000I237500J0D01*
G01*
X182467500Y-101525000D01*
G75*
G02*
X182705000Y-101762500I0J-237500D01*
G01*
X182705000Y-102337500D01*
G75*
G02*
X182467500Y-102575000I-237500J0D01*
G01*
G37*
G36*
G01*
X182467500Y-100825000D02*
X181992500Y-100825000D01*
G75*
G02*
X181755000Y-100587500I0J237500D01*
G01*
X181755000Y-100012500D01*
G75*
G02*
X181992500Y-99775000I237500J0D01*
G01*
X182467500Y-99775000D01*
G75*
G02*
X182705000Y-100012500I0J-237500D01*
G01*
X182705000Y-100587500D01*
G75*
G02*
X182467500Y-100825000I-237500J0D01*
G01*
G37*
G36*
G01*
X180292500Y-99775000D02*
X180767500Y-99775000D01*
G75*
G02*
X181005000Y-100012500I0J-237500D01*
G01*
X181005000Y-100587500D01*
G75*
G02*
X180767500Y-100825000I-237500J0D01*
G01*
X180292500Y-100825000D01*
G75*
G02*
X180055000Y-100587500I0J237500D01*
G01*
X180055000Y-100012500D01*
G75*
G02*
X180292500Y-99775000I237500J0D01*
G01*
G37*
G36*
G01*
X180292500Y-101525000D02*
X180767500Y-101525000D01*
G75*
G02*
X181005000Y-101762500I0J-237500D01*
G01*
X181005000Y-102337500D01*
G75*
G02*
X180767500Y-102575000I-237500J0D01*
G01*
X180292500Y-102575000D01*
G75*
G02*
X180055000Y-102337500I0J237500D01*
G01*
X180055000Y-101762500D01*
G75*
G02*
X180292500Y-101525000I237500J0D01*
G01*
G37*
G36*
G01*
X138137500Y-105245000D02*
X137662500Y-105245000D01*
G75*
G02*
X137425000Y-105007500I0J237500D01*
G01*
X137425000Y-104432500D01*
G75*
G02*
X137662500Y-104195000I237500J0D01*
G01*
X138137500Y-104195000D01*
G75*
G02*
X138375000Y-104432500I0J-237500D01*
G01*
X138375000Y-105007500D01*
G75*
G02*
X138137500Y-105245000I-237500J0D01*
G01*
G37*
G36*
G01*
X138137500Y-106995000D02*
X137662500Y-106995000D01*
G75*
G02*
X137425000Y-106757500I0J237500D01*
G01*
X137425000Y-106182500D01*
G75*
G02*
X137662500Y-105945000I237500J0D01*
G01*
X138137500Y-105945000D01*
G75*
G02*
X138375000Y-106182500I0J-237500D01*
G01*
X138375000Y-106757500D01*
G75*
G02*
X138137500Y-106995000I-237500J0D01*
G01*
G37*
G36*
G01*
X132162500Y-105945000D02*
X132637500Y-105945000D01*
G75*
G02*
X132875000Y-106182500I0J-237500D01*
G01*
X132875000Y-106757500D01*
G75*
G02*
X132637500Y-106995000I-237500J0D01*
G01*
X132162500Y-106995000D01*
G75*
G02*
X131925000Y-106757500I0J237500D01*
G01*
X131925000Y-106182500D01*
G75*
G02*
X132162500Y-105945000I237500J0D01*
G01*
G37*
G36*
G01*
X132162500Y-104195000D02*
X132637500Y-104195000D01*
G75*
G02*
X132875000Y-104432500I0J-237500D01*
G01*
X132875000Y-105007500D01*
G75*
G02*
X132637500Y-105245000I-237500J0D01*
G01*
X132162500Y-105245000D01*
G75*
G02*
X131925000Y-105007500I0J237500D01*
G01*
X131925000Y-104432500D01*
G75*
G02*
X132162500Y-104195000I237500J0D01*
G01*
G37*
D15*
X280250000Y-92670000D03*
X279300000Y-94670000D03*
X281200000Y-94670000D03*
X256500000Y-92670000D03*
X255550000Y-94670000D03*
X257450000Y-94670000D03*
X209000000Y-92670000D03*
X208050000Y-94670000D03*
X209950000Y-94670000D03*
X61750000Y-92670000D03*
X60800000Y-94670000D03*
X62700000Y-94670000D03*
X14250000Y-92670000D03*
X13300000Y-94670000D03*
X15200000Y-94670000D03*
X280250000Y-73670000D03*
X279300000Y-75670000D03*
X281200000Y-75670000D03*
X251750000Y-73670000D03*
X250800000Y-75670000D03*
X252700000Y-75670000D03*
X204250000Y-73670000D03*
X203300000Y-75670000D03*
X205200000Y-75670000D03*
X166250000Y-73670000D03*
X165300000Y-75670000D03*
X167200000Y-75670000D03*
X128250000Y-73670000D03*
X127300000Y-75670000D03*
X129200000Y-75670000D03*
X90250000Y-73670000D03*
X89300000Y-75670000D03*
X91200000Y-75670000D03*
X52250000Y-73670000D03*
X51300000Y-75670000D03*
X53200000Y-75670000D03*
X9500000Y-73670000D03*
X8550000Y-75670000D03*
X10450000Y-75670000D03*
X287375000Y-54670000D03*
X286425000Y-56670000D03*
X288325000Y-56670000D03*
X251750000Y-54670000D03*
X250800000Y-56670000D03*
X252700000Y-56670000D03*
X213750000Y-54670000D03*
X212800000Y-56670000D03*
X214700000Y-56670000D03*
X175750000Y-54670000D03*
X174800000Y-56670000D03*
X176700000Y-56670000D03*
X137750000Y-54670000D03*
X136800000Y-56670000D03*
X138700000Y-56670000D03*
X99750000Y-54670000D03*
X98800000Y-56670000D03*
X100700000Y-56670000D03*
X61750000Y-54670000D03*
X60800000Y-56670000D03*
X62700000Y-56670000D03*
X23750000Y-54670000D03*
X22800000Y-56670000D03*
X24700000Y-56670000D03*
X280250000Y-35670000D03*
X279300000Y-37670000D03*
X281200000Y-37670000D03*
X247000000Y-35670000D03*
X246050000Y-37670000D03*
X247950000Y-37670000D03*
X209000000Y-35670000D03*
X208050000Y-37670000D03*
X209950000Y-37670000D03*
X171000000Y-35670000D03*
X170050000Y-37670000D03*
X171950000Y-37670000D03*
X133000000Y-35670000D03*
X132050000Y-37670000D03*
X133950000Y-37670000D03*
X95000000Y-35670000D03*
X94050000Y-37670000D03*
X95950000Y-37670000D03*
X57000000Y-35670000D03*
X56050000Y-37670000D03*
X57950000Y-37670000D03*
X19000000Y-35670000D03*
X18050000Y-37670000D03*
X19950000Y-37670000D03*
X280250000Y-16670000D03*
X279300000Y-18670000D03*
X281200000Y-18670000D03*
X237500000Y-16670000D03*
X236550000Y-18670000D03*
X238450000Y-18670000D03*
X199500000Y-16670000D03*
X198550000Y-18670000D03*
X200450000Y-18670000D03*
X161500000Y-16670000D03*
X160550000Y-18670000D03*
X162450000Y-18670000D03*
X123500000Y-16670000D03*
X122550000Y-18670000D03*
X124450000Y-18670000D03*
X85500000Y-16670000D03*
X84550000Y-18670000D03*
X86450000Y-18670000D03*
X47500000Y-16670000D03*
X46550000Y-18670000D03*
X48450000Y-18670000D03*
X9500000Y-16670000D03*
X8550000Y-18670000D03*
X10450000Y-18670000D03*
X280250000Y7080000D03*
X279300000Y5080000D03*
X281200000Y5080000D03*
X232750000Y7080000D03*
X231800000Y5080000D03*
X233700000Y5080000D03*
X194750000Y7080000D03*
X193800000Y5080000D03*
X195700000Y5080000D03*
X152000000Y7080000D03*
X151050000Y5080000D03*
X152950000Y5080000D03*
X114000000Y7080000D03*
X113050000Y5080000D03*
X114950000Y5080000D03*
X71250000Y7080000D03*
X70300000Y5080000D03*
X72200000Y5080000D03*
X52250000Y7080000D03*
X51300000Y5080000D03*
X53200000Y5080000D03*
X11875000Y7080000D03*
X10925000Y5080000D03*
X12825000Y5080000D03*
D14*
X235581750Y-110857000D03*
X235581750Y-109107000D03*
X239081750Y-110857000D03*
X239081750Y-109107000D03*
X13625000Y-51548000D03*
X13625000Y-53298000D03*
X10125000Y-51548000D03*
X10125000Y-53298000D03*
X199700890Y-110857000D03*
X199700890Y-109107000D03*
X203200890Y-110857000D03*
X203200890Y-109107000D03*
X273332000Y-110857000D03*
X273332000Y-109107000D03*
X276832000Y-110857000D03*
X276832000Y-109107000D03*
X279031250Y-51703000D03*
X279031250Y-53453000D03*
X275531250Y-51703000D03*
X275531250Y-53453000D03*
X279031250Y-8087000D03*
X279031250Y-9837000D03*
X275531250Y-8087000D03*
X275531250Y-9837000D03*
X241116068Y-8087000D03*
X241116068Y-9837000D03*
X237616068Y-8087000D03*
X237616068Y-9837000D03*
X203200890Y-8087000D03*
X203200890Y-9837000D03*
X199700890Y-8087000D03*
X199700890Y-9837000D03*
X165285712Y-8087000D03*
X165285712Y-9837000D03*
X161785712Y-8087000D03*
X161785712Y-9837000D03*
X127370534Y-8087000D03*
X127370534Y-9837000D03*
X123870534Y-8087000D03*
X123870534Y-9837000D03*
X89455356Y-8087000D03*
X89455356Y-9837000D03*
X85955356Y-8087000D03*
X85955356Y-9837000D03*
X51540178Y-8087000D03*
X51540178Y-9837000D03*
X48040178Y-8087000D03*
X48040178Y-9837000D03*
X13625000Y-8087000D03*
X13625000Y-9837000D03*
X10125000Y-8087000D03*
X10125000Y-9837000D03*
X10125000Y-110857000D03*
X10125000Y-109107000D03*
X13625000Y-110857000D03*
X13625000Y-109107000D03*
X48040178Y-110857000D03*
X48040178Y-109107000D03*
X51540178Y-110857000D03*
X51540178Y-109107000D03*
X85955356Y-110857000D03*
X85955356Y-109107000D03*
X89455356Y-110857000D03*
X89455356Y-109107000D03*
X123870534Y-110857000D03*
X123870534Y-109107000D03*
X127370534Y-110857000D03*
X127370534Y-109107000D03*
D12*
X134150000Y-105595000D03*
X136150000Y-106545000D03*
X136150000Y-104645000D03*
D15*
X111835000Y-103240000D03*
X112785000Y-101240000D03*
X110885000Y-101240000D03*
G36*
G01*
X128375000Y-92170000D02*
X129625000Y-92170000D01*
G75*
G02*
X129775000Y-92320000I0J-150000D01*
G01*
X129775000Y-92620000D01*
G75*
G02*
X129625000Y-92770000I-150000J0D01*
G01*
X128375000Y-92770000D01*
G75*
G02*
X128225000Y-92620000I0J150000D01*
G01*
X128225000Y-92320000D01*
G75*
G02*
X128375000Y-92170000I150000J0D01*
G01*
G37*
G36*
G01*
X128375000Y-93170000D02*
X129625000Y-93170000D01*
G75*
G02*
X129775000Y-93320000I0J-150000D01*
G01*
X129775000Y-93620000D01*
G75*
G02*
X129625000Y-93770000I-150000J0D01*
G01*
X128375000Y-93770000D01*
G75*
G02*
X128225000Y-93620000I0J150000D01*
G01*
X128225000Y-93320000D01*
G75*
G02*
X128375000Y-93170000I150000J0D01*
G01*
G37*
G36*
G01*
X128375000Y-94170000D02*
X129625000Y-94170000D01*
G75*
G02*
X129775000Y-94320000I0J-150000D01*
G01*
X129775000Y-94620000D01*
G75*
G02*
X129625000Y-94770000I-150000J0D01*
G01*
X128375000Y-94770000D01*
G75*
G02*
X128225000Y-94620000I0J150000D01*
G01*
X128225000Y-94320000D01*
G75*
G02*
X128375000Y-94170000I150000J0D01*
G01*
G37*
G36*
G01*
X128375000Y-95170000D02*
X129625000Y-95170000D01*
G75*
G02*
X129775000Y-95320000I0J-150000D01*
G01*
X129775000Y-95620000D01*
G75*
G02*
X129625000Y-95770000I-150000J0D01*
G01*
X128375000Y-95770000D01*
G75*
G02*
X128225000Y-95620000I0J150000D01*
G01*
X128225000Y-95320000D01*
G75*
G02*
X128375000Y-95170000I150000J0D01*
G01*
G37*
G36*
G01*
X128375000Y-96170000D02*
X129625000Y-96170000D01*
G75*
G02*
X129775000Y-96320000I0J-150000D01*
G01*
X129775000Y-96620000D01*
G75*
G02*
X129625000Y-96770000I-150000J0D01*
G01*
X128375000Y-96770000D01*
G75*
G02*
X128225000Y-96620000I0J150000D01*
G01*
X128225000Y-96320000D01*
G75*
G02*
X128375000Y-96170000I150000J0D01*
G01*
G37*
G36*
G01*
X132224600Y-90570000D02*
X133525400Y-90570000D01*
G75*
G02*
X133775000Y-90819600I0J-249600D01*
G01*
X133775000Y-91520400D01*
G75*
G02*
X133525400Y-91770000I-249600J0D01*
G01*
X132224600Y-91770000D01*
G75*
G02*
X131975000Y-91520400I0J249600D01*
G01*
X131975000Y-90819600D01*
G75*
G02*
X132224600Y-90570000I249600J0D01*
G01*
G37*
G36*
G01*
X132224600Y-97170000D02*
X133525400Y-97170000D01*
G75*
G02*
X133775000Y-97419600I0J-249600D01*
G01*
X133775000Y-98120400D01*
G75*
G02*
X133525400Y-98370000I-249600J0D01*
G01*
X132224600Y-98370000D01*
G75*
G02*
X131975000Y-98120400I0J249600D01*
G01*
X131975000Y-97419600D01*
G75*
G02*
X132224600Y-97170000I249600J0D01*
G01*
G37*
M02*
