G04 #@! TF.GenerationSoftware,KiCad,Pcbnew,(5.1.7)-1*
G04 #@! TF.CreationDate,2020-11-05T20:24:01+01:00*
G04 #@! TF.ProjectId,isometria-75-pcb-ml,69736f6d-6574-4726-9961-2d37352d7063,rev?*
G04 #@! TF.SameCoordinates,Original*
G04 #@! TF.FileFunction,Legend,Top*
G04 #@! TF.FilePolarity,Positive*
%FSLAX46Y46*%
G04 Gerber Fmt 4.6, Leading zero omitted, Abs format (unit mm)*
G04 Created by KiCad (PCBNEW (5.1.7)-1) date 2020-11-05 20:24:01*
%MOMM*%
%LPD*%
G01*
G04 APERTURE LIST*
%ADD10C,0.120000*%
%ADD11C,0.150000*%
G04 APERTURE END LIST*
D10*
X158999999Y-90670002D02*
G75*
G03*
X158288489Y-91182830I1J-749998D01*
G01*
X164500000Y-107170000D02*
X159000000Y-107170000D01*
X165250000Y-91420000D02*
X165250000Y-106420000D01*
X164500000Y-107170000D02*
G75*
G03*
X165250000Y-106420000I0J750000D01*
G01*
X158288488Y-106657171D02*
G75*
G03*
X159000000Y-107170000I711512J237171D01*
G01*
X158999999Y-90670002D02*
X164500000Y-90670000D01*
X165250000Y-91420000D02*
G75*
G03*
X164500000Y-90670000I-750000J0D01*
G01*
X292750000Y0D02*
G75*
G03*
X292750000Y0I-3000000J0D01*
G01*
X283850000Y2000000D02*
X283850000Y6100000D01*
X295650000Y6100000D02*
X295650000Y2000000D01*
X295650000Y-2000000D02*
X295650000Y-6100000D01*
X283850000Y-2000000D02*
X283850000Y-6100000D01*
X283850000Y-6100000D02*
X295650000Y-6100000D01*
X285950000Y-7500000D02*
X285650000Y-7800000D01*
X285650000Y-7800000D02*
X285650000Y-7200000D01*
X285650000Y-7200000D02*
X285950000Y-7500000D01*
X283850000Y6100000D02*
X286250000Y6100000D01*
X288450000Y6100000D02*
X291050000Y6100000D01*
X293250000Y6100000D02*
X295650000Y6100000D01*
X289250000Y0D02*
X290250000Y0D01*
X289750000Y-500000D02*
X289750000Y500000D01*
D11*
X284506666Y-5494761D02*
X284649523Y-5542380D01*
X284887619Y-5542380D01*
X284982857Y-5494761D01*
X285030476Y-5447142D01*
X285078095Y-5351904D01*
X285078095Y-5256666D01*
X285030476Y-5161428D01*
X284982857Y-5113809D01*
X284887619Y-5066190D01*
X284697142Y-5018571D01*
X284601904Y-4970952D01*
X284554285Y-4923333D01*
X284506666Y-4828095D01*
X284506666Y-4732857D01*
X284554285Y-4637619D01*
X284601904Y-4590000D01*
X284697142Y-4542380D01*
X284935238Y-4542380D01*
X285078095Y-4590000D01*
X285411428Y-4542380D02*
X285649523Y-5542380D01*
X285840000Y-4828095D01*
X286030476Y-5542380D01*
X286268571Y-4542380D01*
X287173333Y-5542380D02*
X286601904Y-5542380D01*
X286887619Y-5542380D02*
X286887619Y-4542380D01*
X286792380Y-4685238D01*
X286697142Y-4780476D01*
X286601904Y-4828095D01*
M02*
