G04 #@! TF.GenerationSoftware,KiCad,Pcbnew,(5.1.7)-1*
G04 #@! TF.CreationDate,2020-11-05T20:24:01+01:00*
G04 #@! TF.ProjectId,isometria-75-pcb-ml,69736f6d-6574-4726-9961-2d37352d7063,rev?*
G04 #@! TF.SameCoordinates,Original*
G04 #@! TF.FileFunction,Soldermask,Top*
G04 #@! TF.FilePolarity,Negative*
%FSLAX46Y46*%
G04 Gerber Fmt 4.6, Leading zero omitted, Abs format (unit mm)*
G04 Created by KiCad (PCBNEW (5.1.7)-1) date 2020-11-05 20:24:01*
%MOMM*%
%LPD*%
G01*
G04 APERTURE LIST*
%ADD10C,4.089800*%
%ADD11C,1.852000*%
%ADD12C,3.150000*%
%ADD13O,1.802000X1.802000*%
%ADD14C,2.102000*%
%ADD15C,0.100000*%
G04 APERTURE END LIST*
D10*
X161500000Y-42750000D03*
D11*
X156420000Y-42750000D03*
X166580000Y-42750000D03*
D10*
X121125000Y-99750000D03*
D11*
X116045000Y-99750000D03*
X126205000Y-99750000D03*
D12*
X71125100Y-92765000D03*
X171124900Y-92765000D03*
D10*
X71125100Y-108005000D03*
X171124900Y-108005000D03*
X166250000Y-61750000D03*
D11*
X161170000Y-61750000D03*
X171330000Y-61750000D03*
G36*
G01*
X146440000Y-88279000D02*
X148140000Y-88279000D01*
G75*
G02*
X148191000Y-88330000I0J-51000D01*
G01*
X148191000Y-90030000D01*
G75*
G02*
X148140000Y-90081000I-51000J0D01*
G01*
X146440000Y-90081000D01*
G75*
G02*
X146389000Y-90030000I0J51000D01*
G01*
X146389000Y-88330000D01*
G75*
G02*
X146440000Y-88279000I51000J0D01*
G01*
G37*
D13*
X149830000Y-89180000D03*
X152370000Y-89180000D03*
D10*
X175750000Y-80750000D03*
D11*
X170670000Y-80750000D03*
X180830000Y-80750000D03*
D10*
X61750000Y0D03*
D11*
X56670000Y0D03*
X66830000Y0D03*
D10*
X0Y0D03*
D11*
X-5080000Y0D03*
X5080000Y0D03*
D10*
X266000000Y-104500000D03*
D11*
X260920000Y-104500000D03*
X271080000Y-104500000D03*
D10*
X285000000Y-104500000D03*
D11*
X279920000Y-104500000D03*
X290080000Y-104500000D03*
D10*
X2375000Y-99750000D03*
D11*
X-2705000Y-99750000D03*
X7455000Y-99750000D03*
D10*
X271880000Y-40312000D03*
X271880000Y-64188000D03*
D12*
X256640000Y-40312000D03*
X256640000Y-64188000D03*
D11*
X263625000Y-57330000D03*
X263625000Y-47170000D03*
D10*
X263625000Y-52250000D03*
X23813000Y-89005000D03*
X-63000Y-89005000D03*
D12*
X23813000Y-73765000D03*
X-63000Y-73765000D03*
D11*
X16955000Y-80750000D03*
X6795000Y-80750000D03*
D10*
X11875000Y-80750000D03*
X266063000Y-70005000D03*
X242187000Y-70005000D03*
D12*
X266063000Y-54765000D03*
X242187000Y-54765000D03*
D11*
X259205000Y-61750000D03*
X249045000Y-61750000D03*
D10*
X254125000Y-61750000D03*
D11*
X256170000Y-42750000D03*
X266330000Y-42750000D03*
D10*
X261250000Y-42750000D03*
X109250000Y-61750000D03*
D11*
X104170000Y-61750000D03*
X114330000Y-61750000D03*
D10*
X194750000Y-99750000D03*
D11*
X189670000Y-99750000D03*
X199830000Y-99750000D03*
D10*
X4750000Y-42750000D03*
D11*
X-330000Y-42750000D03*
X9830000Y-42750000D03*
D10*
X228000000Y-23750000D03*
D11*
X222920000Y-23750000D03*
X233080000Y-23750000D03*
D10*
X209000000Y-23750000D03*
D11*
X203920000Y-23750000D03*
X214080000Y-23750000D03*
D10*
X114000000Y-23750000D03*
D11*
X108920000Y-23750000D03*
X119080000Y-23750000D03*
D10*
X223250000Y0D03*
D11*
X218170000Y0D03*
X228330000Y0D03*
D10*
X242250000Y0D03*
D11*
X237170000Y0D03*
X247330000Y0D03*
D10*
X204250000Y0D03*
D11*
X199170000Y0D03*
X209330000Y0D03*
D10*
X142500000Y0D03*
D11*
X137420000Y0D03*
X147580000Y0D03*
D10*
X28500000Y-42750000D03*
D11*
X23420000Y-42750000D03*
X33580000Y-42750000D03*
D10*
X47500000Y-42750000D03*
D11*
X42420000Y-42750000D03*
X52580000Y-42750000D03*
D10*
X180500000Y-42750000D03*
D11*
X175420000Y-42750000D03*
X185580000Y-42750000D03*
D10*
X218500000Y-42750000D03*
D11*
X213420000Y-42750000D03*
X223580000Y-42750000D03*
D10*
X237500000Y-42750000D03*
D11*
X232420000Y-42750000D03*
X242580000Y-42750000D03*
D10*
X95000000Y-23750000D03*
D11*
X89920000Y-23750000D03*
X100080000Y-23750000D03*
D10*
X133000000Y-23750000D03*
D11*
X127920000Y-23750000D03*
X138080000Y-23750000D03*
D10*
X152000000Y-23750000D03*
D11*
X146920000Y-23750000D03*
X157080000Y-23750000D03*
D10*
X171000000Y-23750000D03*
D11*
X165920000Y-23750000D03*
X176080000Y-23750000D03*
D10*
X289750000Y-23750000D03*
D11*
X284670000Y-23750000D03*
X294830000Y-23750000D03*
D10*
X289750000Y-42750000D03*
D11*
X284670000Y-42750000D03*
X294830000Y-42750000D03*
D10*
X289750000Y-61750000D03*
D11*
X284670000Y-61750000D03*
X294830000Y-61750000D03*
D10*
X289750000Y-80750000D03*
D11*
X284670000Y-80750000D03*
X294830000Y-80750000D03*
D10*
X23750000Y0D03*
D11*
X18670000Y0D03*
X28830000Y0D03*
D10*
X38000000Y-23750000D03*
D11*
X32920000Y-23750000D03*
X43080000Y-23750000D03*
D10*
X85500000Y-42750000D03*
D11*
X80420000Y-42750000D03*
X90580000Y-42750000D03*
D10*
X61750000Y-80750000D03*
D11*
X56670000Y-80750000D03*
X66830000Y-80750000D03*
D10*
X128250000Y-61750000D03*
D11*
X123170000Y-61750000D03*
X133330000Y-61750000D03*
D10*
X19000000Y-23750000D03*
D11*
X13920000Y-23750000D03*
X24080000Y-23750000D03*
D10*
X57000000Y-23750000D03*
D11*
X51920000Y-23750000D03*
X62080000Y-23750000D03*
D10*
X76000000Y-23750000D03*
D11*
X70920000Y-23750000D03*
X81080000Y-23750000D03*
D10*
X256500000Y-23750000D03*
D11*
X251420000Y-23750000D03*
X261580000Y-23750000D03*
D12*
X244562000Y-30735000D03*
X268438000Y-30735000D03*
D10*
X244562000Y-15495000D03*
X268438000Y-15495000D03*
X185250000Y0D03*
D11*
X180170000Y0D03*
X190330000Y0D03*
D10*
X161500000Y0D03*
D11*
X156420000Y0D03*
X166580000Y0D03*
D10*
X80750000Y0D03*
D11*
X75670000Y0D03*
X85830000Y0D03*
D10*
X266000000Y0D03*
D11*
X260920000Y0D03*
X271080000Y0D03*
D14*
X292250000Y7000000D03*
X287250000Y7000000D03*
G36*
G01*
X296350000Y-1651000D02*
X294350000Y-1651000D01*
G75*
G02*
X294299000Y-1600000I0J51000D01*
G01*
X294299000Y1600000D01*
G75*
G02*
X294350000Y1651000I51000J0D01*
G01*
X296350000Y1651000D01*
G75*
G02*
X296401000Y1600000I0J-51000D01*
G01*
X296401000Y-1600000D01*
G75*
G02*
X296350000Y-1651000I-51000J0D01*
G01*
G37*
G36*
G01*
X285150000Y-1651000D02*
X283150000Y-1651000D01*
G75*
G02*
X283099000Y-1600000I0J51000D01*
G01*
X283099000Y1600000D01*
G75*
G02*
X283150000Y1651000I51000J0D01*
G01*
X285150000Y1651000D01*
G75*
G02*
X285201000Y1600000I0J-51000D01*
G01*
X285201000Y-1600000D01*
G75*
G02*
X285150000Y-1651000I-51000J0D01*
G01*
G37*
X292250000Y-7500000D03*
X289750000Y-7500000D03*
G36*
G01*
X288250000Y-8551000D02*
X286250000Y-8551000D01*
G75*
G02*
X286199000Y-8500000I0J51000D01*
G01*
X286199000Y-6500000D01*
G75*
G02*
X286250000Y-6449000I51000J0D01*
G01*
X288250000Y-6449000D01*
G75*
G02*
X288301000Y-6500000I0J-51000D01*
G01*
X288301000Y-8500000D01*
G75*
G02*
X288250000Y-8551000I-51000J0D01*
G01*
G37*
D10*
X52250000Y-61750000D03*
D11*
X47170000Y-61750000D03*
X57330000Y-61750000D03*
D10*
X266000000Y-85500000D03*
D11*
X260920000Y-85500000D03*
X271080000Y-85500000D03*
D10*
X247000000Y-104500000D03*
D11*
X241920000Y-104500000D03*
X252080000Y-104500000D03*
D10*
X237500000Y-80750000D03*
D11*
X232420000Y-80750000D03*
X242580000Y-80750000D03*
D10*
X242250000Y-61750000D03*
D11*
X237170000Y-61750000D03*
X247330000Y-61750000D03*
D10*
X223250000Y-61750000D03*
D11*
X218170000Y-61750000D03*
X228330000Y-61750000D03*
D10*
X220875000Y-99750000D03*
D11*
X215795000Y-99750000D03*
X225955000Y-99750000D03*
D10*
X213750000Y-80750000D03*
D11*
X208670000Y-80750000D03*
X218830000Y-80750000D03*
D10*
X204250000Y-61750000D03*
D11*
X199170000Y-61750000D03*
X209330000Y-61750000D03*
D10*
X199500000Y-42750000D03*
D11*
X194420000Y-42750000D03*
X204580000Y-42750000D03*
D10*
X194750000Y-80750000D03*
D11*
X189670000Y-80750000D03*
X199830000Y-80750000D03*
D10*
X185250000Y-61750000D03*
D11*
X180170000Y-61750000D03*
X190330000Y-61750000D03*
D10*
X190000000Y-23750000D03*
D11*
X184920000Y-23750000D03*
X195080000Y-23750000D03*
D10*
X156750000Y-80750000D03*
D11*
X151670000Y-80750000D03*
X161830000Y-80750000D03*
D10*
X147250000Y-61750000D03*
D11*
X142170000Y-61750000D03*
X152330000Y-61750000D03*
D10*
X142500000Y-42750000D03*
D11*
X137420000Y-42750000D03*
X147580000Y-42750000D03*
D10*
X137750000Y-80750000D03*
D11*
X132670000Y-80750000D03*
X142830000Y-80750000D03*
D10*
X123500000Y-42750000D03*
D11*
X118420000Y-42750000D03*
X128580000Y-42750000D03*
D10*
X123500000Y0D03*
D11*
X118420000Y0D03*
X128580000Y0D03*
D10*
X118750000Y-80750000D03*
D11*
X113670000Y-80750000D03*
X123830000Y-80750000D03*
D10*
X104500000Y-42750000D03*
D11*
X99420000Y-42750000D03*
X109580000Y-42750000D03*
D10*
X104500000Y0D03*
D11*
X99420000Y0D03*
X109580000Y0D03*
D10*
X99750000Y-80750000D03*
D11*
X94670000Y-80750000D03*
X104830000Y-80750000D03*
D10*
X90250000Y-61750000D03*
D11*
X85170000Y-61750000D03*
X95330000Y-61750000D03*
D10*
X80750000Y-80750000D03*
D11*
X75670000Y-80750000D03*
X85830000Y-80750000D03*
D10*
X71250000Y-61750000D03*
D11*
X66170000Y-61750000D03*
X76330000Y-61750000D03*
D10*
X66500000Y-42750000D03*
D11*
X61420000Y-42750000D03*
X71580000Y-42750000D03*
D10*
X49875000Y-99750000D03*
D11*
X44795000Y-99750000D03*
X54955000Y-99750000D03*
D10*
X42750000Y-80750000D03*
D11*
X37670000Y-80750000D03*
X47830000Y-80750000D03*
D10*
X33250000Y-61750000D03*
D11*
X28170000Y-61750000D03*
X38330000Y-61750000D03*
D10*
X42750000Y0D03*
D11*
X37670000Y0D03*
X47830000Y0D03*
D10*
X26125000Y-99750000D03*
D11*
X21045000Y-99750000D03*
X31205000Y-99750000D03*
D10*
X23750000Y-80750000D03*
D11*
X18670000Y-80750000D03*
X28830000Y-80750000D03*
D10*
X2375000Y-80750000D03*
D11*
X-2705000Y-80750000D03*
X7455000Y-80750000D03*
D10*
X7125000Y-61750000D03*
D11*
X2045000Y-61750000D03*
X12205000Y-61750000D03*
D10*
X0Y-23750000D03*
D11*
X-5080000Y-23750000D03*
X5080000Y-23750000D03*
D15*
G36*
X17814348Y-81087150D02*
G01*
X17855114Y-81185566D01*
X17914200Y-81273996D01*
X17914331Y-81275992D01*
X17912668Y-81277103D01*
X17910991Y-81276376D01*
X17899467Y-81262333D01*
X17880830Y-81247037D01*
X17859566Y-81235672D01*
X17836491Y-81228672D01*
X17812500Y-81226309D01*
X17788509Y-81228672D01*
X17765434Y-81235672D01*
X17744171Y-81247037D01*
X17725534Y-81262332D01*
X17714009Y-81276376D01*
X17712137Y-81277080D01*
X17710591Y-81275812D01*
X17710800Y-81273996D01*
X17769886Y-81185566D01*
X17810652Y-81087150D01*
X17812239Y-81085932D01*
X17814348Y-81087150D01*
G37*
G36*
X17714009Y-80223624D02*
G01*
X17725533Y-80237667D01*
X17744170Y-80252963D01*
X17765434Y-80264328D01*
X17788509Y-80271328D01*
X17812500Y-80273691D01*
X17836491Y-80271328D01*
X17859566Y-80264328D01*
X17880829Y-80252963D01*
X17899466Y-80237668D01*
X17910991Y-80223624D01*
X17912863Y-80222920D01*
X17914409Y-80224188D01*
X17914200Y-80226004D01*
X17855114Y-80314434D01*
X17814348Y-80412850D01*
X17812761Y-80414068D01*
X17810652Y-80412850D01*
X17769886Y-80314434D01*
X17710800Y-80226004D01*
X17710669Y-80224008D01*
X17712332Y-80222897D01*
X17714009Y-80223624D01*
G37*
G36*
X255253409Y-63444761D02*
G01*
X255253077Y-63446002D01*
X255252746Y-63446498D01*
X255134743Y-63731384D01*
X255132953Y-63740382D01*
X255131634Y-63741886D01*
X255129672Y-63741496D01*
X255129001Y-63739796D01*
X255130783Y-63721707D01*
X255128420Y-63697716D01*
X255121420Y-63674641D01*
X255110055Y-63653377D01*
X255094759Y-63634740D01*
X255076122Y-63619445D01*
X255054859Y-63608080D01*
X255031784Y-63601080D01*
X255007793Y-63598717D01*
X254983802Y-63601080D01*
X254966418Y-63606354D01*
X254964470Y-63605900D01*
X254963889Y-63603986D01*
X254965072Y-63602592D01*
X255088012Y-63551668D01*
X255250302Y-63443229D01*
X255252298Y-63443098D01*
X255253409Y-63444761D01*
G37*
G36*
X256006507Y-62528103D02*
G01*
X256006834Y-62529902D01*
X256001560Y-62547288D01*
X255999197Y-62571279D01*
X256001560Y-62595270D01*
X256008560Y-62618345D01*
X256019925Y-62639609D01*
X256035220Y-62658246D01*
X256053857Y-62673541D01*
X256075121Y-62684906D01*
X256098196Y-62691906D01*
X256122187Y-62694269D01*
X256146178Y-62691906D01*
X256163573Y-62686629D01*
X256165521Y-62687083D01*
X256166102Y-62688997D01*
X256164919Y-62690391D01*
X255898497Y-62800747D01*
X255851845Y-62831919D01*
X255849849Y-62832050D01*
X255848738Y-62830387D01*
X255849071Y-62829145D01*
X255926668Y-62713012D01*
X256003072Y-62528556D01*
X256004659Y-62527338D01*
X256006507Y-62528103D01*
G37*
G36*
X248189348Y-62087150D02*
G01*
X248230114Y-62185566D01*
X248289200Y-62273996D01*
X248289331Y-62275992D01*
X248287668Y-62277103D01*
X248285991Y-62276376D01*
X248274467Y-62262333D01*
X248255830Y-62247037D01*
X248234566Y-62235672D01*
X248211491Y-62228672D01*
X248187500Y-62226309D01*
X248163509Y-62228672D01*
X248140434Y-62235672D01*
X248119171Y-62247037D01*
X248100534Y-62262332D01*
X248089009Y-62276376D01*
X248087137Y-62277080D01*
X248085591Y-62275812D01*
X248085800Y-62273996D01*
X248144886Y-62185566D01*
X248185652Y-62087150D01*
X248187239Y-62085932D01*
X248189348Y-62087150D01*
G37*
G36*
X248089009Y-61223624D02*
G01*
X248100533Y-61237667D01*
X248119170Y-61252963D01*
X248140434Y-61264328D01*
X248163509Y-61271328D01*
X248187500Y-61273691D01*
X248211491Y-61271328D01*
X248234566Y-61264328D01*
X248255829Y-61252963D01*
X248274466Y-61237668D01*
X248285991Y-61223624D01*
X248287863Y-61222920D01*
X248289409Y-61224188D01*
X248289200Y-61226004D01*
X248230114Y-61314434D01*
X248189348Y-61412850D01*
X248187761Y-61414068D01*
X248185652Y-61412850D01*
X248144886Y-61314434D01*
X248085800Y-61226004D01*
X248085669Y-61224008D01*
X248087332Y-61222897D01*
X248089009Y-61223624D01*
G37*
G36*
X264707252Y-53975603D02*
G01*
X264706919Y-53976845D01*
X264675747Y-54023497D01*
X264565392Y-54289918D01*
X264563805Y-54291136D01*
X264561957Y-54290371D01*
X264561630Y-54288572D01*
X264566907Y-54271176D01*
X264569269Y-54247185D01*
X264566906Y-54223194D01*
X264559905Y-54200119D01*
X264548540Y-54178856D01*
X264533244Y-54160219D01*
X264514607Y-54144924D01*
X264493343Y-54133559D01*
X264470268Y-54126559D01*
X264446277Y-54124197D01*
X264422286Y-54126560D01*
X264404904Y-54131834D01*
X264402956Y-54131380D01*
X264402375Y-54129466D01*
X264403558Y-54128072D01*
X264588012Y-54051668D01*
X264704145Y-53974071D01*
X264706141Y-53973940D01*
X264707252Y-53975603D01*
G37*
G36*
X265481027Y-53089619D02*
G01*
X265481354Y-53091418D01*
X265476080Y-53108802D01*
X265473717Y-53132793D01*
X265476080Y-53156784D01*
X265483080Y-53179859D01*
X265494445Y-53201123D01*
X265509740Y-53219760D01*
X265528377Y-53235055D01*
X265549641Y-53246420D01*
X265572716Y-53253420D01*
X265596707Y-53255783D01*
X265614796Y-53254001D01*
X265616618Y-53254826D01*
X265616814Y-53256816D01*
X265615382Y-53257953D01*
X265606384Y-53259743D01*
X265321498Y-53377746D01*
X265321002Y-53378077D01*
X265319006Y-53378206D01*
X265317896Y-53376542D01*
X265318229Y-53375302D01*
X265426668Y-53213012D01*
X265477592Y-53090072D01*
X265479179Y-53088854D01*
X265481027Y-53089619D01*
G37*
G36*
X256858245Y-41865692D02*
G01*
X256858635Y-41867654D01*
X256857322Y-41868925D01*
X256839939Y-41874198D01*
X256818676Y-41885563D01*
X256800039Y-41900858D01*
X256784743Y-41919495D01*
X256773378Y-41940759D01*
X256766378Y-41963834D01*
X256764015Y-41987825D01*
X256766378Y-42011816D01*
X256773378Y-42034891D01*
X256784743Y-42056154D01*
X256796265Y-42070194D01*
X256796591Y-42072168D01*
X256795045Y-42073436D01*
X256793305Y-42072877D01*
X256756174Y-42035746D01*
X256605566Y-41935114D01*
X256466975Y-41877707D01*
X256465757Y-41876120D01*
X256466522Y-41874272D01*
X256468130Y-41873897D01*
X256485822Y-41877416D01*
X256794178Y-41877416D01*
X256856351Y-41865049D01*
X256858245Y-41865692D01*
G37*
G36*
X255862088Y-41674925D02*
G01*
X255898497Y-41699253D01*
X256183384Y-41817257D01*
X256229836Y-41826497D01*
X256231340Y-41827816D01*
X256230950Y-41829778D01*
X256229446Y-41830459D01*
X256079435Y-41830459D01*
X255901778Y-41865797D01*
X255840800Y-41891055D01*
X255838817Y-41890794D01*
X255838052Y-41888946D01*
X255839092Y-41887443D01*
X255855108Y-41878883D01*
X255873745Y-41863588D01*
X255889040Y-41844951D01*
X255900405Y-41823687D01*
X255907405Y-41800612D01*
X255909768Y-41776621D01*
X255907405Y-41752630D01*
X255900405Y-41729555D01*
X255889040Y-41708291D01*
X255873745Y-41689654D01*
X255859708Y-41678134D01*
X255859004Y-41676262D01*
X255860273Y-41674716D01*
X255862088Y-41674925D01*
G37*
M02*
