M48
; DRILL file {KiCad (5.1.7)-1} date 10/12/20 22:00:12
; FORMAT={3:3/ absolute / metric / suppress leading zeros}
; #@! TF.CreationDate,2020-10-12T22:00:12+02:00
; #@! TF.GenerationSoftware,Kicad,Pcbnew,(5.1.7)-1
FMAT,2
METRIC,TZ
T1C0.400
T2C1.000
T3C1.040
T4C1.500
T5C1.524
T6C1.750
T7C3.048
T8C3.988
%
G90
G05
T1
X-8191Y4826
X-8191Y-14161
X-8191Y-33274
X-8191Y-51816
X-8191Y-71057
X-8191Y-89789
X-8191Y-109283
X-5524Y8191
X-4699Y-112331
X5778Y-51816
X5778Y-89789
X6883Y-9042
X7430Y-71057
X7874Y-109347
X8636Y-12700
X10160Y-11430
X10160Y-107696
X11430Y7938
X11938Y-48514
X12827Y-55626
X13589Y-48768
X13970Y-54356
X14414Y-89789
X14795Y-71057
X15621Y-33274
X17145Y-111125
X19177Y-89789
X20320Y-107696
X22860Y-51816
X24384Y-71057
X25654Y-33274
X26797Y-14161
X28829Y-89789
X32766Y7938
X35750Y-51816
X37465Y-33274
X38608Y-107696
X42799Y-71057
X48006Y-89789
X48641Y-14161
X52007Y7811
X55372Y-107696
X55563Y-51816
X60579Y-33274
X61278Y-71057
X62802Y-89789
X66548Y-107696
X67056Y-14161
X71882Y7938
X73851Y-51816
X77978Y-33274
X81153Y-71057
X81788Y-107696
X82487Y-89789
X86487Y7938
X89535Y-14161
X91948Y-51816
X93980Y-33274
X98743Y7811
X100711Y-71057
X106236Y-89789
X107188Y-107696
X107632Y-51816
X109220Y-33274
X109982Y-14161
X114110Y7938
X115697Y-71057
X118047Y-51816
X118491Y-33274
X118999Y-14161
X119583Y-97155
X120396Y-89789
X121920Y-107696
X124968Y-71057
X125476Y-97663
X125476Y-107188
X128016Y-98171
X128905Y-14161
X128905Y-102997
X129032Y-51816
X129134Y-105816
X129413Y-33274
X129438Y-108052
X130619Y7938
X135110Y6586
X135255Y-71057
X135636Y-36164
X137287Y-99314
X137460Y-55164
X137605Y-51816
X138176Y-14161
X139065Y-102743
X139065Y-107188
X140208Y-33274
X140970Y-17164
X141224Y-99568
X141351Y-102743
X141351Y-107188
X144209Y-71057
X144780Y-97282
X144780Y-99568
X145847Y-103937
X146069Y-74168
X148209Y-97282
X148209Y-99568
X148273Y-91250
X148844Y-101917
X149098Y7938
X149289Y-51816
X149479Y-105156
X150241Y-106236
X150622Y-14161
X150622Y-91186
X150959Y-105156
X151638Y-112586
X151676Y-106236
X151867Y-95072
X151917Y-92932
X152400Y-105156
X152781Y-33274
X153162Y-71057
X153924Y-104140
X154813Y-91250
X155309Y-106389
X155573Y-90551
X156291Y-91268
X156339Y-106389
X157035Y-90551
X157429Y-106389
X158198Y-91885
X158699Y-88183
X159296Y-91923
X161989Y-112840
X162306Y-93599
X163576Y-93574
X164909Y-89789
X165303Y-107290
X166154Y-99428
X167132Y-95250
X167323Y7938
X168021Y-51816
X168656Y-101473
X170815Y-14161
X171704Y-33274
X172657Y-98552
X172819Y-100112
X174689Y-71057
X174879Y-99695
X178435Y-101822
X179197Y7620
X179349Y-103784
X180594Y-108077
X182436Y-89789
X187198Y-102743
X187770Y-51816
X191262Y-33274
X191389Y-14161
X192024Y-71057
X195580Y-89789
X196088Y7938
X206883Y-89789
X208153Y-42291
X208534Y-51816
X212471Y-14161
X212852Y-71057
X213106Y-61468
X213233Y1778
X213233Y-33274
X215265Y7683
X222504Y-107188
X224282Y-79248
X224790Y-89789
X225044Y-102870
X225806Y-51816
X229997Y-14161
X230759Y-107315
X231648Y-71057
X232029Y-109728
X232918Y1778
X232918Y-99822
X233045Y7938
X233045Y-33274
X233426Y-101600
X234315Y-108331
X236030Y-93536
X240741Y-100508
X247015Y-51816
X249238Y-33274
X249365Y-71057
X251079Y-14161
X252921Y-93536
X253238Y2159
X254444Y7938
X255016Y-104140
X259207Y-45530
X263017Y-33274
X263906Y-14161
X268351Y-71057
X270320Y-93536
X271780Y-101346
X272820Y-7717
X273304Y-96520
X273558Y-52451
X273812Y-104140
X274898Y-47752
X275888Y-47752
X276098Y-97536
X276479Y2413
X277495Y-14161
X278321Y-33274
X278384Y7938
X278511Y-93536
X278638Y-71057
X281051Y-10414
X281051Y-53086
X283083Y-14161
X283972Y-93536
X284036Y-71057
X284671Y-33274
X290195Y-14161
X291529Y-71057
X292354Y-51816
X292608Y-104140
X293624Y-33274
X294640Y-93536
X295275Y-112840
X295339Y8191
X298006Y-110173
X298069Y5588
T2
X287250Y7000
X287250Y-7500
X289750Y-7500
X292250Y7000
X292250Y-7500
X165735Y-103530
T3
X36730Y-28830
X39270Y-28830
X141230Y-5080
X143770Y-5080
X136480Y-85830
X139020Y-85830
X93730Y-28830
X96270Y-28830
X79480Y-85830
X82020Y-85830
X219605Y-104830
X222145Y-104830
X103230Y-47830
X105770Y-47830
X79480Y-5080
X82020Y-5080
X207730Y-28830
X210270Y-28830
X240980Y-5080
X243520Y-5080
X160230Y-47830
X162770Y-47830
X288480Y-28830
X291020Y-28830
X31980Y-66830
X34520Y-66830
X131730Y-28830
X134270Y-28830
X264730Y-90580
X267270Y-90580
X198230Y-47830
X200770Y-47830
X24855Y-104830
X27395Y-104830
X240980Y-66830
X243520Y-66830
X122230Y-5080
X124770Y-5080
X264730Y-109580
X267270Y-109580
X193480Y-104830
X196020Y-104830
X84230Y-47830
X86770Y-47830
X107980Y-66830
X110520Y-66830
X112730Y-28830
X115270Y-28830
X-1270Y-5080
X1270Y-5080
X141230Y-47830
X143770Y-47830
X202980Y-5080
X205520Y-5080
X74730Y-28830
X77270Y-28830
X41480Y-85830
X44020Y-85830
X41480Y-5080
X44020Y-5080
X236230Y-85830
X238770Y-85830
X122230Y-47830
X124770Y-47830
X245730Y-109580
X248270Y-109580
X160230Y-5080
X162770Y-5080
X288480Y-66830
X291020Y-66830
X288480Y-47830
X291020Y-47830
X1105Y-104830
X3645Y-104830
X226730Y-28830
X229270Y-28830
X60480Y-5080
X63020Y-5080
X283730Y-109580
X286270Y-109580
X22480Y-85830
X25020Y-85830
X188730Y-28830
X191270Y-28830
X164980Y-66830
X167520Y-66830
X145980Y-66830
X148520Y-66830
X202980Y-66830
X205520Y-66830
X50980Y-66830
X53520Y-66830
X22480Y-5080
X25020Y-5080
X60480Y-85830
X63020Y-85830
X-1270Y-28830
X1270Y-28830
X46230Y-47830
X48770Y-47830
X55730Y-28830
X58270Y-28830
X117480Y-85830
X120020Y-85830
X217230Y-47830
X219770Y-47830
X264730Y-5080
X267270Y-5080
X221980Y-66830
X224520Y-66830
X1105Y-85830
X3645Y-85830
X174480Y-85830
X177020Y-85830
X3480Y-47830
X6020Y-47830
X236230Y-47830
X238770Y-47830
X48605Y-104830
X51145Y-104830
X27230Y-47830
X29770Y-47830
X183980Y-66830
X186520Y-66830
X169730Y-28830
X172270Y-28830
X212480Y-85830
X215020Y-85830
X155480Y-85830
X158020Y-85830
X255230Y-28830
X257770Y-28830
X69980Y-66830
X72520Y-66830
X17730Y-28830
X20270Y-28830
X5855Y-66830
X8395Y-66830
X288480Y-85830
X291020Y-85830
X262355Y-57330
X264895Y-57330
X119855Y-104830
X122395Y-104830
X179230Y-47830
X181770Y-47830
X103230Y-5080
X105770Y-5080
X221980Y-5080
X224520Y-5080
X183980Y-5080
X186520Y-5080
X65230Y-47830
X67770Y-47830
X150730Y-28830
X153270Y-28830
X193480Y-85830
X196020Y-85830
X88980Y-66830
X91520Y-66830
X126980Y-66830
X129520Y-66830
X98480Y-85830
X101020Y-85830
T5
X148190Y-21210
X154540Y-18670
X190940Y-78210
X197290Y-75670
X86440Y-59210
X92790Y-56670
X124440Y-59210
X130790Y-56670
X95940Y-78210
X102290Y-75670
X34190Y-21210
X40540Y-18670
X138690Y2540
X145040Y5080
X133940Y-78210
X140290Y-75670
X91190Y-21210
X97540Y-18670
X76940Y-78210
X83290Y-75670
X217065Y-97210
X223415Y-94670
X100690Y-40210
X107040Y-37670
X76940Y2540
X83290Y5080
X205190Y-21210
X211540Y-18670
X238440Y2540
X244790Y5080
X157690Y-40210
X164040Y-37670
X285940Y-21210
X292290Y-18670
X29440Y-59210
X35790Y-56670
X129190Y-21210
X135540Y-18670
X262190Y-82960
X268540Y-80420
X195690Y-40210
X202040Y-37670
X22315Y-97210
X28665Y-94670
X238440Y-59210
X244790Y-56670
X119690Y2540
X126040Y5080
X262190Y-101960
X268540Y-99420
X190940Y-97210
X197290Y-94670
X81690Y-40210
X88040Y-37670
X105440Y-59210
X111790Y-56670
X110190Y-21210
X116540Y-18670
X-3810Y2540
X2540Y5080
X138690Y-40210
X145040Y-37670
X200440Y2540
X206790Y5080
X72190Y-21210
X78540Y-18670
X38940Y-78210
X45290Y-75670
X38940Y2540
X45290Y5080
X233690Y-78210
X240040Y-75670
X119690Y-40210
X126040Y-37670
X243190Y-101960
X249540Y-99420
X157690Y2540
X164040Y5080
X285940Y-59210
X292290Y-56670
X285940Y-40210
X292290Y-37670
X-1435Y-97210
X4915Y-94670
X224190Y-21210
X230540Y-18670
X57940Y2540
X64290Y5080
X281190Y-101960
X287540Y-99420
X19940Y-78210
X26290Y-75670
X186190Y-21210
X192540Y-18670
X162440Y-59210
X168790Y-56670
X143440Y-59210
X149790Y-56670
X200440Y-59210
X206790Y-56670
X48440Y-59210
X54790Y-56670
X19940Y2540
X26290Y5080
X57940Y-78210
X64290Y-75670
X-3810Y-21210
X2540Y-18670
X43690Y-40210
X50040Y-37670
X53190Y-21210
X59540Y-18670
X114940Y-78210
X121290Y-75670
X214690Y-40210
X221040Y-37670
X262190Y2540
X268540Y5080
X219440Y-59210
X225790Y-56670
X-1435Y-78210
X4915Y-75670
X171940Y-78210
X178290Y-75670
X940Y-40210
X7290Y-37670
X233690Y-40210
X240040Y-37670
X46065Y-97210
X52415Y-94670
X24690Y-40210
X31040Y-37670
X181440Y-59210
X187790Y-56670
X167190Y-21210
X173540Y-18670
X209940Y-78210
X216290Y-75670
X152940Y-78210
X159290Y-75670
X252690Y-21210
X259040Y-18670
X67440Y-59210
X73790Y-56670
X15190Y-21210
X21540Y-18670
X3315Y-59210
X9665Y-56670
X285940Y-78210
X292290Y-75670
X259815Y-49710
X266165Y-47170
X117315Y-97210
X123665Y-94670
X176690Y-40210
X183040Y-37670
X100690Y2540
X107040Y5080
X219440Y2540
X225790Y5080
X181440Y2540
X187790Y5080
X62690Y-40210
X69040Y-37670
T6
X32920Y-23750
X43080Y-23750
X137420Y0
X147580Y0
X132670Y-80750
X142830Y-80750
X89920Y-23750
X100080Y-23750
X75670Y-80750
X85830Y-80750
X215795Y-99750
X225955Y-99750
X99420Y-42750
X109580Y-42750
X75670Y0
X85830Y0
X203920Y-23750
X214080Y-23750
X237170Y0
X247330Y0
X156420Y-42750
X166580Y-42750
X284670Y-23750
X294830Y-23750
X28170Y-61750
X38330Y-61750
X127920Y-23750
X138080Y-23750
X260920Y-85500
X271080Y-85500
X194420Y-42750
X204580Y-42750
X21045Y-99750
X31205Y-99750
X237170Y-61750
X247330Y-61750
X118420Y0
X128580Y0
X260920Y-104500
X271080Y-104500
X189670Y-99750
X199830Y-99750
X80420Y-42750
X90580Y-42750
X104170Y-61750
X114330Y-61750
X108920Y-23750
X119080Y-23750
X-5080Y0
X5080Y0
X137420Y-42750
X147580Y-42750
X199170Y0
X209330Y0
X70920Y-23750
X81080Y-23750
X37670Y-80750
X47830Y-80750
X37670Y0
X47830Y0
X232420Y-80750
X242580Y-80750
X118420Y-42750
X128580Y-42750
X241920Y-104500
X252080Y-104500
X156420Y0
X166580Y0
X284670Y-61750
X294830Y-61750
X284670Y-42750
X294830Y-42750
X-2705Y-99750
X7455Y-99750
X222920Y-23750
X233080Y-23750
X56670Y0
X66830Y0
X279920Y-104500
X290080Y-104500
X18670Y-80750
X28830Y-80750
X184920Y-23750
X195080Y-23750
X161170Y-61750
X171330Y-61750
X142170Y-61750
X152330Y-61750
X199170Y-61750
X209330Y-61750
X47170Y-61750
X57330Y-61750
X18670Y0
X28830Y0
X56670Y-80750
X66830Y-80750
X-5080Y-23750
X5080Y-23750
X42420Y-42750
X52580Y-42750
X51920Y-23750
X62080Y-23750
X113670Y-80750
X123830Y-80750
X213420Y-42750
X223580Y-42750
X260920Y0
X271080Y0
X218170Y-61750
X228330Y-61750
X-2705Y-80750
X7455Y-80750
X170670Y-80750
X180830Y-80750
X-330Y-42750
X9830Y-42750
X232420Y-42750
X242580Y-42750
X44795Y-99750
X54955Y-99750
X23420Y-42750
X33580Y-42750
X180170Y-61750
X190330Y-61750
X165920Y-23750
X176080Y-23750
X208670Y-80750
X218830Y-80750
X151670Y-80750
X161830Y-80750
X251420Y-23750
X261580Y-23750
X66170Y-61750
X76330Y-61750
X13920Y-23750
X24080Y-23750
X2045Y-61750
X12205Y-61750
X284670Y-80750
X294830Y-80750
X258545Y-52250
X268705Y-52250
X116045Y-99750
X126205Y-99750
X175420Y-42750
X185580Y-42750
X99420Y0
X109580Y0
X218170Y0
X228330Y0
X180170Y0
X190330Y0
X61420Y-42750
X71580Y-42750
X146920Y-23750
X157080Y-23750
X189670Y-80750
X199830Y-80750
X85170Y-61750
X95330Y-61750
X123170Y-61750
X133330Y-61750
X94670Y-80750
X104830Y-80750
T7
X244562Y-30735
X268438Y-30735
X256640Y-40312
X256640Y-64188
X71125Y-92765
X171125Y-92765
T8
X175750Y-80750
X4750Y-42750
X237500Y-42750
X49875Y-99750
X28500Y-42750
X185250Y-61750
X171000Y-23750
X213750Y-80750
X156750Y-80750
X244562Y-15495
X256500Y-23750
X268438Y-15495
X71250Y-61750
X19000Y-23750
X7125Y-61750
X289750Y-80750
X263625Y-52250
X271880Y-40312
X271880Y-64188
X71125Y-108005
X121125Y-99750
X171125Y-108005
X180500Y-42750
X104500Y0
X223250Y0
X185250Y0
X66500Y-42750
X152000Y-23750
X194750Y-80750
X90250Y-61750
X128250Y-61750
X99750Y-80750
X38000Y-23750
X142500Y0
X137750Y-80750
X95000Y-23750
X80750Y-80750
X220875Y-99750
X104500Y-42750
X80750Y0
X209000Y-23750
X242250Y0
X161500Y-42750
X289750Y-23750
X33250Y-61750
X133000Y-23750
X266000Y-85500
X199500Y-42750
X26125Y-99750
X242250Y-61750
X123500Y0
X266000Y-104500
X194750Y-99750
X85500Y-42750
X109250Y-61750
X114000Y-23750
X0Y0
X142500Y-42750
X204250Y0
X76000Y-23750
X42750Y-80750
X42750Y0
X237500Y-80750
X123500Y-42750
X247000Y-104500
X161500Y0
X289750Y-61750
X289750Y-42750
X2375Y-99750
X228000Y-23750
X61750Y0
X285000Y-104500
X23750Y-80750
X190000Y-23750
X166250Y-61750
X147250Y-61750
X204250Y-61750
X52250Y-61750
X23750Y0
X61750Y-80750
X0Y-23750
X47500Y-42750
X57000Y-23750
X118750Y-80750
X218500Y-42750
X266000Y0
X223250Y-61750
X2375Y-80750
T4
G00X284150Y-650
M15
G01X284150Y650
M16
G05
G00X295350Y-650
M15
G01X295350Y650
M16
G05
T0
M30
