G04 #@! TF.GenerationSoftware,KiCad,Pcbnew,(5.1.7)-1*
G04 #@! TF.CreationDate,2020-10-12T22:00:20+02:00*
G04 #@! TF.ProjectId,isometria-75-pcb-iso,69736f6d-6574-4726-9961-2d37352d7063,rev?*
G04 #@! TF.SameCoordinates,Original*
G04 #@! TF.FileFunction,Profile,NP*
%FSLAX46Y46*%
G04 Gerber Fmt 4.6, Leading zero omitted, Abs format (unit mm)*
G04 Created by KiCad (PCBNEW (5.1.7)-1) date 2020-10-12 22:00:20*
%MOMM*%
%LPD*%
G01*
G04 APERTURE LIST*
G04 #@! TA.AperFunction,Profile*
%ADD10C,0.200000*%
G04 #@! TD*
G04 APERTURE END LIST*
D10*
X295458275Y9185821D02*
X178221921Y9185821D01*
X178221921Y9185821D02*
X178007334Y9158325D01*
X178007334Y9158325D02*
X177810387Y9079559D01*
X177810387Y9079559D02*
X177639663Y8955102D01*
X177639663Y8955102D02*
X177503742Y8790533D01*
X177503742Y8790533D02*
X177445001Y8680633D01*
X299002607Y-110269863D02*
X299002607Y5641494D01*
X96694999Y8680633D02*
X96551030Y8385913D01*
X96551030Y8385913D02*
X96387472Y8105270D01*
X96387472Y8105270D02*
X96205373Y7839384D01*
X96205373Y7839384D02*
X96005780Y7588937D01*
X96005780Y7588937D02*
X95789742Y7354611D01*
X95789742Y7354611D02*
X95558306Y7137086D01*
X95558306Y7137086D02*
X95312521Y6937045D01*
X95312521Y6937045D02*
X95053433Y6755167D01*
X95053433Y6755167D02*
X94782091Y6592136D01*
X94782091Y6592136D02*
X94499542Y6448631D01*
X94499542Y6448631D02*
X94206835Y6325335D01*
X94206835Y6325335D02*
X93905017Y6222928D01*
X93905017Y6222928D02*
X93595136Y6142092D01*
X93595136Y6142092D02*
X93278240Y6083509D01*
X93278240Y6083509D02*
X92955377Y6047859D01*
X92955377Y6047859D02*
X92627594Y6035825D01*
X-6480000Y-113309000D02*
X-6367816Y-113493978D01*
X-6367816Y-113493978D02*
X-6215927Y-113642035D01*
X-6215927Y-113642035D02*
X-6032914Y-113747589D01*
X-6032914Y-113747589D02*
X-5827359Y-113805062D01*
X-5827359Y-113805062D02*
X-5703080Y-113814169D01*
X298497411Y-111046759D02*
X298682392Y-110934582D01*
X298682392Y-110934582D02*
X298830453Y-110782700D01*
X298830453Y-110782700D02*
X298936014Y-110599693D01*
X298936014Y-110599693D02*
X298993495Y-110394141D01*
X298993495Y-110394141D02*
X299002607Y-110269863D01*
X-5703080Y-113814169D02*
X151908267Y-113814169D01*
X152685187Y-113309000D02*
X152829155Y-113014280D01*
X152829155Y-113014280D02*
X152992713Y-112733636D01*
X152992713Y-112733636D02*
X153174812Y-112467750D01*
X153174812Y-112467750D02*
X153374404Y-112217303D01*
X153374404Y-112217303D02*
X153590442Y-111982976D01*
X153590442Y-111982976D02*
X153821878Y-111765451D01*
X153821878Y-111765451D02*
X154067664Y-111565409D01*
X154067664Y-111565409D02*
X154326752Y-111383532D01*
X154326752Y-111383532D02*
X154598094Y-111220500D01*
X154598094Y-111220500D02*
X154880643Y-111076995D01*
X154880643Y-111076995D02*
X155173350Y-110953698D01*
X155173350Y-110953698D02*
X155475168Y-110851291D01*
X155475168Y-110851291D02*
X155785050Y-110770455D01*
X155785050Y-110770455D02*
X156101946Y-110711872D01*
X156101946Y-110711872D02*
X156424810Y-110676222D01*
X156424810Y-110676222D02*
X156752594Y-110664188D01*
X168533268Y9185821D02*
X97471921Y9185821D01*
X-6480000Y7937500D02*
X-6480000Y7937500D01*
X-8742218Y-111046759D02*
X-8555543Y-111134842D01*
X-8555543Y-111134842D02*
X-8373837Y-111231103D01*
X-8373837Y-111231103D02*
X-8197329Y-111335312D01*
X-8197329Y-111335312D02*
X-8026248Y-111447239D01*
X-8026248Y-111447239D02*
X-7860823Y-111566655D01*
X-7860823Y-111566655D02*
X-7701284Y-111693332D01*
X-7701284Y-111693332D02*
X-7547859Y-111827040D01*
X-7547859Y-111827040D02*
X-7400778Y-111967550D01*
X-7400778Y-111967550D02*
X-7260269Y-112114633D01*
X-7260269Y-112114633D02*
X-7126563Y-112268059D01*
X-7126563Y-112268059D02*
X-6999888Y-112427600D01*
X-6999888Y-112427600D02*
X-6880473Y-112593026D01*
X-6880473Y-112593026D02*
X-6768547Y-112764108D01*
X-6768547Y-112764108D02*
X-6664340Y-112940617D01*
X-6664340Y-112940617D02*
X-6568082Y-113122324D01*
X-6568082Y-113122324D02*
X-6480000Y-113309000D01*
X177445001Y8680633D02*
X177301032Y8385913D01*
X177301032Y8385913D02*
X177137474Y8105269D01*
X177137474Y8105269D02*
X176955375Y7839383D01*
X176955375Y7839383D02*
X176755783Y7588936D01*
X176755783Y7588936D02*
X176539745Y7354610D01*
X176539745Y7354610D02*
X176308309Y7137085D01*
X176308309Y7137085D02*
X176062524Y6937043D01*
X176062524Y6937043D02*
X175803436Y6755165D01*
X175803436Y6755165D02*
X175532094Y6592133D01*
X175532094Y6592133D02*
X175249545Y6448628D01*
X175249545Y6448628D02*
X174956838Y6325332D01*
X174956838Y6325332D02*
X174655019Y6222925D01*
X174655019Y6222925D02*
X174345138Y6142089D01*
X174345138Y6142089D02*
X174028242Y6083506D01*
X174028242Y6083506D02*
X173705378Y6047856D01*
X173705378Y6047856D02*
X173377595Y6035822D01*
X-9247406Y-110269863D02*
X-9219906Y-110484444D01*
X-9219906Y-110484444D02*
X-9141137Y-110681384D01*
X-9141137Y-110681384D02*
X-9016681Y-110852103D01*
X-9016681Y-110852103D02*
X-8852116Y-110988019D01*
X-8852116Y-110988019D02*
X-8742218Y-111046759D01*
X97471921Y9185821D02*
X97257333Y9158326D01*
X97257333Y9158326D02*
X97060386Y9079560D01*
X97060386Y9079560D02*
X96889661Y8955102D01*
X96889661Y8955102D02*
X96753740Y8790534D01*
X96753740Y8790534D02*
X96694999Y8680633D01*
X298497411Y6418417D02*
X298310737Y6506499D01*
X298310737Y6506499D02*
X298129032Y6602759D01*
X298129032Y6602759D02*
X297952525Y6706966D01*
X297952525Y6706966D02*
X297781445Y6818892D01*
X297781445Y6818892D02*
X297616021Y6938307D01*
X297616021Y6938307D02*
X297456482Y7064982D01*
X297456482Y7064982D02*
X297303057Y7198689D01*
X297303057Y7198689D02*
X297155977Y7339197D01*
X297155977Y7339197D02*
X297015468Y7486278D01*
X297015468Y7486278D02*
X296881762Y7639703D01*
X296881762Y7639703D02*
X296755087Y7799242D01*
X296755087Y7799242D02*
X296635672Y7964666D01*
X296635672Y7964666D02*
X296523746Y8135747D01*
X296523746Y8135747D02*
X296419539Y8312254D01*
X296419539Y8312254D02*
X296323279Y8493959D01*
X296323279Y8493959D02*
X296235197Y8680633D01*
X296235197Y-113309000D02*
X296323278Y-113122324D01*
X296323278Y-113122324D02*
X296419537Y-112940617D01*
X296419537Y-112940617D02*
X296523744Y-112764108D01*
X296523744Y-112764108D02*
X296635669Y-112593026D01*
X296635669Y-112593026D02*
X296755084Y-112427600D01*
X296755084Y-112427600D02*
X296881759Y-112268060D01*
X296881759Y-112268060D02*
X297015465Y-112114634D01*
X297015465Y-112114634D02*
X297155973Y-111967551D01*
X297155973Y-111967551D02*
X297303054Y-111827041D01*
X297303054Y-111827041D02*
X297456479Y-111693333D01*
X297456479Y-111693333D02*
X297616018Y-111566656D01*
X297616018Y-111566656D02*
X297781442Y-111447239D01*
X297781442Y-111447239D02*
X297952523Y-111335312D01*
X297952523Y-111335312D02*
X298129031Y-111231103D01*
X298129031Y-111231103D02*
X298310736Y-111134843D01*
X298310736Y-111134843D02*
X298497411Y-111046759D01*
X-8742218Y6418417D02*
X-8927202Y6306235D01*
X-8927202Y6306235D02*
X-9075263Y6154347D01*
X-9075263Y6154347D02*
X-9180822Y5971333D01*
X-9180822Y5971333D02*
X-9238298Y5765775D01*
X-9238298Y5765775D02*
X-9247406Y5641494D01*
X87783266Y9185821D02*
X-5703080Y9185821D01*
X161596920Y-113814169D02*
X295458275Y-113814169D01*
X156752594Y-110664188D02*
X157080377Y-110676222D01*
X157080377Y-110676222D02*
X157403241Y-110711872D01*
X157403241Y-110711872D02*
X157720137Y-110770455D01*
X157720137Y-110770455D02*
X158030018Y-110851291D01*
X158030018Y-110851291D02*
X158331837Y-110953698D01*
X158331837Y-110953698D02*
X158624544Y-111076995D01*
X158624544Y-111076995D02*
X158907093Y-111220500D01*
X158907093Y-111220500D02*
X159178435Y-111383532D01*
X159178435Y-111383532D02*
X159437523Y-111565409D01*
X159437523Y-111565409D02*
X159683308Y-111765451D01*
X159683308Y-111765451D02*
X159914744Y-111982976D01*
X159914744Y-111982976D02*
X160130782Y-112217303D01*
X160130782Y-112217303D02*
X160330374Y-112467750D01*
X160330374Y-112467750D02*
X160512473Y-112733636D01*
X160512473Y-112733636D02*
X160676031Y-113014280D01*
X160676031Y-113014280D02*
X160820000Y-113309000D01*
X-5703080Y9185821D02*
X-5917666Y9158325D01*
X-5917666Y9158325D02*
X-6114613Y9079559D01*
X-6114613Y9079559D02*
X-6285337Y8955102D01*
X-6285337Y8955102D02*
X-6421258Y8790533D01*
X-6421258Y8790533D02*
X-6480000Y8680633D01*
X169310188Y8680633D02*
X169198007Y8865616D01*
X169198007Y8865616D02*
X169046119Y9013677D01*
X169046119Y9013677D02*
X168863106Y9119236D01*
X168863106Y9119236D02*
X168657549Y9176712D01*
X168657549Y9176712D02*
X168533268Y9185821D01*
X-9247406Y5641494D02*
X-9247406Y-110269863D01*
X295458275Y-113814169D02*
X295672860Y-113786676D01*
X295672860Y-113786676D02*
X295869805Y-113707914D01*
X295869805Y-113707914D02*
X296040530Y-113583461D01*
X296040530Y-113583461D02*
X296176454Y-113418898D01*
X296176454Y-113418898D02*
X296235197Y-113309000D01*
X151908267Y-113814169D02*
X152122851Y-113786676D01*
X152122851Y-113786676D02*
X152319796Y-113707913D01*
X152319796Y-113707913D02*
X152490521Y-113583460D01*
X152490521Y-113583460D02*
X152626444Y-113418897D01*
X152626444Y-113418897D02*
X152685187Y-113309000D01*
X88560188Y8680633D02*
X88448006Y8865617D01*
X88448006Y8865617D02*
X88296118Y9013678D01*
X88296118Y9013678D02*
X88113104Y9119237D01*
X88113104Y9119237D02*
X87907547Y9176713D01*
X87907547Y9176713D02*
X87783266Y9185821D01*
X92627594Y6035825D02*
X92299810Y6047859D01*
X92299810Y6047859D02*
X91976947Y6083509D01*
X91976947Y6083509D02*
X91660050Y6142092D01*
X91660050Y6142092D02*
X91350169Y6222928D01*
X91350169Y6222928D02*
X91048351Y6325335D01*
X91048351Y6325335D02*
X90755644Y6448631D01*
X90755644Y6448631D02*
X90473095Y6592136D01*
X90473095Y6592136D02*
X90201753Y6755167D01*
X90201753Y6755167D02*
X89942666Y6937045D01*
X89942666Y6937045D02*
X89696880Y7137086D01*
X89696880Y7137086D02*
X89465444Y7354611D01*
X89465444Y7354611D02*
X89249406Y7588937D01*
X89249406Y7588937D02*
X89049813Y7839384D01*
X89049813Y7839384D02*
X88867714Y8105270D01*
X88867714Y8105270D02*
X88704156Y8385913D01*
X88704156Y8385913D02*
X88560188Y8680633D01*
X173377595Y6035822D02*
X173049811Y6047856D01*
X173049811Y6047856D02*
X172726947Y6083506D01*
X172726947Y6083506D02*
X172410051Y6142089D01*
X172410051Y6142089D02*
X172100170Y6222925D01*
X172100170Y6222925D02*
X171798351Y6325332D01*
X171798351Y6325332D02*
X171505644Y6448628D01*
X171505644Y6448628D02*
X171223095Y6592133D01*
X171223095Y6592133D02*
X170951753Y6755165D01*
X170951753Y6755165D02*
X170692665Y6937043D01*
X170692665Y6937043D02*
X170446879Y7137085D01*
X170446879Y7137085D02*
X170215444Y7354610D01*
X170215444Y7354610D02*
X169999406Y7588936D01*
X169999406Y7588936D02*
X169799813Y7839383D01*
X169799813Y7839383D02*
X169617714Y8105269D01*
X169617714Y8105269D02*
X169454156Y8385913D01*
X169454156Y8385913D02*
X169310188Y8680633D01*
X-6480000Y8680633D02*
X-6568082Y8493959D01*
X-6568082Y8493959D02*
X-6664342Y8312254D01*
X-6664342Y8312254D02*
X-6768549Y8135747D01*
X-6768549Y8135747D02*
X-6880475Y7964666D01*
X-6880475Y7964666D02*
X-6999891Y7799242D01*
X-6999891Y7799242D02*
X-7126566Y7639703D01*
X-7126566Y7639703D02*
X-7260273Y7486278D01*
X-7260273Y7486278D02*
X-7400781Y7339197D01*
X-7400781Y7339197D02*
X-7547862Y7198689D01*
X-7547862Y7198689D02*
X-7701287Y7064982D01*
X-7701287Y7064982D02*
X-7860826Y6938307D01*
X-7860826Y6938307D02*
X-8026251Y6818892D01*
X-8026251Y6818892D02*
X-8197331Y6706966D01*
X-8197331Y6706966D02*
X-8373838Y6602759D01*
X-8373838Y6602759D02*
X-8555544Y6506499D01*
X-8555544Y6506499D02*
X-8742218Y6418417D01*
X299002607Y5641494D02*
X298975110Y5856082D01*
X298975110Y5856082D02*
X298896342Y6053029D01*
X298896342Y6053029D02*
X298771883Y6223754D01*
X298771883Y6223754D02*
X298607313Y6359676D01*
X298607313Y6359676D02*
X298497411Y6418417D01*
X296235197Y8680633D02*
X296123015Y8865617D01*
X296123015Y8865617D02*
X295971127Y9013678D01*
X295971127Y9013678D02*
X295788113Y9119237D01*
X295788113Y9119237D02*
X295582556Y9176713D01*
X295582556Y9176713D02*
X295458275Y9185821D01*
X160820000Y-113309000D02*
X160932183Y-113493978D01*
X160932183Y-113493978D02*
X161084072Y-113642034D01*
X161084072Y-113642034D02*
X161267085Y-113747589D01*
X161267085Y-113747589D02*
X161472640Y-113805062D01*
X161472640Y-113805062D02*
X161596920Y-113814169D01*
M02*
