G04 #@! TF.GenerationSoftware,KiCad,Pcbnew,(5.1.7)-1*
G04 #@! TF.CreationDate,2020-10-12T22:00:17+02:00*
G04 #@! TF.ProjectId,isometria-75-pcb-iso,69736f6d-6574-4726-9961-2d37352d7063,rev?*
G04 #@! TF.SameCoordinates,Original*
G04 #@! TF.FileFunction,Soldermask,Top*
G04 #@! TF.FilePolarity,Negative*
%FSLAX46Y46*%
G04 Gerber Fmt 4.6, Leading zero omitted, Abs format (unit mm)*
G04 Created by KiCad (PCBNEW (5.1.7)-1) date 2020-10-12 22:00:17*
%MOMM*%
%LPD*%
G01*
G04 APERTURE LIST*
%ADD10C,4.089800*%
%ADD11C,1.852000*%
%ADD12C,3.150000*%
%ADD13C,2.102000*%
G04 APERTURE END LIST*
D10*
X109250000Y-61750000D03*
D11*
X104170000Y-61750000D03*
X114330000Y-61750000D03*
G36*
G01*
X164834000Y-104380400D02*
X164834000Y-102680400D01*
G75*
G02*
X164885000Y-102629400I51000J0D01*
G01*
X166585000Y-102629400D01*
G75*
G02*
X166636000Y-102680400I0J-51000D01*
G01*
X166636000Y-104380400D01*
G75*
G02*
X166585000Y-104431400I-51000J0D01*
G01*
X164885000Y-104431400D01*
G75*
G02*
X164834000Y-104380400I0J51000D01*
G01*
G37*
D10*
X121125000Y-99750000D03*
D11*
X116045000Y-99750000D03*
X126205000Y-99750000D03*
D12*
X71125100Y-92765000D03*
X171124900Y-92765000D03*
D10*
X71125100Y-108005000D03*
X171124900Y-108005000D03*
X194750000Y-99750000D03*
D11*
X189670000Y-99750000D03*
X199830000Y-99750000D03*
D10*
X2375000Y-99750000D03*
D11*
X-2705000Y-99750000D03*
X7455000Y-99750000D03*
D10*
X4750000Y-42750000D03*
D11*
X-330000Y-42750000D03*
X9830000Y-42750000D03*
D10*
X228000000Y-23750000D03*
D11*
X222920000Y-23750000D03*
X233080000Y-23750000D03*
D10*
X209000000Y-23750000D03*
D11*
X203920000Y-23750000D03*
X214080000Y-23750000D03*
D10*
X114000000Y-23750000D03*
D11*
X108920000Y-23750000D03*
X119080000Y-23750000D03*
D10*
X0Y0D03*
D11*
X-5080000Y0D03*
X5080000Y0D03*
D10*
X223250000Y0D03*
D11*
X218170000Y0D03*
X228330000Y0D03*
D10*
X242250000Y0D03*
D11*
X237170000Y0D03*
X247330000Y0D03*
D10*
X204250000Y0D03*
D11*
X199170000Y0D03*
X209330000Y0D03*
D10*
X142500000Y0D03*
D11*
X137420000Y0D03*
X147580000Y0D03*
D10*
X61750000Y0D03*
D11*
X56670000Y0D03*
X66830000Y0D03*
D10*
X28500000Y-42750000D03*
D11*
X23420000Y-42750000D03*
X33580000Y-42750000D03*
D10*
X47500000Y-42750000D03*
D11*
X42420000Y-42750000D03*
X52580000Y-42750000D03*
D10*
X180500000Y-42750000D03*
D11*
X175420000Y-42750000D03*
X185580000Y-42750000D03*
D10*
X218500000Y-42750000D03*
D11*
X213420000Y-42750000D03*
X223580000Y-42750000D03*
D10*
X237500000Y-42750000D03*
D11*
X232420000Y-42750000D03*
X242580000Y-42750000D03*
D10*
X95000000Y-23750000D03*
D11*
X89920000Y-23750000D03*
X100080000Y-23750000D03*
D10*
X133000000Y-23750000D03*
D11*
X127920000Y-23750000D03*
X138080000Y-23750000D03*
D10*
X152000000Y-23750000D03*
D11*
X146920000Y-23750000D03*
X157080000Y-23750000D03*
D10*
X171000000Y-23750000D03*
D11*
X165920000Y-23750000D03*
X176080000Y-23750000D03*
D10*
X289750000Y-23750000D03*
D11*
X284670000Y-23750000D03*
X294830000Y-23750000D03*
D10*
X289750000Y-42750000D03*
D11*
X284670000Y-42750000D03*
X294830000Y-42750000D03*
D10*
X289750000Y-61750000D03*
D11*
X284670000Y-61750000D03*
X294830000Y-61750000D03*
D10*
X289750000Y-80750000D03*
D11*
X284670000Y-80750000D03*
X294830000Y-80750000D03*
D10*
X263625000Y-52250000D03*
D11*
X258545000Y-52250000D03*
X268705000Y-52250000D03*
D12*
X256640000Y-64188000D03*
X256640000Y-40312000D03*
D10*
X271880000Y-64188000D03*
X271880000Y-40312000D03*
X175750000Y-80750000D03*
D11*
X170670000Y-80750000D03*
X180830000Y-80750000D03*
D10*
X23750000Y0D03*
D11*
X18670000Y0D03*
X28830000Y0D03*
D10*
X38000000Y-23750000D03*
D11*
X32920000Y-23750000D03*
X43080000Y-23750000D03*
D10*
X85500000Y-42750000D03*
D11*
X80420000Y-42750000D03*
X90580000Y-42750000D03*
D10*
X61750000Y-80750000D03*
D11*
X56670000Y-80750000D03*
X66830000Y-80750000D03*
D10*
X128250000Y-61750000D03*
D11*
X123170000Y-61750000D03*
X133330000Y-61750000D03*
D10*
X166250000Y-61750000D03*
D11*
X161170000Y-61750000D03*
X171330000Y-61750000D03*
D10*
X19000000Y-23750000D03*
D11*
X13920000Y-23750000D03*
X24080000Y-23750000D03*
D10*
X57000000Y-23750000D03*
D11*
X51920000Y-23750000D03*
X62080000Y-23750000D03*
D10*
X76000000Y-23750000D03*
D11*
X70920000Y-23750000D03*
X81080000Y-23750000D03*
D10*
X256500000Y-23750000D03*
D11*
X251420000Y-23750000D03*
X261580000Y-23750000D03*
D12*
X244562000Y-30735000D03*
X268438000Y-30735000D03*
D10*
X244562000Y-15495000D03*
X268438000Y-15495000D03*
X185250000Y0D03*
D11*
X180170000Y0D03*
X190330000Y0D03*
D10*
X161500000Y0D03*
D11*
X156420000Y0D03*
X166580000Y0D03*
D10*
X80750000Y0D03*
D11*
X75670000Y0D03*
X85830000Y0D03*
D10*
X266000000Y0D03*
D11*
X260920000Y0D03*
X271080000Y0D03*
D13*
X292250000Y7000000D03*
X287250000Y7000000D03*
G36*
G01*
X296350000Y-1651000D02*
X294350000Y-1651000D01*
G75*
G02*
X294299000Y-1600000I0J51000D01*
G01*
X294299000Y1600000D01*
G75*
G02*
X294350000Y1651000I51000J0D01*
G01*
X296350000Y1651000D01*
G75*
G02*
X296401000Y1600000I0J-51000D01*
G01*
X296401000Y-1600000D01*
G75*
G02*
X296350000Y-1651000I-51000J0D01*
G01*
G37*
G36*
G01*
X285150000Y-1651000D02*
X283150000Y-1651000D01*
G75*
G02*
X283099000Y-1600000I0J51000D01*
G01*
X283099000Y1600000D01*
G75*
G02*
X283150000Y1651000I51000J0D01*
G01*
X285150000Y1651000D01*
G75*
G02*
X285201000Y1600000I0J-51000D01*
G01*
X285201000Y-1600000D01*
G75*
G02*
X285150000Y-1651000I-51000J0D01*
G01*
G37*
X292250000Y-7500000D03*
X289750000Y-7500000D03*
G36*
G01*
X288250000Y-8551000D02*
X286250000Y-8551000D01*
G75*
G02*
X286199000Y-8500000I0J51000D01*
G01*
X286199000Y-6500000D01*
G75*
G02*
X286250000Y-6449000I51000J0D01*
G01*
X288250000Y-6449000D01*
G75*
G02*
X288301000Y-6500000I0J-51000D01*
G01*
X288301000Y-8500000D01*
G75*
G02*
X288250000Y-8551000I-51000J0D01*
G01*
G37*
D10*
X52250000Y-61750000D03*
D11*
X47170000Y-61750000D03*
X57330000Y-61750000D03*
D10*
X285000000Y-104500000D03*
D11*
X279920000Y-104500000D03*
X290080000Y-104500000D03*
D10*
X266000000Y-104500000D03*
D11*
X260920000Y-104500000D03*
X271080000Y-104500000D03*
D10*
X266000000Y-85500000D03*
D11*
X260920000Y-85500000D03*
X271080000Y-85500000D03*
D10*
X247000000Y-104500000D03*
D11*
X241920000Y-104500000D03*
X252080000Y-104500000D03*
D10*
X237500000Y-80750000D03*
D11*
X232420000Y-80750000D03*
X242580000Y-80750000D03*
D10*
X242250000Y-61750000D03*
D11*
X237170000Y-61750000D03*
X247330000Y-61750000D03*
D10*
X223250000Y-61750000D03*
D11*
X218170000Y-61750000D03*
X228330000Y-61750000D03*
D10*
X220875000Y-99750000D03*
D11*
X215795000Y-99750000D03*
X225955000Y-99750000D03*
D10*
X213750000Y-80750000D03*
D11*
X208670000Y-80750000D03*
X218830000Y-80750000D03*
D10*
X204250000Y-61750000D03*
D11*
X199170000Y-61750000D03*
X209330000Y-61750000D03*
D10*
X199500000Y-42750000D03*
D11*
X194420000Y-42750000D03*
X204580000Y-42750000D03*
D10*
X194750000Y-80750000D03*
D11*
X189670000Y-80750000D03*
X199830000Y-80750000D03*
D10*
X185250000Y-61750000D03*
D11*
X180170000Y-61750000D03*
X190330000Y-61750000D03*
D10*
X190000000Y-23750000D03*
D11*
X184920000Y-23750000D03*
X195080000Y-23750000D03*
D10*
X161500000Y-42750000D03*
D11*
X156420000Y-42750000D03*
X166580000Y-42750000D03*
D10*
X156750000Y-80750000D03*
D11*
X151670000Y-80750000D03*
X161830000Y-80750000D03*
D10*
X147250000Y-61750000D03*
D11*
X142170000Y-61750000D03*
X152330000Y-61750000D03*
D10*
X142500000Y-42750000D03*
D11*
X137420000Y-42750000D03*
X147580000Y-42750000D03*
D10*
X137750000Y-80750000D03*
D11*
X132670000Y-80750000D03*
X142830000Y-80750000D03*
D10*
X123500000Y-42750000D03*
D11*
X118420000Y-42750000D03*
X128580000Y-42750000D03*
D10*
X123500000Y0D03*
D11*
X118420000Y0D03*
X128580000Y0D03*
D10*
X118750000Y-80750000D03*
D11*
X113670000Y-80750000D03*
X123830000Y-80750000D03*
D10*
X104500000Y-42750000D03*
D11*
X99420000Y-42750000D03*
X109580000Y-42750000D03*
D10*
X104500000Y0D03*
D11*
X99420000Y0D03*
X109580000Y0D03*
D10*
X99750000Y-80750000D03*
D11*
X94670000Y-80750000D03*
X104830000Y-80750000D03*
D10*
X90250000Y-61750000D03*
D11*
X85170000Y-61750000D03*
X95330000Y-61750000D03*
D10*
X80750000Y-80750000D03*
D11*
X75670000Y-80750000D03*
X85830000Y-80750000D03*
D10*
X71250000Y-61750000D03*
D11*
X66170000Y-61750000D03*
X76330000Y-61750000D03*
D10*
X66500000Y-42750000D03*
D11*
X61420000Y-42750000D03*
X71580000Y-42750000D03*
D10*
X49875000Y-99750000D03*
D11*
X44795000Y-99750000D03*
X54955000Y-99750000D03*
D10*
X42750000Y-80750000D03*
D11*
X37670000Y-80750000D03*
X47830000Y-80750000D03*
D10*
X33250000Y-61750000D03*
D11*
X28170000Y-61750000D03*
X38330000Y-61750000D03*
D10*
X42750000Y0D03*
D11*
X37670000Y0D03*
X47830000Y0D03*
D10*
X26125000Y-99750000D03*
D11*
X21045000Y-99750000D03*
X31205000Y-99750000D03*
D10*
X23750000Y-80750000D03*
D11*
X18670000Y-80750000D03*
X28830000Y-80750000D03*
D10*
X2375000Y-80750000D03*
D11*
X-2705000Y-80750000D03*
X7455000Y-80750000D03*
D10*
X7125000Y-61750000D03*
D11*
X2045000Y-61750000D03*
X12205000Y-61750000D03*
D10*
X0Y-23750000D03*
D11*
X-5080000Y-23750000D03*
X5080000Y-23750000D03*
M02*
