G04 #@! TF.GenerationSoftware,KiCad,Pcbnew,(5.1.5)-3*
G04 #@! TF.CreationDate,2020-04-27T21:09:27+02:00*
G04 #@! TF.ProjectId,isometria-75-pcb-iso,69736f6d-6574-4726-9961-2d37352d7063,rev?*
G04 #@! TF.SameCoordinates,Original*
G04 #@! TF.FileFunction,Legend,Top*
G04 #@! TF.FilePolarity,Positive*
%FSLAX46Y46*%
G04 Gerber Fmt 4.6, Leading zero omitted, Abs format (unit mm)*
G04 Created by KiCad (PCBNEW (5.1.5)-3) date 2020-04-27 21:09:27*
%MOMM*%
%LPD*%
G04 APERTURE LIST*
%ADD10C,0.120000*%
%ADD11C,0.150000*%
G04 APERTURE END LIST*
D10*
X164405000Y-102200400D02*
X165735000Y-102200400D01*
X164405000Y-103530400D02*
X164405000Y-102200400D01*
X164405000Y-104800400D02*
X167065000Y-104800400D01*
X167065000Y-104800400D02*
X167065000Y-104860400D01*
X164405000Y-104800400D02*
X164405000Y-104860400D01*
X164405000Y-104860400D02*
X167065000Y-104860400D01*
X289750000Y-500000D02*
X289750000Y500000D01*
X289250000Y0D02*
X290250000Y0D01*
X293250000Y6100000D02*
X295650000Y6100000D01*
X288450000Y6100000D02*
X291050000Y6100000D01*
X283850000Y6100000D02*
X286250000Y6100000D01*
X285650000Y-7200000D02*
X285950000Y-7500000D01*
X285650000Y-7800000D02*
X285650000Y-7200000D01*
X285950000Y-7500000D02*
X285650000Y-7800000D01*
X283850000Y-6100000D02*
X295650000Y-6100000D01*
X283850000Y-2000000D02*
X283850000Y-6100000D01*
X295650000Y-2000000D02*
X295650000Y-6100000D01*
X295650000Y6100000D02*
X295650000Y2000000D01*
X283850000Y2000000D02*
X283850000Y6100000D01*
X292750000Y0D02*
G75*
G03X292750000Y0I-3000000J0D01*
G01*
D11*
X164449285Y-100652780D02*
X164449285Y-101367066D01*
X164401666Y-101509923D01*
X164306428Y-101605161D01*
X164163571Y-101652780D01*
X164068333Y-101652780D01*
X165449285Y-101652780D02*
X164877857Y-101652780D01*
X165163571Y-101652780D02*
X165163571Y-100652780D01*
X165068333Y-100795638D01*
X164973095Y-100890876D01*
X164877857Y-100938495D01*
X166068333Y-100652780D02*
X166163571Y-100652780D01*
X166258809Y-100700400D01*
X166306428Y-100748019D01*
X166354047Y-100843257D01*
X166401666Y-101033733D01*
X166401666Y-101271828D01*
X166354047Y-101462304D01*
X166306428Y-101557542D01*
X166258809Y-101605161D01*
X166163571Y-101652780D01*
X166068333Y-101652780D01*
X165973095Y-101605161D01*
X165925476Y-101557542D01*
X165877857Y-101462304D01*
X165830238Y-101271828D01*
X165830238Y-101033733D01*
X165877857Y-100843257D01*
X165925476Y-100748019D01*
X165973095Y-100700400D01*
X166068333Y-100652780D01*
X166735000Y-100652780D02*
X167354047Y-100652780D01*
X167020714Y-101033733D01*
X167163571Y-101033733D01*
X167258809Y-101081352D01*
X167306428Y-101128971D01*
X167354047Y-101224209D01*
X167354047Y-101462304D01*
X167306428Y-101557542D01*
X167258809Y-101605161D01*
X167163571Y-101652780D01*
X166877857Y-101652780D01*
X166782619Y-101605161D01*
X166735000Y-101557542D01*
X286446761Y-5612714D02*
X286494380Y-5469857D01*
X286494380Y-5231761D01*
X286446761Y-5136523D01*
X286399142Y-5088904D01*
X286303904Y-5041285D01*
X286208666Y-5041285D01*
X286113428Y-5088904D01*
X286065809Y-5136523D01*
X286018190Y-5231761D01*
X285970571Y-5422238D01*
X285922952Y-5517476D01*
X285875333Y-5565095D01*
X285780095Y-5612714D01*
X285684857Y-5612714D01*
X285589619Y-5565095D01*
X285542000Y-5517476D01*
X285494380Y-5422238D01*
X285494380Y-5184142D01*
X285542000Y-5041285D01*
X285494380Y-4707952D02*
X286494380Y-4469857D01*
X285780095Y-4279380D01*
X286494380Y-4088904D01*
X285494380Y-3850809D01*
X285589619Y-3517476D02*
X285542000Y-3469857D01*
X285494380Y-3374619D01*
X285494380Y-3136523D01*
X285542000Y-3041285D01*
X285589619Y-2993666D01*
X285684857Y-2946047D01*
X285780095Y-2946047D01*
X285922952Y-2993666D01*
X286494380Y-3565095D01*
X286494380Y-2946047D01*
X285494380Y-2327000D02*
X285494380Y-2231761D01*
X285542000Y-2136523D01*
X285589619Y-2088904D01*
X285684857Y-2041285D01*
X285875333Y-1993666D01*
X286113428Y-1993666D01*
X286303904Y-2041285D01*
X286399142Y-2088904D01*
X286446761Y-2136523D01*
X286494380Y-2231761D01*
X286494380Y-2327000D01*
X286446761Y-2422238D01*
X286399142Y-2469857D01*
X286303904Y-2517476D01*
X286113428Y-2565095D01*
X285875333Y-2565095D01*
X285684857Y-2517476D01*
X285589619Y-2469857D01*
X285542000Y-2422238D01*
X285494380Y-2327000D01*
X286494380Y-1041285D02*
X286494380Y-1612714D01*
X286494380Y-1327000D02*
X285494380Y-1327000D01*
X285637238Y-1422238D01*
X285732476Y-1517476D01*
X285780095Y-1612714D01*
M02*
