G04 #@! TF.GenerationSoftware,KiCad,Pcbnew,(5.1.7)-1*
G04 #@! TF.CreationDate,2020-10-12T22:00:17+02:00*
G04 #@! TF.ProjectId,isometria-75-pcb-iso,69736f6d-6574-4726-9961-2d37352d7063,rev?*
G04 #@! TF.SameCoordinates,Original*
G04 #@! TF.FileFunction,Legend,Top*
G04 #@! TF.FilePolarity,Positive*
%FSLAX46Y46*%
G04 Gerber Fmt 4.6, Leading zero omitted, Abs format (unit mm)*
G04 Created by KiCad (PCBNEW (5.1.7)-1) date 2020-10-12 22:00:17*
%MOMM*%
%LPD*%
G01*
G04 APERTURE LIST*
%ADD10C,0.120000*%
%ADD11C,0.150000*%
G04 APERTURE END LIST*
D10*
X164405000Y-104860400D02*
X167065000Y-104860400D01*
X164405000Y-104800400D02*
X164405000Y-104860400D01*
X167065000Y-104800400D02*
X167065000Y-104860400D01*
X164405000Y-104800400D02*
X167065000Y-104800400D01*
X164405000Y-103530400D02*
X164405000Y-102200400D01*
X164405000Y-102200400D02*
X165735000Y-102200400D01*
X292750000Y0D02*
G75*
G03*
X292750000Y0I-3000000J0D01*
G01*
X283850000Y2000000D02*
X283850000Y6100000D01*
X295650000Y6100000D02*
X295650000Y2000000D01*
X295650000Y-2000000D02*
X295650000Y-6100000D01*
X283850000Y-2000000D02*
X283850000Y-6100000D01*
X283850000Y-6100000D02*
X295650000Y-6100000D01*
X285950000Y-7500000D02*
X285650000Y-7800000D01*
X285650000Y-7800000D02*
X285650000Y-7200000D01*
X285650000Y-7200000D02*
X285950000Y-7500000D01*
X283850000Y6100000D02*
X286250000Y6100000D01*
X288450000Y6100000D02*
X291050000Y6100000D01*
X293250000Y6100000D02*
X295650000Y6100000D01*
X289250000Y0D02*
X290250000Y0D01*
X289750000Y-500000D02*
X289750000Y500000D01*
D11*
X165401666Y-100652780D02*
X165401666Y-101367066D01*
X165354047Y-101509923D01*
X165258809Y-101605161D01*
X165115952Y-101652780D01*
X165020714Y-101652780D01*
X165782619Y-100652780D02*
X166401666Y-100652780D01*
X166068333Y-101033733D01*
X166211190Y-101033733D01*
X166306428Y-101081352D01*
X166354047Y-101128971D01*
X166401666Y-101224209D01*
X166401666Y-101462304D01*
X166354047Y-101557542D01*
X166306428Y-101605161D01*
X166211190Y-101652780D01*
X165925476Y-101652780D01*
X165830238Y-101605161D01*
X165782619Y-101557542D01*
X286446761Y-4660333D02*
X286494380Y-4517476D01*
X286494380Y-4279380D01*
X286446761Y-4184142D01*
X286399142Y-4136523D01*
X286303904Y-4088904D01*
X286208666Y-4088904D01*
X286113428Y-4136523D01*
X286065809Y-4184142D01*
X286018190Y-4279380D01*
X285970571Y-4469857D01*
X285922952Y-4565095D01*
X285875333Y-4612714D01*
X285780095Y-4660333D01*
X285684857Y-4660333D01*
X285589619Y-4612714D01*
X285542000Y-4565095D01*
X285494380Y-4469857D01*
X285494380Y-4231761D01*
X285542000Y-4088904D01*
X285494380Y-3755571D02*
X286494380Y-3517476D01*
X285780095Y-3327000D01*
X286494380Y-3136523D01*
X285494380Y-2898428D01*
X285494380Y-2612714D02*
X285494380Y-1993666D01*
X285875333Y-2327000D01*
X285875333Y-2184142D01*
X285922952Y-2088904D01*
X285970571Y-2041285D01*
X286065809Y-1993666D01*
X286303904Y-1993666D01*
X286399142Y-2041285D01*
X286446761Y-2088904D01*
X286494380Y-2184142D01*
X286494380Y-2469857D01*
X286446761Y-2565095D01*
X286399142Y-2612714D01*
M02*
